<mxfile host="www.draw.io" modified="2020-03-04T22:54:22.577Z" agent="Mozilla/5.0 (Windows NT 10.0; Win64; x64) AppleWebKit/537.36 (KHTML, like Gecko) Chrome/78.0.3904.108 Safari/537.36" etag="eGNq60Q4A4iiKCjH_bKp" version="12.7.9" type="github">
  <diagram id="Ns8TB9k6B7BA3dVQWUGG" name="Page-1">
    <mxGraphModel dx="1640" dy="435" grid="1" gridSize="10" guides="1" tooltips="1" connect="1" arrows="1" fold="1" page="1" pageScale="1" pageWidth="827" pageHeight="1169" math="0" shadow="0">
      <root>
        <mxCell id="0" />
        <mxCell id="1" parent="0" />
        <mxCell id="COK3GCsZX3T8CLw1UcPQ-111" style="edgeStyle=none;rounded=0;orthogonalLoop=1;jettySize=auto;html=1;exitX=0.5;exitY=1;exitDx=0;exitDy=0;entryX=0.5;entryY=0;entryDx=0;entryDy=0;startArrow=none;startFill=0;endArrow=classic;endFill=1;fontSize=12;" parent="1" source="COK3GCsZX3T8CLw1UcPQ-107" target="MaFsSqHFL_aDIbuKhQJ8-3" edge="1">
          <mxGeometry relative="1" as="geometry">
            <mxPoint x="572" y="803" as="targetPoint" />
          </mxGeometry>
        </mxCell>
        <mxCell id="QY_VV6FcXAard618ne-8-6" style="edgeStyle=none;rounded=0;orthogonalLoop=1;jettySize=auto;html=1;exitX=0.5;exitY=1;exitDx=0;exitDy=0;entryX=0.5;entryY=0;entryDx=0;entryDy=0;" parent="1" source="COK3GCsZX3T8CLw1UcPQ-40" target="QY_VV6FcXAard618ne-8-1" edge="1">
          <mxGeometry relative="1" as="geometry" />
        </mxCell>
        <mxCell id="COK3GCsZX3T8CLw1UcPQ-94" style="edgeStyle=none;rounded=0;orthogonalLoop=1;jettySize=auto;html=1;exitX=0.425;exitY=-0.2;exitDx=0;exitDy=0;startArrow=none;startFill=0;endArrow=classic;endFill=1;fontSize=12;entryX=0.5;entryY=0;entryDx=0;entryDy=0;exitPerimeter=0;" parent="1" source="K3VQ6Ar4vp130KD2iZYr-9" target="MaFsSqHFL_aDIbuKhQJ8-2" edge="1">
          <mxGeometry relative="1" as="geometry">
            <mxPoint x="645.1800000000003" y="803" as="targetPoint" />
            <mxPoint x="781.9899999999998" y="631" as="sourcePoint" />
          </mxGeometry>
        </mxCell>
        <mxCell id="QY_VV6FcXAard618ne-8-8" style="edgeStyle=none;rounded=0;orthogonalLoop=1;jettySize=auto;html=1;exitX=0.5;exitY=1;exitDx=0;exitDy=0;entryX=0.5;entryY=0;entryDx=0;entryDy=0;" parent="1" source="COK3GCsZX3T8CLw1UcPQ-125" target="QY_VV6FcXAard618ne-8-1" edge="1">
          <mxGeometry relative="1" as="geometry" />
        </mxCell>
        <mxCell id="COK3GCsZX3T8CLw1UcPQ-55" style="edgeStyle=none;rounded=0;orthogonalLoop=1;jettySize=auto;html=1;exitX=0.5;exitY=1;exitDx=0;exitDy=0;entryX=0.5;entryY=0;entryDx=0;entryDy=0;startArrow=none;startFill=0;endArrow=classic;endFill=1;" parent="1" source="COK3GCsZX3T8CLw1UcPQ-27" target="COK3GCsZX3T8CLw1UcPQ-33" edge="1">
          <mxGeometry relative="1" as="geometry" />
        </mxCell>
        <mxCell id="COK3GCsZX3T8CLw1UcPQ-104" value="&lt;font style=&quot;font-size: 9px&quot;&gt;Data&lt;/font&gt;" style="text;html=1;align=center;verticalAlign=middle;resizable=0;points=[];labelBackgroundColor=#ffffff;fontSize=12;" parent="COK3GCsZX3T8CLw1UcPQ-55" vertex="1" connectable="0">
          <mxGeometry x="-0.176" y="-2" relative="1" as="geometry">
            <mxPoint x="17.060000000000002" y="11.64" as="offset" />
          </mxGeometry>
        </mxCell>
        <mxCell id="COK3GCsZX3T8CLw1UcPQ-31" style="edgeStyle=none;rounded=0;orthogonalLoop=1;jettySize=auto;html=1;exitX=0.5;exitY=1;exitDx=0;exitDy=0;entryX=0.5;entryY=0;entryDx=0;entryDy=0;endArrow=classic;endFill=1;" parent="1" source="COK3GCsZX3T8CLw1UcPQ-27" target="COK3GCsZX3T8CLw1UcPQ-28" edge="1">
          <mxGeometry relative="1" as="geometry" />
        </mxCell>
        <mxCell id="COK3GCsZX3T8CLw1UcPQ-103" value="&lt;font style=&quot;font-size: 9px&quot;&gt;Data&lt;/font&gt;" style="text;html=1;align=center;verticalAlign=middle;resizable=0;points=[];labelBackgroundColor=#ffffff;fontSize=12;" parent="COK3GCsZX3T8CLw1UcPQ-31" vertex="1" connectable="0">
          <mxGeometry x="-0.3346" y="2" relative="1" as="geometry">
            <mxPoint x="-24.86" y="11.91" as="offset" />
          </mxGeometry>
        </mxCell>
        <mxCell id="COK3GCsZX3T8CLw1UcPQ-108" style="edgeStyle=none;rounded=0;orthogonalLoop=1;jettySize=auto;html=1;exitX=0.5;exitY=1;exitDx=0;exitDy=0;entryX=0.5;entryY=0;entryDx=0;entryDy=0;startArrow=none;startFill=0;endArrow=classic;endFill=1;fontSize=12;" parent="1" source="COK3GCsZX3T8CLw1UcPQ-13" target="COK3GCsZX3T8CLw1UcPQ-107" edge="1">
          <mxGeometry relative="1" as="geometry" />
        </mxCell>
        <mxCell id="COK3GCsZX3T8CLw1UcPQ-64" style="edgeStyle=none;rounded=0;orthogonalLoop=1;jettySize=auto;html=1;exitX=0;exitY=0;exitDx=0;exitDy=0;entryX=0.5;entryY=1;entryDx=0;entryDy=0;startArrow=classic;startFill=1;endArrow=none;endFill=0;" parent="1" source="COK3GCsZX3T8CLw1UcPQ-43" target="COK3GCsZX3T8CLw1UcPQ-13" edge="1">
          <mxGeometry relative="1" as="geometry" />
        </mxCell>
        <mxCell id="COK3GCsZX3T8CLw1UcPQ-36" style="edgeStyle=none;rounded=0;orthogonalLoop=1;jettySize=auto;html=1;exitX=0.5;exitY=0;exitDx=0;exitDy=0;endArrow=none;endFill=0;startArrow=classic;startFill=1;entryX=0.5;entryY=1;entryDx=0;entryDy=0;" parent="1" source="COK3GCsZX3T8CLw1UcPQ-39" target="COK3GCsZX3T8CLw1UcPQ-13" edge="1">
          <mxGeometry relative="1" as="geometry">
            <mxPoint x="532" y="312" as="sourcePoint" />
            <mxPoint x="362" y="430" as="targetPoint" />
          </mxGeometry>
        </mxCell>
        <mxCell id="COK3GCsZX3T8CLw1UcPQ-61" style="edgeStyle=none;rounded=0;orthogonalLoop=1;jettySize=auto;html=1;exitX=0.5;exitY=1;exitDx=0;exitDy=0;entryX=0.5;entryY=0;entryDx=0;entryDy=0;startArrow=none;startFill=0;endArrow=classic;endFill=1;" parent="1" source="COK3GCsZX3T8CLw1UcPQ-13" target="COK3GCsZX3T8CLw1UcPQ-40" edge="1">
          <mxGeometry relative="1" as="geometry" />
        </mxCell>
        <mxCell id="COK3GCsZX3T8CLw1UcPQ-62" style="edgeStyle=none;rounded=0;orthogonalLoop=1;jettySize=auto;html=1;exitX=0.5;exitY=0;exitDx=0;exitDy=0;entryX=0.5;entryY=1;entryDx=0;entryDy=0;startArrow=classic;startFill=1;endArrow=none;endFill=0;" parent="1" source="COK3GCsZX3T8CLw1UcPQ-42" target="COK3GCsZX3T8CLw1UcPQ-13" edge="1">
          <mxGeometry relative="1" as="geometry" />
        </mxCell>
        <mxCell id="COK3GCsZX3T8CLw1UcPQ-128" value="Customer enquiry" style="text;html=1;align=center;verticalAlign=middle;resizable=0;points=[];labelBackgroundColor=#ffffff;fontSize=12;labelBorderColor=#000000;rotation=0;" parent="COK3GCsZX3T8CLw1UcPQ-62" vertex="1" connectable="0">
          <mxGeometry x="0.2766" y="1" relative="1" as="geometry">
            <mxPoint x="-31.1" y="-16.27" as="offset" />
          </mxGeometry>
        </mxCell>
        <mxCell id="MaFsSqHFL_aDIbuKhQJ8-19" style="edgeStyle=none;rounded=0;orthogonalLoop=1;jettySize=auto;html=1;exitX=0.5;exitY=1;exitDx=0;exitDy=0;entryX=0.5;entryY=1;entryDx=0;entryDy=0;" parent="1" source="MaFsSqHFL_aDIbuKhQJ8-15" target="COK3GCsZX3T8CLw1UcPQ-99" edge="1">
          <mxGeometry relative="1" as="geometry" />
        </mxCell>
        <mxCell id="MaFsSqHFL_aDIbuKhQJ8-23" style="edgeStyle=none;rounded=0;orthogonalLoop=1;jettySize=auto;html=1;exitX=0.5;exitY=0;exitDx=0;exitDy=0;entryX=0.5;entryY=1;entryDx=0;entryDy=0;" parent="1" source="COK3GCsZX3T8CLw1UcPQ-121" target="COK3GCsZX3T8CLw1UcPQ-99" edge="1">
          <mxGeometry relative="1" as="geometry" />
        </mxCell>
        <mxCell id="MaFsSqHFL_aDIbuKhQJ8-18" style="edgeStyle=none;rounded=0;orthogonalLoop=1;jettySize=auto;html=1;exitX=0.5;exitY=1;exitDx=0;exitDy=0;entryX=0.5;entryY=1;entryDx=0;entryDy=0;" parent="1" source="MaFsSqHFL_aDIbuKhQJ8-16" target="COK3GCsZX3T8CLw1UcPQ-99" edge="1">
          <mxGeometry relative="1" as="geometry" />
        </mxCell>
        <mxCell id="COK3GCsZX3T8CLw1UcPQ-97" style="edgeStyle=none;rounded=0;orthogonalLoop=1;jettySize=auto;html=1;exitX=0.5;exitY=1;exitDx=0;exitDy=0;startArrow=none;startFill=0;endArrow=classic;endFill=1;fontSize=12;entryX=0.5;entryY=0;entryDx=0;entryDy=0;" parent="1" source="COK3GCsZX3T8CLw1UcPQ-41" target="COK3GCsZX3T8CLw1UcPQ-58" edge="1">
          <mxGeometry relative="1" as="geometry" />
        </mxCell>
        <mxCell id="COK3GCsZX3T8CLw1UcPQ-89" style="edgeStyle=none;rounded=0;orthogonalLoop=1;jettySize=auto;html=1;exitX=0.5;exitY=1;exitDx=0;exitDy=0;startArrow=none;startFill=0;endArrow=classic;endFill=1;fontSize=12;entryX=0.5;entryY=0;entryDx=0;entryDy=0;" parent="1" source="COK3GCsZX3T8CLw1UcPQ-41" target="MaFsSqHFL_aDIbuKhQJ8-3" edge="1">
          <mxGeometry relative="1" as="geometry">
            <mxPoint x="572" y="803" as="targetPoint" />
          </mxGeometry>
        </mxCell>
        <mxCell id="COK3GCsZX3T8CLw1UcPQ-93" style="edgeStyle=none;rounded=0;orthogonalLoop=1;jettySize=auto;html=1;exitX=0.5;exitY=1;exitDx=0;exitDy=0;startArrow=none;startFill=0;endArrow=classic;endFill=1;fontSize=12;entryX=0.5;entryY=0;entryDx=0;entryDy=0;" parent="1" source="COK3GCsZX3T8CLw1UcPQ-41" target="MaFsSqHFL_aDIbuKhQJ8-2" edge="1">
          <mxGeometry relative="1" as="geometry">
            <mxPoint x="645.1800000000003" y="803" as="targetPoint" />
          </mxGeometry>
        </mxCell>
        <mxCell id="COK3GCsZX3T8CLw1UcPQ-90" style="edgeStyle=none;rounded=0;orthogonalLoop=1;jettySize=auto;html=1;exitX=0.4;exitY=-0.1;exitDx=0;exitDy=0;entryX=0.5;entryY=0;entryDx=0;entryDy=0;startArrow=none;startFill=0;endArrow=classic;endFill=1;fontSize=12;exitPerimeter=0;" parent="1" source="K3VQ6Ar4vp130KD2iZYr-9" target="MaFsSqHFL_aDIbuKhQJ8-3" edge="1">
          <mxGeometry relative="1" as="geometry">
            <mxPoint x="572" y="803" as="targetPoint" />
            <mxPoint x="779.0299999999997" y="633" as="sourcePoint" />
          </mxGeometry>
        </mxCell>
        <mxCell id="oZ2ZN3utCK6ckdLz9zwI-11" style="edgeStyle=orthogonalEdgeStyle;curved=1;orthogonalLoop=1;jettySize=auto;html=1;exitX=0.5;exitY=0;exitDx=0;exitDy=0;entryX=0.14;entryY=-0.04;entryDx=0;entryDy=0;entryPerimeter=0;" parent="1" source="COK3GCsZX3T8CLw1UcPQ-7" target="3j8oUQN09gYwykHITEtm-5" edge="1">
          <mxGeometry relative="1" as="geometry" />
        </mxCell>
        <mxCell id="oZ2ZN3utCK6ckdLz9zwI-12" value="&lt;font style=&quot;font-size: 9px&quot;&gt;Exceptions&lt;/font&gt;" style="text;html=1;align=center;verticalAlign=middle;resizable=0;points=[];labelBackgroundColor=#ffffff;" parent="oZ2ZN3utCK6ckdLz9zwI-11" vertex="1" connectable="0">
          <mxGeometry x="0.0172" y="8" relative="1" as="geometry">
            <mxPoint as="offset" />
          </mxGeometry>
        </mxCell>
        <mxCell id="COK3GCsZX3T8CLw1UcPQ-7" value="" style="shape=image;imageAspect=0;aspect=fixed;verticalLabelPosition=bottom;verticalAlign=top;image=https://image.flaticon.com/icons/svg/1447/1447743.svg;" parent="1" vertex="1">
          <mxGeometry x="213" y="45" width="50" height="50" as="geometry" />
        </mxCell>
        <mxCell id="COK3GCsZX3T8CLw1UcPQ-25" style="edgeStyle=none;rounded=0;orthogonalLoop=1;jettySize=auto;html=1;exitX=1;exitY=0.5;exitDx=0;exitDy=0;entryX=0;entryY=0.5;entryDx=0;entryDy=0;endArrow=classic;endFill=1;" parent="1" source="3j8oUQN09gYwykHITEtm-4" target="COK3GCsZX3T8CLw1UcPQ-13" edge="1">
          <mxGeometry relative="1" as="geometry">
            <mxPoint x="332" y="277" as="targetPoint" />
          </mxGeometry>
        </mxCell>
        <mxCell id="COK3GCsZX3T8CLw1UcPQ-26" value="Initial welcome comm&lt;br style=&quot;font-size: 9px&quot;&gt;and&amp;nbsp;&lt;br&gt;Visa letter&lt;br&gt;and&lt;br style=&quot;font-size: 9px&quot;&gt;IVR survey" style="text;html=1;align=center;verticalAlign=middle;resizable=0;points=[];labelBackgroundColor=#ffffff;fontSize=9;" parent="COK3GCsZX3T8CLw1UcPQ-25" vertex="1" connectable="0">
          <mxGeometry x="-0.2748" y="-1" relative="1" as="geometry">
            <mxPoint x="-13.96" y="-19.229999999999997" as="offset" />
          </mxGeometry>
        </mxCell>
        <mxCell id="3j8oUQN09gYwykHITEtm-4" value="Sales contact centre" style="shape=image;imageAspect=0;aspect=fixed;verticalLabelPosition=bottom;verticalAlign=top;image=https://image.flaticon.com/icons/svg/1067/1067566.svg;" parent="1" vertex="1">
          <mxGeometry x="39.39" y="200" width="50" height="50" as="geometry" />
        </mxCell>
        <mxCell id="COK3GCsZX3T8CLw1UcPQ-23" style="edgeStyle=none;rounded=0;orthogonalLoop=1;jettySize=auto;html=1;exitX=1;exitY=0.5;exitDx=0;exitDy=0;entryX=0;entryY=0.5;entryDx=0;entryDy=0;endArrow=classic;endFill=1;" parent="1" source="3j8oUQN09gYwykHITEtm-5" target="COK3GCsZX3T8CLw1UcPQ-13" edge="1">
          <mxGeometry relative="1" as="geometry">
            <mxPoint x="332" y="277" as="targetPoint" />
          </mxGeometry>
        </mxCell>
        <mxCell id="COK3GCsZX3T8CLw1UcPQ-24" value="Initial welcome comm&amp;nbsp;&lt;br style=&quot;font-size: 9px&quot;&gt;and&lt;br style=&quot;font-size: 9px&quot;&gt;Visa letter" style="text;html=1;align=center;verticalAlign=middle;resizable=0;points=[];labelBackgroundColor=#ffffff;fontSize=9;" parent="COK3GCsZX3T8CLw1UcPQ-23" vertex="1" connectable="0">
          <mxGeometry x="-0.3307" y="2" relative="1" as="geometry">
            <mxPoint x="-2.0599999999999996" y="-9.469999999999999" as="offset" />
          </mxGeometry>
        </mxCell>
        <mxCell id="3j8oUQN09gYwykHITEtm-5" value="Digital sales&#xa;team and bots" style="shape=image;imageAspect=0;aspect=fixed;verticalLabelPosition=bottom;verticalAlign=top;image=https://image.flaticon.com/icons/svg/1640/1640809.svg;imageBackground=#ffffff;" parent="1" vertex="1">
          <mxGeometry x="183" y="75" width="50" height="50" as="geometry" />
        </mxCell>
        <mxCell id="COK3GCsZX3T8CLw1UcPQ-68" style="edgeStyle=none;rounded=0;orthogonalLoop=1;jettySize=auto;html=1;exitX=1;exitY=0.5;exitDx=0;exitDy=0;entryX=0;entryY=0.5;entryDx=0;entryDy=0;startArrow=none;startFill=0;endArrow=classic;endFill=1;" parent="1" source="3j8oUQN09gYwykHITEtm-6" target="COK3GCsZX3T8CLw1UcPQ-13" edge="1">
          <mxGeometry relative="1" as="geometry">
            <mxPoint x="332" y="277" as="targetPoint" />
          </mxGeometry>
        </mxCell>
        <mxCell id="COK3GCsZX3T8CLw1UcPQ-72" value="&lt;font style=&quot;font-size: 9px;&quot;&gt;Initial welcome comm&lt;br style=&quot;font-size: 9px;&quot;&gt;and&lt;br style=&quot;font-size: 9px;&quot;&gt;Retail one pager&lt;br style=&quot;font-size: 9px;&quot;&gt;and&lt;br style=&quot;font-size: 9px;&quot;&gt;Visa letter&lt;/font&gt;" style="text;html=1;align=center;verticalAlign=middle;resizable=0;points=[];labelBackgroundColor=#ffffff;fontSize=9;" parent="COK3GCsZX3T8CLw1UcPQ-68" vertex="1" connectable="0">
          <mxGeometry x="-0.1625" y="-1" relative="1" as="geometry">
            <mxPoint x="-40.77000000000001" y="-6.360000000000003" as="offset" />
          </mxGeometry>
        </mxCell>
        <mxCell id="3j8oUQN09gYwykHITEtm-6" value="Retail store" style="shape=image;imageAspect=0;aspect=fixed;verticalLabelPosition=bottom;verticalAlign=top;image=https://image.flaticon.com/icons/svg/1326/1326546.svg;" parent="1" vertex="1">
          <mxGeometry x="39.39" y="284" width="50" height="50" as="geometry" />
        </mxCell>
        <mxCell id="COK3GCsZX3T8CLw1UcPQ-11" style="edgeStyle=none;rounded=0;orthogonalLoop=1;jettySize=auto;html=1;exitX=1;exitY=0.5;exitDx=0;exitDy=0;entryX=0;entryY=0.5;entryDx=0;entryDy=0;" parent="1" source="3j8oUQN09gYwykHITEtm-7" target="3j8oUQN09gYwykHITEtm-5" edge="1">
          <mxGeometry relative="1" as="geometry" />
        </mxCell>
        <mxCell id="COK3GCsZX3T8CLw1UcPQ-114" value="&lt;font style=&quot;font-size: 9px&quot;&gt;IWD&lt;/font&gt;" style="text;html=1;align=center;verticalAlign=middle;resizable=0;points=[];labelBackgroundColor=#ffffff;fontSize=12;" parent="COK3GCsZX3T8CLw1UcPQ-11" vertex="1" connectable="0">
          <mxGeometry x="-0.2495" y="-2" relative="1" as="geometry">
            <mxPoint as="offset" />
          </mxGeometry>
        </mxCell>
        <mxCell id="3j8oUQN09gYwykHITEtm-7" value="Comparison websites" style="shape=image;imageAspect=0;aspect=fixed;verticalLabelPosition=bottom;verticalAlign=top;image=data:image/jpeg,/9j/4AAQSkZJRgABAQAAAQABAAD/2wCEAAkGBwgHBgkIBwgKCgkLDRYPDQwMDRsUFRAWIB0iIiAdHx8kKDQsJCYxJx8fLT0tMTU3Ojo6Iys/RD84QzQ5OjcBCgoKDQwNGg8PGjclHyU3Nzc3Nzc3Nzc3Nzc3Nzc3Nzc3Nzc3Nzc3Nzc3Nzc3Nzc3Nzc3Nzc3Nzc3Nzc3Nzc3N//AABEIAGkAyAMBEQACEQEDEQH/xAAbAAEAAgMBAQAAAAAAAAAAAAAABQYBAwQHAv/EADsQAAEEAgECAggEBAMJAAAAAAEAAgMEBREGEiExUQcTFCJBYXGBFTKhsSNCkdEzN3MWJYKTsrPBw+H/xAAaAQEAAwEBAQAAAAAAAAAAAAAAAgMEAQUG/8QAMREAAwACAgECAggFBQAAAAAAAAECAxESIQQTMUFRFCIyNGFxgfAzQpHB4SNEobHx/9oADAMBAAIRAxEAPwD3FAEAQBAEAQBAEAQBAcct1u+mEdZ8/ggPkTTO7lwH0CA+xM8fzb+yA2snB/N2+aA2g7QGUAQBAEAQBAEAQBAEAQBAEAQBAEAQBAEBw25DIfVtPujxPmgI+/kaOKa025g17vysHdzvoFC7U+5KYdexB5HmTYKzpKtXZ8G+td8fnr+6ofk/JF8+P82R3EvSJVyFz8Ly8rI77nkROawhsgOzrtvRCsjL19YjeHT+qW25msbSYX2rbWMHieku/YLvrY/mQ9K/kSFC3FZhimrytlglYHRyMdtrgfAgq0ra0dyAIAgCAIAgCAIAgCAIAgCAIAgCAIAgPmR3SwlAQWfykWDwtvJSjqEDNhu9dTiQGj7khcp6WzqW3o8Ix2atZrK2bt+w98nX7o8Af/n7LLZrnr2LXAYrQY2cdTB4t3razvosTJSm7EYgmWOtFA94958UO3H6kDag+TJozZy1DKTRUqLpbFmdwYxjInD7kkAADxK7GOm9HKaS2y+YmgzGY6CnG7qbE3W9a2Sdn9V6crikjz6rlTZLxO6mKRE+0AQBAEAQBAEAQBAEAQBAEAQBAEAQGqx/h/cICm+k6hZyHCMjHTYZJouicRjxeGPDiB89ArjW0Sl6ezwTDvY2UyRSAtd3WekaFouGPt+HdUtFiZP154p2dEgDgqmiwvHGMJWx0HtIhDbEw/M4e81vl8vNbcEcZ2/cx5snJ6ROq8pOiqdsP1QG5AEAQBAEAQBAEAQBAEAQBAEAQBAEB8SjqYQgORAeJek7gb8flYsjxym50Fvq9dXi1qJ4+LR5Hfh8CPmqctxGuT1sthsqW7uOLW369ivs9jKwtB+hPiq1qvsvZamXPgDmZLP04Zev1J6ng6PS4tBIG/D4foVGZl3pnbbUvR7M4gb2thkNEkwCA7qIIrtJ8Xd0B0IAgCAIAgCAIAgCAIAgCAIAgCAIAgCA5JWdLjrwP6IDzz0v56xhKGM9jMZmlncS17d7aG9/1I/qs/kYYypKjV4scmyq4P0mRO/g5rHfwndnPhPW37sd/crJ9F4fZZprxW/ssulS5jr0nr8RYjlqvAIDD+Q+RHiPoViyY+GQpc1K1SLDBO8V/eOwB4+S9Pxcra40ZrR9VI33Z+juI2/nK2lZYAABoDQQGUAQBAEAQBAEAQBAEAQBAEAQBAEAQBAYLQRojaA8w9LHDc7nrVa5hxDYjrwlgql/Q8EnZIJ7Heh5eCjSbNfj5oxppnkk2EzVKUxZLDW4SP5vZ3dvuqWmenizRXxRKYOlna91k2Ip3jLv+SFxDvk7tohVXKvpo1X6DnWRrX5nufHat21jY35Woacr26khLg4j5ghMPj1L2z5/yOCtrHW18yfrwR14mxxN6Wj9VtM5tQBAEAQBAEAQBAEAQBAEAQBAEAQBAEAQBAEAQBAYGkBlAEAQBAEAQBAEAQBAEAQBAEAQBAYPggPPZ+Z5/MZ63juH4+nNFT2Jp7fVpxB1204aGwdeO9b7LavHxxCrM/f5GX17q3ONex157m1/DYrGss4tv47f2GU2ydTWHq1skeexofXv22o4/HnJT1X1V8Tt56iVtdsjpua8m49kacfLsbRZUtdvW1OodHcbPdzvDe9dvkSprx8OWW8Te18yNZ7x0lkXTOrMc2y9Tl9jBY3Fw3T6tpgAcWuLi0O24710gb/RRx+NFYldPR2s9LJwS2cFLn/JYsrZwmQwcE+WBDYY6xLGg63t23H3dHewf7qyvFxOFkmtT+JFeRfJw57JDi/MszNymTj/ACalVr2i0mM1w4DYG9d3HYI+I8lXl8fGsfqY30Sx56eTha0cGK5xyvO+3VsPiaEtmrKeqR5cGNZ3DRou2XHpd8QOynfjYcendPTIxnyXtJexL8R5ncz+EyL/AGBjsxRad1WO6GzHR6QN76dkEd/DzVWbx1jtd/VfxLMOZ5JfXaI7Nck55hqjsndxWIZRY5vXGHOc9oJAGyH+Z1vXx8FZjxeNkrjNPZDJlzRPJytHVyHn0tDA4TMUa0Tob7/4rJdksaPzAaI7+IUcXjK7qG/Ylk8jjE2viaW88y1THX8zmMQ2tjnBgxkZ7STud1fmJd5Df5R28Nrv0aKpRFbfxOeu1Dul18DRZ5nyzDV6mVz2KofhVlw22v1iaMHuN7cRvXw13+SkvHw5G5intHKz5ISql0ejxSNljZJGdse0OB8wVgNZ9oAgCAIAgCAIAgCAIAgMPG2kDxIQHkvorydPD5DN0MrPHVn9bvczg3ZaXBw2fiPL5r0vMirmalbRh8a5mqmvmfPN8rSk5hxvOwWGz43q6fXM7tBZJp/9Ngp48V6Vxrv/AAcz0vUi/gbvS5kKeajw+MxVmK1amn2BC4P0HDpG9eZP6LnhS8bq6WkS8qlfGZ9zbA0s9NgafFtcA/8AIC4/un7+Y/3P6GyX/O+P/Q/9JXF9zf7+If3r9DXe7+nGl28Ix/2Xrs/c3+/icr70jh9FeXx2IuckkyV2Gs1z43N9Y8Au06Xeh8fEf1U/LirmFK3+0c8a5mr2zl41kLmMw/K+U0ouls8oZWc5vYEvJLtfHp6h9/upZYm7x4n+pHHTibyJGrMiK3wc5TIcqtW8jZDdUfaQGdXWNtMY8gCfh4LuPaz8JjSXx1/cjk7w8qrs+ORf5ccS/wBaT/qcu4v4+Q7f8CC0emmCWTi+PmjaXRxWB19uw2wgE/ft91m8BpZGXeYv9NHF+DcVyOIimu8yvPruaHGKzfB6TrwLT4EfRT9TNF6nGt/kc9PHULddHp2Ohjgo14YXl8UcTWscfFzQBorz6bbezYvY6Vw6EAQBAEAQBAEAQBAYKA48ZkauWx8V6hKJq0oJZJojYBIPj8wVKpc1xr3OKk1tEIMJxTln+9fYYLZLiwzAOYXFp0d61vWtd1b6mbD9Xeit48eT62iWs4HE2sazGz4+u6kz8kPQA1n014H5hVrJarkn2SeOWuOujnxPE8Dhp/X47Gwwza0JO7nAfIuJ19l282S1qmcnFEdpHSMHjBlzlhTj/ECNe0d+rWtft2XPUrjw30S4Ty5a7BwmMOWGWNSM5ADpE/fq1rX7dk9SuPDfQ4Tvlrsw/CYx2Xbl3U4zfb2E/fqA1r9k9S+PDfQ4Ty5a7KvgPRvjKFi7LlBBkxYe18bZYdCLu4nXfvvqH9FoyeZdJKetFEeNEtt97Li6hTdSNF1aE1HM9WYOgdHT5a8NLLye+W+zRxWtEPW4RxqqZTDiINysLHF23diNEDZOvsrX5OV+9Faw459kclCDiOfi/CateGxHi3HUBa4CEkkHW/mCu082P67+JxLFa4r4FlsVK9qs+tZhZLBI3pfG8ba4eRCpTae0WtJrTIODgnFoZvWsw1cuB3p5c9o/4SSFc/JzNfaK1gxp9IkMhmsdibFOrcsMhltyCKvH0nbzsAAa+ZAVc47tNpexKrmWkySCgTMoAgCAIAgCAIAgCAjs/QhyOLmhndM1gBeDDM6N2wO3dpB18lPHTmk0RtbWipeizD1hxfGZQSWvaHRyAt9qkMX53DtHvp/RafMyV6lT1r8v7lPjpemmcXCOMw5rjjpLt++I/aJxDDBYdEyI9Z97TddR3397f0Us+Z48mpS+H4/Ajix8pe2aWckyNLgHq5r/AE3W5J2N9ulOyxod3kO/iG7/AHXfSms29da3o5zc4/f46NF7K8fw0mPucY5I61cbajZZhfffN7VG46cS1xI6vjseClMZbVLJGlrrrWiVanTlmOSR3L/pXbiq+TtUo7cAY98LzsNEZcdeRPTrfzTFxnxubW9f+FWTk8/FPXRwfg93Fc9dxnH5u9BUvRgvkD9v6S0k/fbSOofAqfqTeD1albRHhU5eCrpnbia03E/SjWw9W5Ymp3IveEz9kgtce/w2HN8fmo21m8Z212iUp486lPpndyrG8ThyNl/IOUX22XvLhC2cv9SD4AMDToeChhvO5XCFonlWNP61MjOGZO3Pwrl1V92axFVpyuryPcepoMb/AAPiB2B18FZnxzObG9e7RXgtuKW/Y3ejjB38/UpZPI5af2XH2CK1YHfUQ7qcXE/XXnoLnl5JxtzM9s740VaVU/Yq8Wflw1jlEFVxbbv2DCyQHXQ3rf1HfwPfQ+u/gtDxK1DfskZ/U4O0vdlv5EbfBOBQQVbUj8lflDZ7PrC4tPSS4MJ8ANAD6k+Ky4uPkZ22ul8DTkbw4dJ9sq2SvYTE0aV7jXI7k2aic02A/wBYGydve/MANb+GzsLTEXdOckLj+hTdzKTinv8AUkObY6G1y/j8wnshuYdDJJ/E/wALre1p9X293t3+qh49axWte2yXkRvJP4nptTjEFPFw0IZ5pGRes1LO7qk0/e/eGiPFedWV1Tpo2rHpaJPG1ZqsTxYn9dI9/W5/TrZ0Ae2+3cE6+ahTTfRKVpdnYokggCAIAgCAIAgNVlhlryRt8XsLR9wup6ZxlL9HFq3RwlLA3sPk69muJGyTSV9Qj3nOGn77+Ou21q8pKreRNaf9SjA2p4NEj6OqdmjxpsN2vJBL7TM7okb0nReSCq/JpVk2vw/6J4U1PZWmceys3F7Tq9R7chVzkl6vDMOn1oD9jW/MeCv9WFkW3050VOKcdLvZZqfKZ7bmRN45nGTEgPEtYMYzzPW4gED5KisCn+df1LFlb/lZX7eLyDvTFTyLaVg0Wx6NgRnoH8F47n6kBXzc/RHO+/8AKKnNfSFWujZksXff6W6GQZSsOpsga11gRnoB6X9t/cf1XIufornfZ25r6QnrrR85bF5CX0uYzIMpWHUo4QHWBGSxp6JPE/Uj+qRcrxanfZypr6Qq10QXGI8xxfLZSO7xW7k7liTcdlkW2E7dv+IQQAdg78fNX5vTyzPG9JFeJXjqtzvZ1cYweXqYXmsNzHTxT2a0oiY1hIkcWydmH+buR4fJRy5Iq8bT6Wv7EsUWle17lm9FdG5juKiC/WmrzCzI71crC06OtHSz+ZU1l3LLfFlzj0ym4zht/Kf7VQ3KM9eSSUzUpJYy0OeHvI0fIg6+61X5Mx6bl717/wDBnnA75pr8j7nw2f5HwKLG28faiyGKlBhE0Zb6+HpLdAnt1D/wPNFkxYs3JPqg4yZMXFrtExjuUZl9SGv/ALCXJL7WBrnyReqicR8epzeyprBj3v1FotnJekuHZq9JGPygznHsxTxVi0yp0OkirRl5a5r2v6dNB7eI34dlLxbjhcN62c8ia5zSW9F9wOQsZTHMtWsfPQe9x1BP+cD4E+W1iyQorSezVFOltrRIqBIIAgCAIAgCAIAgCAIAgCAIAgCAIDCAygCAIAgMBAZKABAEAQBAEAQH/9k=;" parent="1" vertex="1">
          <mxGeometry x="16.769999999999996" y="23" width="95.24" height="50" as="geometry" />
        </mxCell>
        <mxCell id="3j8oUQN09gYwykHITEtm-8" value="" style="shape=image;imageAspect=0;aspect=fixed;verticalLabelPosition=bottom;verticalAlign=top;image=https://healthinsurancecomparison.com.au/_nuxt/img/098c1c6.svg;" parent="1" vertex="1">
          <mxGeometry x="-12.430000000000007" y="3" width="130.43" height="30" as="geometry" />
        </mxCell>
        <mxCell id="COK3GCsZX3T8CLw1UcPQ-6" style="edgeStyle=none;rounded=0;orthogonalLoop=1;jettySize=auto;html=1;exitX=1;exitY=0.5;exitDx=0;exitDy=0;entryX=0;entryY=0.5;entryDx=0;entryDy=0;" parent="1" source="3j8oUQN09gYwykHITEtm-9" target="3j8oUQN09gYwykHITEtm-5" edge="1">
          <mxGeometry relative="1" as="geometry" />
        </mxCell>
        <mxCell id="COK3GCsZX3T8CLw1UcPQ-113" value="&lt;font style=&quot;font-size: 9px&quot;&gt;IWD&lt;br&gt;&lt;/font&gt;" style="text;html=1;align=center;verticalAlign=middle;resizable=0;points=[];labelBackgroundColor=#ffffff;fontSize=12;" parent="COK3GCsZX3T8CLw1UcPQ-6" vertex="1" connectable="0">
          <mxGeometry x="-0.3495" y="-2" relative="1" as="geometry">
            <mxPoint x="9.6" y="-2.84" as="offset" />
          </mxGeometry>
        </mxCell>
        <mxCell id="COK3GCsZX3T8CLw1UcPQ-18" style="edgeStyle=none;rounded=0;orthogonalLoop=1;jettySize=auto;html=1;exitX=1;exitY=0.5;exitDx=0;exitDy=0;entryX=0;entryY=0.5;entryDx=0;entryDy=0;endArrow=classic;endFill=1;" parent="1" source="3j8oUQN09gYwykHITEtm-9" target="COK3GCsZX3T8CLw1UcPQ-13" edge="1">
          <mxGeometry relative="1" as="geometry">
            <mxPoint x="332" y="277" as="targetPoint" />
          </mxGeometry>
        </mxCell>
        <mxCell id="COK3GCsZX3T8CLw1UcPQ-19" value="Sale confirmation&lt;br&gt;and&amp;nbsp;&lt;br&gt;Visa letter" style="text;html=1;align=center;verticalAlign=middle;resizable=0;points=[];labelBackgroundColor=#ffffff;fontSize=9;" parent="COK3GCsZX3T8CLw1UcPQ-18" vertex="1" connectable="0">
          <mxGeometry x="0.0954" y="-1" relative="1" as="geometry">
            <mxPoint x="-71.35" y="-77.5" as="offset" />
          </mxGeometry>
        </mxCell>
        <mxCell id="3j8oUQN09gYwykHITEtm-9" value="HI website&#xa;and extranets" style="shape=image;imageAspect=0;aspect=fixed;verticalLabelPosition=bottom;verticalAlign=top;image=https://image.flaticon.com/icons/svg/811/811768.svg;" parent="1" vertex="1">
          <mxGeometry x="39.39" y="106" width="50" height="50" as="geometry" />
        </mxCell>
        <mxCell id="COK3GCsZX3T8CLw1UcPQ-17" style="edgeStyle=none;rounded=0;orthogonalLoop=1;jettySize=auto;html=1;exitX=1;exitY=0.5;exitDx=0;exitDy=0;entryX=0;entryY=0.5;entryDx=0;entryDy=0;endArrow=classic;endFill=1;startArrow=classic;startFill=1;" parent="1" source="3j8oUQN09gYwykHITEtm-12" target="COK3GCsZX3T8CLw1UcPQ-16" edge="1">
          <mxGeometry relative="1" as="geometry" />
        </mxCell>
        <mxCell id="COK3GCsZX3T8CLw1UcPQ-79" value="Data" style="text;html=1;align=center;verticalAlign=middle;resizable=0;points=[];labelBackgroundColor=#ffffff;fontSize=9;" parent="COK3GCsZX3T8CLw1UcPQ-17" vertex="1" connectable="0">
          <mxGeometry x="0.3226" y="-1" relative="1" as="geometry">
            <mxPoint x="-11" as="offset" />
          </mxGeometry>
        </mxCell>
        <mxCell id="COK3GCsZX3T8CLw1UcPQ-20" style="edgeStyle=none;rounded=0;orthogonalLoop=1;jettySize=auto;html=1;exitX=0.5;exitY=0;exitDx=0;exitDy=0;entryX=0;entryY=0.5;entryDx=0;entryDy=0;endArrow=classic;endFill=1;" parent="1" source="3j8oUQN09gYwykHITEtm-12" target="COK3GCsZX3T8CLw1UcPQ-13" edge="1">
          <mxGeometry relative="1" as="geometry">
            <mxPoint x="332" y="277" as="targetPoint" />
          </mxGeometry>
        </mxCell>
        <mxCell id="COK3GCsZX3T8CLw1UcPQ-21" value="Visa letter" style="text;html=1;align=center;verticalAlign=middle;resizable=0;points=[];labelBackgroundColor=#ffffff;fontSize=9;" parent="COK3GCsZX3T8CLw1UcPQ-20" vertex="1" connectable="0">
          <mxGeometry x="0.3366" y="-1" relative="1" as="geometry">
            <mxPoint x="-29.019999999999996" y="147.34" as="offset" />
          </mxGeometry>
        </mxCell>
        <mxCell id="oZ2ZN3utCK6ckdLz9zwI-6" style="edgeStyle=none;rounded=0;orthogonalLoop=1;jettySize=auto;html=1;exitX=0.5;exitY=0;exitDx=0;exitDy=0;entryX=1;entryY=0.75;entryDx=0;entryDy=0;" parent="1" source="COK3GCsZX3T8CLw1UcPQ-16" target="DEALhcKuOMUuAGFNjWsx-153" edge="1">
          <mxGeometry relative="1" as="geometry" />
        </mxCell>
        <mxCell id="oZ2ZN3utCK6ckdLz9zwI-8" value="&lt;font style=&quot;font-size: 9px;&quot;&gt;Exceptions&lt;/font&gt;" style="text;html=1;align=center;verticalAlign=middle;resizable=0;points=[];labelBackgroundColor=#ffffff;fontSize=9;" parent="oZ2ZN3utCK6ckdLz9zwI-6" vertex="1" connectable="0">
          <mxGeometry x="-0.3296" y="1" relative="1" as="geometry">
            <mxPoint x="6.53" y="1.33" as="offset" />
          </mxGeometry>
        </mxCell>
        <mxCell id="3j8oUQN09gYwykHITEtm-12" value="OSHC portal" style="shape=image;imageAspect=0;aspect=fixed;verticalLabelPosition=bottom;verticalAlign=top;image=https://image.flaticon.com/icons/svg/811/811768.svg;" parent="1" vertex="1">
          <mxGeometry x="241" y="710" width="50" height="50" as="geometry" />
        </mxCell>
        <mxCell id="COK3GCsZX3T8CLw1UcPQ-8" style="edgeStyle=none;rounded=0;orthogonalLoop=1;jettySize=auto;html=1;exitX=1;exitY=0.5;exitDx=0;exitDy=0;entryX=0;entryY=0.5;entryDx=0;entryDy=0;" parent="1" source="3j8oUQN09gYwykHITEtm-13" target="3j8oUQN09gYwykHITEtm-12" edge="1">
          <mxGeometry relative="1" as="geometry" />
        </mxCell>
        <mxCell id="3j8oUQN09gYwykHITEtm-13" value="Agent" style="shape=image;imageAspect=0;aspect=fixed;verticalLabelPosition=bottom;verticalAlign=top;image=https://image.flaticon.com/icons/svg/2300/2300359.svg;" parent="1" vertex="1">
          <mxGeometry x="39.389999999999986" y="710" width="50" height="50" as="geometry" />
        </mxCell>
        <mxCell id="COK3GCsZX3T8CLw1UcPQ-14" value="" style="shape=image;imageAspect=0;aspect=fixed;verticalLabelPosition=bottom;verticalAlign=top;image=https://image.flaticon.com/icons/svg/1447/1447743.svg;" parent="1" vertex="1">
          <mxGeometry x="368" y="680" width="50" height="50" as="geometry" />
        </mxCell>
        <mxCell id="COK3GCsZX3T8CLw1UcPQ-16" value="Bulk enrolment&#xa;and bots" style="shape=image;imageAspect=0;aspect=fixed;verticalLabelPosition=bottom;verticalAlign=top;image=https://image.flaticon.com/icons/svg/2286/2286676.svg;imageBackground=#ffffff;" parent="1" vertex="1">
          <mxGeometry x="338" y="710" width="50" height="50" as="geometry" />
        </mxCell>
        <mxCell id="COK3GCsZX3T8CLw1UcPQ-30" style="edgeStyle=none;rounded=0;orthogonalLoop=1;jettySize=auto;html=1;exitX=0.5;exitY=1;exitDx=0;exitDy=0;entryX=0.5;entryY=0;entryDx=0;entryDy=0;endArrow=classic;endFill=1;" parent="1" source="COK3GCsZX3T8CLw1UcPQ-28" target="COK3GCsZX3T8CLw1UcPQ-13" edge="1">
          <mxGeometry relative="1" as="geometry" />
        </mxCell>
        <mxCell id="COK3GCsZX3T8CLw1UcPQ-37" value="Welcome kit&amp;nbsp;&lt;br&gt;and&lt;br style=&quot;font-size: 9px&quot;&gt;plastic card/s &lt;br&gt;and&lt;br style=&quot;font-size: 9px&quot;&gt;Card is on it&#39;s way SMS" style="text;html=1;align=center;verticalAlign=middle;resizable=0;points=[];labelBackgroundColor=#ffffff;fontSize=9;" parent="COK3GCsZX3T8CLw1UcPQ-30" vertex="1" connectable="0">
          <mxGeometry x="-0.4473" y="1" relative="1" as="geometry">
            <mxPoint x="-35.419999999999995" y="19.6" as="offset" />
          </mxGeometry>
        </mxCell>
        <mxCell id="COK3GCsZX3T8CLw1UcPQ-101" style="edgeStyle=none;rounded=0;orthogonalLoop=1;jettySize=auto;html=1;exitX=0.5;exitY=0;exitDx=0;exitDy=0;entryX=0.5;entryY=1;entryDx=0;entryDy=0;startArrow=none;startFill=0;endArrow=classic;endFill=1;fontSize=12;" parent="1" source="COK3GCsZX3T8CLw1UcPQ-28" target="COK3GCsZX3T8CLw1UcPQ-100" edge="1">
          <mxGeometry relative="1" as="geometry" />
        </mxCell>
        <mxCell id="COK3GCsZX3T8CLw1UcPQ-102" value="&lt;font style=&quot;font-size: 9px;&quot;&gt;Reporting&lt;/font&gt;" style="text;html=1;align=center;verticalAlign=middle;resizable=0;points=[];labelBackgroundColor=#ffffff;fontSize=9;" parent="COK3GCsZX3T8CLw1UcPQ-101" vertex="1" connectable="0">
          <mxGeometry x="-0.3119" relative="1" as="geometry">
            <mxPoint x="-6.3" y="-7.749999999999998" as="offset" />
          </mxGeometry>
        </mxCell>
        <mxCell id="COK3GCsZX3T8CLw1UcPQ-56" style="edgeStyle=none;rounded=0;orthogonalLoop=1;jettySize=auto;html=1;exitX=0.5;exitY=1;exitDx=0;exitDy=0;entryX=0.5;entryY=0;entryDx=0;entryDy=0;startArrow=none;startFill=0;endArrow=classic;endFill=1;" parent="1" source="COK3GCsZX3T8CLw1UcPQ-33" target="COK3GCsZX3T8CLw1UcPQ-13" edge="1">
          <mxGeometry relative="1" as="geometry" />
        </mxCell>
        <mxCell id="COK3GCsZX3T8CLw1UcPQ-57" value="Value-add &lt;br&gt;welcome comms" style="text;html=1;align=center;verticalAlign=middle;resizable=0;points=[];labelBackgroundColor=#ffffff;fontSize=9;" parent="COK3GCsZX3T8CLw1UcPQ-56" vertex="1" connectable="0">
          <mxGeometry x="-0.2555" y="2" relative="1" as="geometry">
            <mxPoint as="offset" />
          </mxGeometry>
        </mxCell>
        <mxCell id="COK3GCsZX3T8CLw1UcPQ-105" style="edgeStyle=none;rounded=0;orthogonalLoop=1;jettySize=auto;html=1;exitX=0.5;exitY=1;exitDx=0;exitDy=0;entryX=0.5;entryY=1;entryDx=0;entryDy=0;startArrow=none;startFill=0;endArrow=classic;endFill=1;fontSize=12;" parent="1" source="COK3GCsZX3T8CLw1UcPQ-33" target="COK3GCsZX3T8CLw1UcPQ-99" edge="1">
          <mxGeometry relative="1" as="geometry" />
        </mxCell>
        <mxCell id="COK3GCsZX3T8CLw1UcPQ-106" value="&lt;font style=&quot;font-size: 12px&quot;&gt;Data and analytics&lt;/font&gt;" style="text;html=1;align=center;verticalAlign=middle;resizable=0;points=[];labelBackgroundColor=#ffffff;fontSize=12;labelBorderColor=#000000;rotation=0;" parent="COK3GCsZX3T8CLw1UcPQ-105" vertex="1" connectable="0">
          <mxGeometry x="0.2815" y="3" relative="1" as="geometry">
            <mxPoint x="8.61" y="74.82" as="offset" />
          </mxGeometry>
        </mxCell>
        <mxCell id="9s29wU9G6qrsy2zOdIvL-6" value="Data and&lt;br&gt;&amp;nbsp;analytics" style="text;html=1;align=center;verticalAlign=middle;resizable=0;points=[];labelBackgroundColor=#ffffff;fontSize=9;" parent="COK3GCsZX3T8CLw1UcPQ-105" vertex="1" connectable="0">
          <mxGeometry x="-0.202" y="-3" relative="1" as="geometry">
            <mxPoint x="13.16" as="offset" />
          </mxGeometry>
        </mxCell>
        <mxCell id="COK3GCsZX3T8CLw1UcPQ-84" style="edgeStyle=none;rounded=0;orthogonalLoop=1;jettySize=auto;html=1;exitX=0.5;exitY=1;exitDx=0;exitDy=0;entryX=0.5;entryY=0;entryDx=0;entryDy=0;startArrow=none;startFill=0;endArrow=classic;endFill=1;fontSize=12;" parent="1" source="COK3GCsZX3T8CLw1UcPQ-39" target="MaFsSqHFL_aDIbuKhQJ8-3" edge="1">
          <mxGeometry relative="1" as="geometry">
            <mxPoint x="572" y="803" as="targetPoint" />
          </mxGeometry>
        </mxCell>
        <mxCell id="COK3GCsZX3T8CLw1UcPQ-91" style="edgeStyle=none;rounded=0;orthogonalLoop=1;jettySize=auto;html=1;exitX=0.5;exitY=1;exitDx=0;exitDy=0;entryX=0.5;entryY=0;entryDx=0;entryDy=0;startArrow=none;startFill=0;endArrow=classic;endFill=1;fontSize=12;" parent="1" source="COK3GCsZX3T8CLw1UcPQ-39" target="MaFsSqHFL_aDIbuKhQJ8-2" edge="1">
          <mxGeometry relative="1" as="geometry">
            <mxPoint x="645.1800000000003" y="803" as="targetPoint" />
          </mxGeometry>
        </mxCell>
        <mxCell id="COK3GCsZX3T8CLw1UcPQ-95" style="edgeStyle=none;rounded=0;orthogonalLoop=1;jettySize=auto;html=1;exitX=0.5;exitY=1;exitDx=0;exitDy=0;entryX=0.5;entryY=0;entryDx=0;entryDy=0;startArrow=none;startFill=0;endArrow=classic;endFill=1;fontSize=12;" parent="1" source="COK3GCsZX3T8CLw1UcPQ-39" target="COK3GCsZX3T8CLw1UcPQ-58" edge="1">
          <mxGeometry relative="1" as="geometry" />
        </mxCell>
        <mxCell id="QY_VV6FcXAard618ne-8-7" style="edgeStyle=none;rounded=0;orthogonalLoop=1;jettySize=auto;html=1;exitX=0.5;exitY=1;exitDx=0;exitDy=0;entryX=0.5;entryY=0;entryDx=0;entryDy=0;" parent="1" source="COK3GCsZX3T8CLw1UcPQ-39" target="QY_VV6FcXAard618ne-8-1" edge="1">
          <mxGeometry relative="1" as="geometry" />
        </mxCell>
        <mxCell id="COK3GCsZX3T8CLw1UcPQ-88" style="edgeStyle=none;rounded=0;orthogonalLoop=1;jettySize=auto;html=1;exitX=0.5;exitY=1;exitDx=0;exitDy=0;entryX=0.5;entryY=0;entryDx=0;entryDy=0;startArrow=none;startFill=0;endArrow=classic;endFill=1;fontSize=12;" parent="1" source="COK3GCsZX3T8CLw1UcPQ-40" target="MaFsSqHFL_aDIbuKhQJ8-3" edge="1">
          <mxGeometry relative="1" as="geometry">
            <mxPoint x="572" y="803" as="targetPoint" />
          </mxGeometry>
        </mxCell>
        <mxCell id="COK3GCsZX3T8CLw1UcPQ-92" style="edgeStyle=none;rounded=0;orthogonalLoop=1;jettySize=auto;html=1;exitX=0.5;exitY=1;exitDx=0;exitDy=0;startArrow=none;startFill=0;endArrow=classic;endFill=1;fontSize=12;entryX=0.5;entryY=0;entryDx=0;entryDy=0;" parent="1" source="COK3GCsZX3T8CLw1UcPQ-40" target="MaFsSqHFL_aDIbuKhQJ8-2" edge="1">
          <mxGeometry relative="1" as="geometry">
            <mxPoint x="645.1800000000003" y="803" as="targetPoint" />
          </mxGeometry>
        </mxCell>
        <mxCell id="COK3GCsZX3T8CLw1UcPQ-96" style="edgeStyle=none;rounded=0;orthogonalLoop=1;jettySize=auto;html=1;exitX=0.5;exitY=1;exitDx=0;exitDy=0;startArrow=none;startFill=0;endArrow=classic;endFill=1;fontSize=12;entryX=0.5;entryY=0;entryDx=0;entryDy=0;" parent="1" source="COK3GCsZX3T8CLw1UcPQ-40" target="COK3GCsZX3T8CLw1UcPQ-58" edge="1">
          <mxGeometry relative="1" as="geometry" />
        </mxCell>
        <mxCell id="COK3GCsZX3T8CLw1UcPQ-115" value="View and resend&amp;nbsp;" style="text;html=1;align=center;verticalAlign=middle;resizable=0;points=[];labelBackgroundColor=#ffffff;fontSize=12;labelBorderColor=#000000;" parent="COK3GCsZX3T8CLw1UcPQ-96" vertex="1" connectable="0">
          <mxGeometry x="-0.1349" relative="1" as="geometry">
            <mxPoint x="17.670000000000005" y="1.4000000000000004" as="offset" />
          </mxGeometry>
        </mxCell>
        <mxCell id="COK3GCsZX3T8CLw1UcPQ-40" value="Retail store" style="shape=image;imageAspect=0;aspect=fixed;verticalLabelPosition=bottom;verticalAlign=top;image=https://image.flaticon.com/icons/svg/1326/1326546.svg;labelBackgroundColor=#ffffff;" parent="1" vertex="1">
          <mxGeometry x="544" y="550" width="50" height="50" as="geometry" />
        </mxCell>
        <mxCell id="COK3GCsZX3T8CLw1UcPQ-58" value="Apollo" style="shape=image;verticalLabelPosition=bottom;labelBackgroundColor=#ffffff;verticalAlign=top;aspect=fixed;imageAspect=0;image=data:image/png,iVBORw0KGgoAAAANSUhEUgAAAFsAAABGCAYAAACjfujcAAAVMklEQVR4Xu1cd3yUZbZ+pmX6pGcmDVBBYgwtUkJVkBIgFLGDi6grNrh6vet1LVjRdd1d3bVhWQtXRUSR3pQSCE0IXQgdRMjMJJNJJm36993feecb0mYykzDB4f7u+2fylfd73vOe95znPGdE+OwsjytlcDxAsxWLANGVMumGeYquCLAJYA8PuVyEeLkEZrsXvIcHpFcW4tEPNgeA4zG1mxqPXqdDJ40EhytdeP2ADUUXHIBMfMWYeHSDLVj0szfE4rUb4puAanNxuGezBStP1wExVwbg0Q22i8PDOTrMG5wY0HornF6MXGvGfrPzirDw6AXbzSFXL8eWcQaoW3EVO8ocGL3GjFry4XRwRvGITrA5QCbisW6sHsNTlSHhe35PJV4rrop6dxKdYJP76KHDvEGB3Udz9MvtXvRdYcQ5myeqI5ToA9vLI0Epxu4JqbhaJwtp1f4L3jtSjdlbK6Lad0cf2C4Of8qNxd/6JYQNNF1Y4+bQf4URRyvcUWvd0QW2l0eiUoK9k1LRSSNtE9h08esHqvDczsqo9d3RBXYbfXXz1fi11oM+y0pRaecASfRFJtEDNsdDIhJhW4EBA1LkbbZq/w2zdlTg/YPVUWnd0QO2i8PoLkqsG2NoN9B043azAzetNsNN2WeUGXd0gE3AeDksGJGMu6/RXBLYTi+PoatN2G2MPt4kOsD28kjXSrFnYir0SsklgU03v7yvCi/tir6DMjrAJlIpS4svb0y6ZKDpAUcqXchdboKTpfAReWREHvL7gE1ugxe4DMGFLB6Vgild1BH5KHrIzWtN2HjO7kty/OWR39mHXz6wqcriJRh4FpZp5WLUe3h43Tw6x0qxf1Iq4uSX7kL8q/XGQRue2WllYBPGPC0uWToNIqx+h2pPx4LNAPZ9oEohQW6iDIP1CgxOkcPh5TG9yAJHPYfp2VrMHxYZF+IHe6vJgeFrzfA4OYzsosIT2VrstbhQXOHCbosLxho3QIUJiscvE/CRB5u5BaoV8tCpJMhLlmNUmgKj05XoES+DSOTbyxSiDV5uYtfNG5aIh7N0EXMh9KBqF8fIqRMmJx7OjcW8gQ2k1vk6D3v/ulIHtpqdOF7l9lk9ldk6kKaNHNhkJV6OTTYnMQZTr1ahIFOFnPgYCPg2AfPLk7WYvr4cMoUYReP0GJCiiCjY9LCpheX45lA1HsiNw7+DFCAsDi+KzA4sOl2P1eftqK73+gDvgPrmpYNNluzmIIoRY0y6AtOvUaOgkwraELXB5/ZU4vWdlbhaL8eeiQbExYTnr8n1Blq8QCs1r6QGj24sQ15nFXYUpIZczINWFxacrmXAnyFrpxdFEPT2g+0HWSbG+AwFHs/RYWRaaKKfvnh/hRNTCy0oMTsx8VoNlo1MCQrEmRo3VpyzY7PZgd9qPeyMjZWJ0TsxBgUZStyYqmBpfqCxu9yJgSuM4DjgmT6x+FOOjlXnQw1jvQe08z44WotfCXSy9AhwLe0Dm53qPEZmKPGfPXQYl6EKNX8cr3Zj/QU7frpgxyaTEzYHx/zk3IHxeK5XXIv7aXu/uq8K80/WgYy+b5IcWbEyqKRinKv1YI/ViVM2D/okyvBybjw7E5qPCocXucuFogKA7EQZxmcqMS5TibxkBRQhACTf/vGxGswrqYWl1uMLIy8hfGwb2BRdeHhcmxiDp3rqcF83basLbnV6sb7Uju/P2LHBaIe1zuuLeWlrkjVyPFbl6zEuoylQtJ2nbChDlYPDC7lxuP9aDTQyMVxeHh6eZ4CzQ7bMiRf2VGJjqQNz+8bh2WaLRtMdscaEzeeFeJuMhOOZy+ubFIPJnZSY2Ml3rrQ2SqpceO2ADV+frPOFr7L2IR4+2G4OUqkYj2Rr8FzPWOhVwfnmM9VuZpELz9ThWKXbF52QFTW2JI6HOkbMUvTusQ0VmaM2NwavMKK7Toqlo/RIUUow/0QtFp6uw6laDzwcjwS5GDcZFJiVrUUXjQxv/WLDf22zYm5ey10yo8iC+UdqmrKAghaFIqE4lQT56Uo8cK0GI9KUrQYjy36twzPFVSixuABa8DZmp6HBFnxzjxQ53ugbh3GZwV0GiWc+PlaLb0/XwVzjafB1gQzBy+OaOBl2TTAgQfCjLo7HkJVG1Hl47JmUBvKd9xRWYHupvSEZoWcJYMWrJXi1Xzwey9LincPVeHxHBVbn6zG2kVt7YW8lXqVicLADW9itIpmInTkzszSY0lkFcZBzwGT3Yu7+KrxPC0jzaMMB2jrYQkJy77Ua/K1fPJKDkETkQ6kG+MmxWlRR6NTcigPtUTePfgY5thYYECPEtu+VVGP2DiuO3ZbOopmhK404VeECc9pBFozcwjtDEjE7W4exP5pxpsaDfZPSoBRAYLXJbVbfnFrb/YJRQQKMyVDiqZ6xuLmVA/+b07X4758rcb7aEzZ3HhxsNw+NQoy/94/HQ1nagC6N6MwPSmrw9uFq/Eandjgg+8WRHI+xXVRYPVrPnk0ZZe+lpRiQLGfZ5B2byvDd0TpAEWKvenmmKzk0JZUlMr2XGbF6lB5jM33nAO2yuzaWN8w/VFQhgC6NEeOOq1R4vncsrosL7NOPVLmYcWz81e4DPIQrDwy2i0PXhBh8OjQBwwyBw7kikx1z9tp8h0+48aiXR3aCDD0SYvDt0VrcnaXBgpuSGRD7KlzIW2nE2tEp6KKRovviUrhpZ4WT0Tk5zOqlw7sDE5GzpBTDU+V4N8+XMa47b0f+ahMGpikQFyPGGgImnK0vuJcUrRR/7hmLR67TBoxeat0cntxlxSfkVvycS5DTtinYwqoOy1Ri/rBEdvg0H+RX5+6rwj8OVaPeSWqa0CvKniGweyvGpMDq4nDv2nLc31uHT4f4OJGFp2sxc7sVF+7MYNb4YKEl7O1JEVJWggxHbk3D7J1W7KtwY9t4X8Vni8mBG5cZMbmrGm/1i0e/FSZU2AVXFzJgFagHjsfNmUq8nZeAHkEil78etOHPuyt93xlk9zSALQA9pasa/x6ShHh5y+37S6ULT/5sxU9kHeG4jMYf4+IwKEPJQHh6txVv7qzEwzfEY94gn2ThvZIavLSvCpapmXi62Io399jCB1uoyp+5Ix3vl9TgsxO1OHZrOtvVW80ODF1mRFaSHCVT0sBA2WEN/9l+Q3FzSNZI8Ea/eNx/bWC3+tnxGszaboWdanIBdo8PbAHoe7I0zNJiAqzM0l/r8Og2K4wUZYRrzX6wKcXmeKzJ17PD574iC77Yb8MjN8TjAwHsT47V4OniKpTdnYG/HrLh+bZIErw80rQSnL4tg0mJl5yrx8HJaeztDOzlJqTrpAxsMqEeS0txpqod6imK03kej+bo8Ga/+IAaxO/O1OH+LRbUuloCLsKnZ3niNh68Xst8njwA0G8esmFOcRVc7RWguzkMy1CicKyBufc7N5Vj0S/VmJkbh48EgujHC/WYuL4ch29JA0kSbl5lAiRhuigXh5s7K7E+34BxP5khF4uw5GYfBbDZ5MBNK0xIVEuwb1IqMtVSvLKvCi+2t2xG4Z6Hw6hOSnw8JAldtC3zjVW/1ePuTRbUOL2+eFwYInx4ip+WpcX8oUmQNDuMKIF4encl3jpgaz8/wDTWHD4fnoQZ3Xzbb1phORYcqsa9vWPxxVCfz6aYOvuHUrzcJw6PZGmRtaQUp62u0HIyYVcuGp2C8Zkq6L/5DXNzY/H49bHsuWvP2zF2DYEtxb6JqcjUSHGuzoPcpca2+e7GLpHe6eKQkxLDSnm9E1tKLxafrcP0QgsrkPh9uOjWDWb+qxuTW5y0Dg+HB7dV4Kujte3Kli7Ozcujk07KYl/K/Gg8tK0CH++twi3ZWvwgWCD9/c6NZdhT4cLJ2zOw4FQtpm0obyD3gx1mDi9GXKXChnwD/n7Ihuf2VuHolDRcpfUd7hQPT/2xHBnxMuydmHoxV3hshxUfHGzDuRDo/S6OuaeFI5IxRN+SIiYG8Q+FFkaEEeAiq8PDN2fC6j0c8zvfHhdU/e2jAnzTc3F4oncs3h7QoN17trgSf9lZiaFXq7ApX39xRxEH0WOJkcW2L/WJwyv7KvFisY3xGRczQFbj8rV+kDikX7ocK0fpWZyetfgCZmZp8c9G73rnSDUeL7SgO1G5k1KhFrY1cTZj1paxJDBUfNxq0OLmkaQW4+ubkgOSYZSDPLndyjyDiGfFuYZBod29W8qxkBKKMAL1VidCByPPY9UYSqEb4vV/Ha7GE5stuD5VgZ8Lmord/3XYhie2VuDT4cns1F9ytg6v7rfhQKUbnIe72C1Gkoc7r1GzzLbazSFvhQlaqQhFBQZGWvmHnzcf2FmJreNTL4btVS6fEPOENQJCTIpU1FL8MDKwhT/+sxXv7Lc1BZtgf3CbBZ8erml7xBEIdRYlSLFnQioMqgYemWV168uQoKFCrwGZ6qbxPAsN99nwZM9Y/KV/PEvnd5U7QSQVMX8GpQR5KXIkKSRYd74eDxRVQCEVYd0YPa5pJjP2nw9Te+iY9TUef9hc7nOTkejJcfMwaCRYNSYFuc18uMPL4daN5U3BnrO3EnN3C6TNpbgO/xe5OYzspMJP+b6U3D92ljswZJUZXi+P7RMMGBigJPZhSTWeKa6ESibBjG5q5Gco0UktZbhYnBwr3hLBX2h0YEInFeu7oUVoPLycTx2146wdcwYl4JXcprz5p8dr8MdNbUieWt3GPpd5XVIMVo+hLLipAVHh46IbIZL8oaIKX+rdRuow6BxcHJ7KjWMxaeNRWu9Bv+UmlFpdmDciGQ8H4V7O1rpBpa3FZ+0wO7zsUJeKRLATHyIF+ifJMStbxxYi0KAIp+cyIyw2N74elYKpzaRtxJv3XW6EmzjqSH2zk8PgTAXWjtY3cWfsaCCfXWRyIH+dGfWU+YQiakKtbtMDAJ+PSMaMbk31exdJ/VN1mNE7Fp8L4V+wR9e5OeZCztd5WfGAOA7iwDMI8VbGJqMDI1YaIYsRY2eBocX2pva+PsuMvnpjOHxJON8uhKJ/zNHhk2ZFZtH5WjdP+ooTRGVGsoGTDkcA6/P1GJHWMiyi+P3NnyuRk67A7ompIUtU4Xxn82te3l+Fl7ZZ0d0gZ+9oXoSm2GDoajO2sebVSPhNYQZCbvHe0EQ8dl2DRIPF2YspxAvAhbTnAy/ew/FQysSsOBCo7LSh1I6Rq8xQxIiY1fUKkBhcyvu9PI/ha8woOl2PaT20oFwi0JiyoRxLTtVG1tDoRV4esXIxCscZWHGauRF8dJpnKWUEF5Y9meOhU4ixd0JqiwiB/k2uoc9yI06UOfHRiCTM7B5Zkc6Jajfzx9U1XswflYzpXQNLke/dYsH/lDQrm13KKjdzo3npChYgaKQkg/vkDEn+I/X4hudwPGIVYhb2NQ/H/BfN3mnBe7ttuDNHh4XDA1teeyf2+fEa3L/RgpQ4GQ5OMkCvDOzf7y+y4PPmNcr2vjTQfS4vXs1LwPO94hC6BtneF3M8NHIxiic0Leg2ftza8/UYu8aMeJUUhyanIj3EgdeWqdy6sQw/HK7BPb10+HJY8IWctrkcCyIVaweaoJeHTi5mncodBzYFNmJg6zgDS0ACDbuHQ/+VJvxy3oF/Dk/C49dHxpWcrHaj11Ij6h1eLBmdgsmtSJELfjJj1Zn6yPvsxh/s5DD+GnUHgk0vc3NYNCoFt18VXHf9QUk1HttgwYAuShSNM0AWThkshImz9uodVlxHkU5BatDed0p6Bqw0YY+JfmigA1ypf56CHr3jLJte5OLw6oB4PN+7peLJP49Kpxf9V5hwqtKNwgI9hoXRq94a1jaXFzesMOF0uQsfDU/Cg90DV1XoGaZ6L0t6yusF2UVb/FRbryU9ZIf+ko6Lw6SuaixtRKMGmuOItWZsOlmHu3K0+KYZf9HWb2Lq2A3lIB3I9gJyYcHVscT8jVptvjz6bJZ3dORvRHl4dImTskMyURFY0FhoJKrTDJcXiJH6+iBJ19eeQWfAwFUmHDC7GA97ezc1Fg0PLtpkVO+ey/drDh0LNltNHmvH6ANyvcQyTlhfhlWnhKTKxYGqRl+1s5GJ6pgzN1su9tFQBl40Xh/QukkmMWy1CTsvYwtfx4It+O2ZOVp8NLhlGwe1Yty0xsw09IwI4sGo0jm9YpGklDBdH5OOAGiu9CVCiuqlft26m+fx4l4bjpO20J83kGQiW4MvhrYM/XaVO3DjajMcngiSUCG2Y8eDLaStxZNS0bUZ1zxjiwXzm2dvAq/A5k1I+xWvTOPXuM4hsJONanwsC24czXh5aGLEzHeTMKjx+I+dFXj3wOVtu+54sOkLSbHUOxbv5jWUxkiDMmCFCfVuX2tIi+HmcEc3NWZnxzK8ieug0lfjQeLHzUYHXt5bFZwadnK4L0eLzwQxEN1P76bKDlEGYSmu2nOABLjn8oDN8VBJRFibr8dQgy86eGCrBZ/9UhOYAPPy0KslODA5LayO30nry7Cc/H6gigtxNDFi7GokTZ68oQzLSGsdiQpNGxbi8oBNE/Lw6Bovw8pRKSBBJh1ONpKvBbJqF4dnb4jDa32bFh2Cfdcmox0j15hBkWxAQs3F4TEqsfWNA9U/51A1KpSqtQ0ghnvp5QNb8MFpGglTXJ0lqW0goL08UtQSJjtoC1dy+6YyfO9XAzT/eqE4TwUHciHgI1iNChdpRrF2ZJwdaCJ+vxuMaXRzmNpdi3fy4ln5y98KTesiCyJQl0pEKC5zYPKGclAyGLDE5e/P/B0s2g/D5Qc7lCXwQIpKDLVE7G8OvigMDVZIouOVdsvJag8cFJ10IM0Ravqt/T/6wKbZ+nteSCdCg4objVqzGZj0N7J8+ru/M/cytUW3F/DoBFtIbgalxCCGfsqozIl0tYQVeAlfSnaKLS5000mZfOGA1QVzPR227YXh8twXnWB7eWRopTg4OZU1ifZcWopZWVomLaNBzB5Vxd8bmMja+qZttmDB0Q4qbUVwHaIWbIpIDk1OY6152T9cwEPdNReVqdRM2mOpER8OSmB9jNO2WLCgo+qI/+fB5njEKcTYPykNnTVSdP3+AtOePN/LJwOmzluy9o8GJbLCxF2FFnx77P8tu312ITSknrotnWWQXb47jwe6aTBHKEJQq3WnRRfw9Y2JuKWzGncXlmPhsQhp9to347Duik43QkmIRIR/9ItDmkrKdOJD9XJWdeF4HufqvCBl6CPdNUwAT704u6i0FSlVU1jQtf2i6ATb/x1EFFEyQgF289CP/ib0onf0j7K0HdbAd/wvDksOSDDmC/wAAAAASUVORK5CYII=;" parent="1" vertex="1">
          <mxGeometry x="642" y="713" width="64" height="50" as="geometry" />
        </mxCell>
        <mxCell id="COK3GCsZX3T8CLw1UcPQ-70" style="edgeStyle=none;rounded=0;orthogonalLoop=1;jettySize=auto;html=1;exitX=1;exitY=0.5;exitDx=0;exitDy=0;entryX=0;entryY=0.5;entryDx=0;entryDy=0;startArrow=none;startFill=0;endArrow=classic;endFill=1;" parent="1" source="MaFsSqHFL_aDIbuKhQJ8-29" target="COK3GCsZX3T8CLw1UcPQ-69" edge="1">
          <mxGeometry relative="1" as="geometry">
            <mxPoint x="89.38999999999987" y="510" as="sourcePoint" />
          </mxGeometry>
        </mxCell>
        <mxCell id="COK3GCsZX3T8CLw1UcPQ-112" value="&lt;font style=&quot;font-size: 9px&quot;&gt;IWD&lt;br&gt;&lt;/font&gt;" style="text;html=1;align=center;verticalAlign=middle;resizable=0;points=[];labelBackgroundColor=#ffffff;fontSize=12;" parent="COK3GCsZX3T8CLw1UcPQ-70" vertex="1" connectable="0">
          <mxGeometry x="-0.1952" y="-3" relative="1" as="geometry">
            <mxPoint y="-5" as="offset" />
          </mxGeometry>
        </mxCell>
        <mxCell id="COK3GCsZX3T8CLw1UcPQ-71" style="edgeStyle=none;rounded=0;orthogonalLoop=1;jettySize=auto;html=1;exitX=1;exitY=0;exitDx=0;exitDy=0;entryX=0;entryY=0.5;entryDx=0;entryDy=0;startArrow=none;startFill=0;endArrow=classic;endFill=1;" parent="1" source="COK3GCsZX3T8CLw1UcPQ-69" target="COK3GCsZX3T8CLw1UcPQ-13" edge="1">
          <mxGeometry relative="1" as="geometry">
            <mxPoint x="332" y="277" as="targetPoint" />
          </mxGeometry>
        </mxCell>
        <mxCell id="COK3GCsZX3T8CLw1UcPQ-73" value="Initial welcome comm&lt;br style=&quot;font-size: 9px&quot;&gt;and&lt;br style=&quot;font-size: 9px&quot;&gt;Visa letter" style="text;html=1;align=center;verticalAlign=middle;resizable=0;points=[];labelBackgroundColor=#ffffff;fontSize=9;" parent="COK3GCsZX3T8CLw1UcPQ-71" vertex="1" connectable="0">
          <mxGeometry x="-0.2595" y="-1" relative="1" as="geometry">
            <mxPoint x="-49.47" y="10.380000000000003" as="offset" />
          </mxGeometry>
        </mxCell>
        <mxCell id="COK3GCsZX3T8CLw1UcPQ-69" value="Customer Admin&#xa;team" style="shape=image;imageAspect=0;aspect=fixed;verticalLabelPosition=bottom;verticalAlign=top;image=https://image.flaticon.com/icons/svg/1584/1584911.svg;" parent="1" vertex="1">
          <mxGeometry x="163" y="462" width="50" height="50" as="geometry" />
        </mxCell>
        <mxCell id="COK3GCsZX3T8CLw1UcPQ-98" style="edgeStyle=none;rounded=0;orthogonalLoop=1;jettySize=auto;html=1;startArrow=none;startFill=0;endArrow=classic;endFill=1;fontSize=12;entryX=0.5;entryY=0;entryDx=0;entryDy=0;exitX=0.4;exitY=-0.15;exitDx=0;exitDy=0;exitPerimeter=0;" parent="1" source="K3VQ6Ar4vp130KD2iZYr-9" target="COK3GCsZX3T8CLw1UcPQ-58" edge="1">
          <mxGeometry relative="1" as="geometry">
            <mxPoint x="779.9899999999998" y="631" as="sourcePoint" />
          </mxGeometry>
        </mxCell>
        <mxCell id="COK3GCsZX3T8CLw1UcPQ-109" style="edgeStyle=none;rounded=0;orthogonalLoop=1;jettySize=auto;html=1;exitX=0.5;exitY=1;exitDx=0;exitDy=0;entryX=0.5;entryY=0;entryDx=0;entryDy=0;startArrow=none;startFill=0;endArrow=classic;endFill=1;fontSize=12;" parent="1" source="COK3GCsZX3T8CLw1UcPQ-107" target="COK3GCsZX3T8CLw1UcPQ-58" edge="1">
          <mxGeometry relative="1" as="geometry" />
        </mxCell>
        <mxCell id="COK3GCsZX3T8CLw1UcPQ-110" style="edgeStyle=none;rounded=0;orthogonalLoop=1;jettySize=auto;html=1;exitX=0.5;exitY=1;exitDx=0;exitDy=0;entryX=0.5;entryY=0;entryDx=0;entryDy=0;startArrow=none;startFill=0;endArrow=classic;endFill=1;fontSize=12;" parent="1" source="COK3GCsZX3T8CLw1UcPQ-107" target="MaFsSqHFL_aDIbuKhQJ8-2" edge="1">
          <mxGeometry relative="1" as="geometry">
            <mxPoint x="645.1800000000003" y="803" as="targetPoint" />
          </mxGeometry>
        </mxCell>
        <mxCell id="QY_VV6FcXAard618ne-8-3" style="edgeStyle=none;rounded=0;orthogonalLoop=1;jettySize=auto;html=1;exitX=0.5;exitY=1;exitDx=0;exitDy=0;entryX=0.5;entryY=0;entryDx=0;entryDy=0;" parent="1" source="COK3GCsZX3T8CLw1UcPQ-107" target="QY_VV6FcXAard618ne-8-1" edge="1">
          <mxGeometry relative="1" as="geometry" />
        </mxCell>
        <mxCell id="COK3GCsZX3T8CLw1UcPQ-107" value="Internet &#xa;response team" style="shape=image;imageAspect=0;aspect=fixed;verticalLabelPosition=bottom;verticalAlign=top;labelBackgroundColor=#FFFFFF;fontSize=12;image=https://image.flaticon.com/icons/svg/561/561127.svg;" parent="1" vertex="1">
          <mxGeometry x="843" y="548" width="50" height="50" as="geometry" />
        </mxCell>
        <mxCell id="COK3GCsZX3T8CLw1UcPQ-119" style="edgeStyle=none;rounded=0;orthogonalLoop=1;jettySize=auto;html=1;exitX=0.5;exitY=1;exitDx=0;exitDy=0;entryX=0.5;entryY=0;entryDx=0;entryDy=0;startArrow=none;startFill=0;endArrow=classic;endFill=1;fontSize=12;" parent="1" source="COK3GCsZX3T8CLw1UcPQ-118" edge="1">
          <mxGeometry relative="1" as="geometry">
            <mxPoint x="332" y="164" as="sourcePoint" />
            <mxPoint x="357" y="346" as="targetPoint" />
          </mxGeometry>
        </mxCell>
        <mxCell id="COK3GCsZX3T8CLw1UcPQ-120" value="Digital card" style="text;html=1;align=center;verticalAlign=middle;resizable=0;points=[];labelBackgroundColor=#ffffff;fontSize=9;" parent="COK3GCsZX3T8CLw1UcPQ-119" vertex="1" connectable="0">
          <mxGeometry x="-0.2773" y="1" relative="1" as="geometry">
            <mxPoint as="offset" />
          </mxGeometry>
        </mxCell>
        <mxCell id="COK3GCsZX3T8CLw1UcPQ-118" value="Android app" style="shape=image;imageAspect=0;aspect=fixed;verticalLabelPosition=bottom;verticalAlign=top;labelBackgroundColor=#FFFFFF;fontSize=12;image=https://image.flaticon.com/icons/svg/977/977411.svg;" parent="1" vertex="1">
          <mxGeometry x="302" y="25" width="50" height="50" as="geometry" />
        </mxCell>
        <mxCell id="COK3GCsZX3T8CLw1UcPQ-122" style="edgeStyle=none;rounded=0;orthogonalLoop=1;jettySize=auto;html=1;entryX=1;entryY=0.5;entryDx=0;entryDy=0;startArrow=none;startFill=0;endArrow=classic;endFill=1;fontSize=9;exitX=0;exitY=0.5;exitDx=0;exitDy=0;" parent="1" source="DEALhcKuOMUuAGFNjWsx-146" target="COK3GCsZX3T8CLw1UcPQ-13" edge="1">
          <mxGeometry relative="1" as="geometry">
            <mxPoint x="482" y="360" as="sourcePoint" />
          </mxGeometry>
        </mxCell>
        <mxCell id="COK3GCsZX3T8CLw1UcPQ-123" value="BABC survey&lt;br&gt;and&lt;br&gt;Customer genius survey" style="text;html=1;align=center;verticalAlign=middle;resizable=0;points=[];labelBackgroundColor=#ffffff;fontSize=9;" parent="COK3GCsZX3T8CLw1UcPQ-122" vertex="1" connectable="0">
          <mxGeometry x="-0.2262" y="1" relative="1" as="geometry">
            <mxPoint x="-7.74" as="offset" />
          </mxGeometry>
        </mxCell>
        <mxCell id="COK3GCsZX3T8CLw1UcPQ-121" value="CustomerConnect" style="shape=image;imageAspect=0;aspect=fixed;verticalLabelPosition=bottom;verticalAlign=top;image=https://image.flaticon.com/icons/svg/811/811768.svg;" parent="1" vertex="1">
          <mxGeometry x="642" y="376" width="50" height="50" as="geometry" />
        </mxCell>
        <mxCell id="COK3GCsZX3T8CLw1UcPQ-126" style="edgeStyle=none;rounded=0;orthogonalLoop=1;jettySize=auto;html=1;exitX=0.5;exitY=0;exitDx=0;exitDy=0;entryX=0.5;entryY=1;entryDx=0;entryDy=0;startArrow=classic;startFill=1;endArrow=classic;endFill=1;fontSize=9;" parent="1" source="COK3GCsZX3T8CLw1UcPQ-125" target="COK3GCsZX3T8CLw1UcPQ-13" edge="1">
          <mxGeometry relative="1" as="geometry" />
        </mxCell>
        <mxCell id="COK3GCsZX3T8CLw1UcPQ-127" value="Welcome call/&lt;br&gt;Synchronous SMS" style="text;html=1;align=center;verticalAlign=middle;resizable=0;points=[];labelBackgroundColor=#ffffff;fontSize=9;" parent="COK3GCsZX3T8CLw1UcPQ-126" vertex="1" connectable="0">
          <mxGeometry x="-0.1381" y="1" relative="1" as="geometry">
            <mxPoint as="offset" />
          </mxGeometry>
        </mxCell>
        <mxCell id="MaFsSqHFL_aDIbuKhQJ8-5" style="edgeStyle=none;rounded=0;orthogonalLoop=1;jettySize=auto;html=1;exitX=0.5;exitY=1;exitDx=0;exitDy=0;entryX=0.5;entryY=0;entryDx=0;entryDy=0;" parent="1" source="COK3GCsZX3T8CLw1UcPQ-125" target="MaFsSqHFL_aDIbuKhQJ8-3" edge="1">
          <mxGeometry relative="1" as="geometry" />
        </mxCell>
        <mxCell id="MaFsSqHFL_aDIbuKhQJ8-6" style="edgeStyle=none;rounded=0;orthogonalLoop=1;jettySize=auto;html=1;exitX=0.5;exitY=1;exitDx=0;exitDy=0;entryX=0.5;entryY=0;entryDx=0;entryDy=0;" parent="1" source="COK3GCsZX3T8CLw1UcPQ-125" target="MaFsSqHFL_aDIbuKhQJ8-2" edge="1">
          <mxGeometry relative="1" as="geometry" />
        </mxCell>
        <mxCell id="MaFsSqHFL_aDIbuKhQJ8-7" style="edgeStyle=none;rounded=0;orthogonalLoop=1;jettySize=auto;html=1;exitX=0.5;exitY=1;exitDx=0;exitDy=0;entryX=0.5;entryY=0;entryDx=0;entryDy=0;" parent="1" source="COK3GCsZX3T8CLw1UcPQ-125" target="COK3GCsZX3T8CLw1UcPQ-58" edge="1">
          <mxGeometry relative="1" as="geometry" />
        </mxCell>
        <mxCell id="COK3GCsZX3T8CLw1UcPQ-125" value="Customer value &#xa;team" style="shape=image;imageAspect=0;aspect=fixed;verticalLabelPosition=bottom;verticalAlign=top;image=https://image.flaticon.com/icons/svg/1067/1067566.svg;labelBackgroundColor=#ffffff;" parent="1" vertex="1">
          <mxGeometry x="352" y="551.5" width="50" height="50" as="geometry" />
        </mxCell>
        <mxCell id="COK3GCsZX3T8CLw1UcPQ-131" style="edgeStyle=none;rounded=0;orthogonalLoop=1;jettySize=auto;html=1;entryX=0;entryY=0.5;entryDx=0;entryDy=0;startArrow=none;startFill=0;endArrow=classic;endFill=1;fontSize=12;exitX=1;exitY=0.5;exitDx=0;exitDy=0;" parent="1" source="DEALhcKuOMUuAGFNjWsx-148" target="COK3GCsZX3T8CLw1UcPQ-13" edge="1">
          <mxGeometry relative="1" as="geometry">
            <mxPoint x="222" y="355" as="sourcePoint" />
            <mxPoint x="332" y="277" as="targetPoint" />
          </mxGeometry>
        </mxCell>
        <mxCell id="COK3GCsZX3T8CLw1UcPQ-132" value="&lt;font style=&quot;font-size: 9px&quot;&gt;Initial welcome comm&lt;/font&gt;" style="text;html=1;align=center;verticalAlign=middle;resizable=0;points=[];labelBackgroundColor=#ffffff;fontSize=12;" parent="COK3GCsZX3T8CLw1UcPQ-131" vertex="1" connectable="0">
          <mxGeometry x="-0.1832" y="-1" relative="1" as="geometry">
            <mxPoint x="-38.769999999999996" y="-4.25" as="offset" />
          </mxGeometry>
        </mxCell>
        <mxCell id="MaFsSqHFL_aDIbuKhQJ8-2" value="BOSS" style="shape=image;verticalLabelPosition=bottom;labelBackgroundColor=#ffffff;verticalAlign=top;aspect=fixed;imageAspect=0;image=data:image/png,iVBORw0KGgoAAAANSUhEUgAAAC8AAAArCAYAAADottG6AAAFqElEQVRoBdVZ229URRj/zZxzdvf07G5boJRqgeVWro0gFR/UEjQFjCSGxERFEn3UkPDCKwk+8B8Y4yVeXkiIxqjIgyIoJAJpFJCb5V4u6Rot1LLbvZ09lzEzp2fZs6fb3Spbdk+7mZlvvvnmN9+ZM/Obb0gsFmOYyhNsAovOALQIoIYBVQULBEEUBQgosLktwsAUBYwwEEMHwEAIA/J5EDMP5HUglwVJp4F0GiSRALK5qaAQunKlFiwUBpasAYuthN25BNDCAOH/tgDEAfIfFakNxv+IDXu8zPVA+I8V2vA8l7k2CM+nUyC3b4NdGwQGroOkM5WggZTzvN02D/a6LQI4KBWdcw86QGoAvmiQFjOBgauQjv0KEh8uOwif55kSRL53O6xVz0GiDBL3Egc9nQ+lYN1d0LsXg575A8qBYyC64UPgAW83t0N/eRdY65wHnvY1mUYBIbB6VsCOdSDw6QHQkYSnc+qWmNaK7Cu7Ybd2uKK6Se1ZzdDf2QrWEvZgcsATAn3TDrDwDE9lPRVYcxjGG30AIQVYAry54nlYnSsKwnrNWAs6YD69rACPMkJhPLW1IKj3jNnXA0jOhJHt2GqwyMyyK0o0KOODzSuxsLVpfFzOyvPg5Tlrkfs2+Trvf0pkorHfDrc0OHYfb588hISR9ZvhKFs02KtioOcGIVtdz06o5Ao3zJ+J3nnT9y08rkWwoWMevr1zxYXgS60nFgjw1Jrb7assFgSkYh8X19QuH6DSpMbtrk7x4cpQI2WnTKmFoWQW755wPELG+YqgB0ARPeCtOD2AoAlcz9mZOT0Y5zhcJjY/TjE4Dhsf9/aVdle+3BQEoio8m1R5bacmmTdxaHC4JtymUt+l9faMCAqbVGll3ZejTY0LnoVDjQseQaVxwbNQA4OHIjeu5/mC0rirjSw1MPiG9rxpNbbnp0QPogEZmxbOFpuvy1MeFreZ8o5umFPjNp1RFZ+8uHrK/dSiAdHNytPGLjlH1AJIqU2bVdFpLl8ZfH/8Pu5m8qX2a1a+m8ugf/jPivZJKld52sTHcuj57ATCQb4lFEfMHG7uzPlK4T6Hv7vhvQnDfSJixpAydRiwBO2edATJTGXw3AB/jUndLAH/cGOV8R170LbrLQQX8VPSpLBFJRlJQia5MYhgamV9n4ZECPauX4V1c1qhKs7RrdIB3GQ2riUS2Hn8F6QMb2T4/pc/oOXVzZAXPebryyPI5IBkFjK9fQ720mc8ddUWdvYsxrblc6tVL+jFIhF82Lseb/78I3hc2X2yF05D7V6L6GsboUwyAHp1CGAMsnTtJMz/CH7tnBbEx7Kiezf0YTEbKYNPsfGQSBE4R8Lj98DMUAgdmoZ4eszFLlI+gFD3k4i+vhFSmQFI528JXZneOguSHAZrbvMYqaaw/eBvIjb//+Lz/p5yF86IAYS39UFe5I2dkkQK5MJN0YgSZkM5dcBv4RFL+ADG9h+GcSPuQSIfPg1Y4v7FWeflgaOQhgY8SvVQ0M+fQWr/ERg3nHWf3oxD6r9UgObwecYQPPQ+aOqfQkW9ZPTzvyO9/wjMc9cR2HdYfKgutsJhhKRHEfpqL+iI9zW5io8yTZ46hcx73yB/z/txF8BzcDTxN9Qv9kC+eNQzwkcJnPcdDMj46851jI5mkDec+S7w+oAZOgI/fY7Qvt2gl/sBy1n2fHrTLGhuDuPWzUueAZTl83RkCPT7j4CjGtjiNbDnLwebuxQI89hmDZ4qmGR7exuuXD6LpctWo312uApuk0uDXDwO6eJxgZhfGCM6C0SLgKkaiKqBBQIgigzwi2RKxf0sERcADLDHORGznQtlwwAx8kAuA5LJAKmUc4lccu+aTuegaSHRp9o0a0JvlfX8hNp8c+S31/fiwL0H/MnlUW5arm21cg48EmnHdwe/xpaXXhDNolEVasgb+v4XG+6HvBlKmywAAAAASUVORK5CYII=;" parent="1" vertex="1">
          <mxGeometry x="548" y="713" width="54.62" height="50" as="geometry" />
        </mxCell>
        <mxCell id="MaFsSqHFL_aDIbuKhQJ8-3" value="Cyclops" style="shape=image;verticalLabelPosition=bottom;labelBackgroundColor=#ffffff;verticalAlign=top;aspect=fixed;imageAspect=0;image=data:image/png,iVBORw0KGgoAAAANSUhEUgAAAB8AAAAeCAYAAADU8sWcAAAHkElEQVRIS52XWWxcVxnHf+fce2fujMceL0ns2I2XxG7sBJo2CQFCQhZIkVAQSoFKPBX6gqBPIF76guCtQkiVeKtACFUIVYDUJVChLnFTEkLTZmkWJ0Fx0jjYqTOOM/bYs9zlHHTOHWe128CRx5bvnPMt/+///b9zxf5zJS2A7mYPV7Lo0uap/QUI+4OOQtTEJUSuCdG6ctFzZt9iy5gaK4aI10ZK2jj92sM55JK7A7h6CdJZaO9O7FXmqLz6EunVq5FbdtejE+iT7yKal0Pv0BKuk8cHLs7fdr5rTQO+K9B6IcWFTAVaxcQjH6BmpnG3fBXH84jLZUrvvI3X2UHDo59DodHVKsGLz+Fs3o27cQfC2DJIWWwT1MxSGoZHF3GutEr2CZkgrRRIiZ4cIzg2jPvINryH1qCCKtVzpxBNrfh9/YnRyauEr/8Od9e3kL2fAa2snXsBXdK5yVzHEfGxt5A9Q4iO3iQDFVH7+x8Q+eWkt+1FhzXiyyPQ1Irs6LEOwrPv2efu0GaEKZFZhXH0/CyyZxAhkjCWdm6+rFUJfv0TnPWbcb/+tHVuDtYO70eHIekd+xBxSHzlLDS2Ilb0QBgQnvonctUAzoou60SXponf/CM0d+Lt3Ieok+pTYBfo8jzxiWFEdQZn+xM2E10pEV29iOzoRWYb0KOnEPll9v/ayAfooELqs1vBcSCOCA/8CaE0zq4nkSnvFvwPVvPCONGhl5GP7Ub2rkugnbiC8NI4+WbUpbOIfBvOyl7Kp44iUmn8wQ02CPXv46jSLN4j26Ch0fJnoZPvcS7Yudon4zkkdDOYGaYKRBRQO/M+2s+RHtxAXCkT35zGbcyh5wrIbB7R0EIwVcDJNeHmcgSXz6MLV/A2bK/X3rgWNnjziRUMX1pgu+uwo0vgFy6h52egow8a2xCuawNQU9eIb0zidveDnyWeKeKkfbQKka4HjosKQ4R5dmMCXa4g2zoQ2Zw9T1BBz80QnT2a2OhZf4dzR/Dl7jTp4jWig39GzZeQX9qH192PyGRsvDoMIAoRKT/pXYOKaUfTHQYvISGKUdPXbPtJvwFt2lTFRIf/ijp/HL3iIVKbvwKr+m/3uSNh1+osvqNRpRl0tUxcnLaOnfYuW2ONsDUzPpLqKYg1VhZtC5mPQscKIaXdGM1Mo25MIhxpgxENTUg/Q+y4DI+W71c4U3Or3Va/I3RYRaYziVjU+3RiqkzhZshcsYaTlqTSLn2dGVoaU7dlTGvisAaOhzTsXxDMxfp850COjKzPDxWjbXY2BKTJBHjrX9d59cgUfzs6ycfFkEotxhECzxEM9eXYOpjnx090s2ZVo1XFRC2FJa+JWwtprcbA8C1tdwTbm2bJBkVUWxfCN0NGGLW22cZKMToxx49+OcKR87O05CW5rEc2LVFKEEQxkzcDokjz5PY2frivj02DbfWmMVawqsnMdahWUH6eg9M+4rVzJe26LtvmT5D5zxniTY/jLu9GimTAmPq98o9xfvWXj9i6roWtQ3ke7c9bHfGExGAUa8FcOeTCeIUX3xwn5cJzT6+ltzNnM7ZDx0j26GnEtSvEbas45A7Ua+4IdiyvkglKqHy7rbHNGk0t0Ow/PE6hFPHNL3bQ3pKyqARK2X41/JBS4KeEITvnx+Y5eaGIKwR7t3dYhJSBXWtUZR5ZnSN2fQ5e9+4g3EAO/57LhFKKWi0ijDVNubRFohZE3CgFpNxk6oVRoqaeFOQyLinPkEsxdq1CW6NDtsGQsD7ZFkbqXTU3rVaf57doaUVO2ajNUdNiQaCYr0VEGt4/X+SNo1N8fl0z6/tyrGj2SbuSfINjkTACqZW2wyTRNjunP3mq3encMN3eLazUaiqhYq4SgZY8+5tznBub4xdPDVCqRmwZbMFPObTkPJw7r0RWWe+e6EsOlrudL8h84rxcjSlXFUGseOb5ET68OMvOx5rxXJefPbUGP+3Q3GDugktcBuvGH8h5Mg7q2QvNfDmyAUjP4dkXLvDbly/j51z2bG7nhZ+uw3WEde4ZyTSw30r6/8g8uc8lvW7+2ppXYgI044UKR84U6Wj1GezN0pzzSElBq4HdTRTNcEZrMwPqdf+0O9xdhFPKZlsJFC1NKTO8qFRiiuUA13XQsWF6QsawEpFNSZryPpUgYqJQYWWrTybj1iXXBJFYfyDYDdGqtZjfv36VtAff/0ZPMlTiiJqCqmlsZeRVkrV9mojnK+9McGF0hh98Z4DmJjOU6mT/n2pe1+Q33rvOSwfGaW5MMdTTyFBPjpQrSMlE3UzrzZYjxiarHDgxRVdbmu893snaXqOE95PvgTI3NbMDQcGh09N8++cnuF6okm3yWJ5L0dfiMhdqCiXF+M0aUajo787x/DNr2fuF9lsvEvd20H3O9wzklnxdWqDusfPTHDx1gwMfzvLxdI3pYg3XlTQ2eDzc1cCmNY18d08HncsyyUz/hPX2wlQzyGzs9C2Ui6761TmTlgSh4uRoiWMXZjn9UYmc79DdkWHPxmX0tWdwXEEYaauMSy3z1fHxKsK8KJpN5lKSyNli63ZQpgwmKTNcjIyaMwbGWCV6kJhY2vGCdaOC/wXncupOS8yNzQAAAABJRU5ErkJggg==;" parent="1" vertex="1">
          <mxGeometry x="451.25" y="713" width="51.75" height="50" as="geometry" />
        </mxCell>
        <mxCell id="MaFsSqHFL_aDIbuKhQJ8-15" value="SAS" style="shape=image;verticalLabelPosition=bottom;labelBackgroundColor=#ffffff;verticalAlign=top;aspect=fixed;imageAspect=0;image=data:image/png,iVBORw0KGgoAAAANSUhEUgAAAKwAAABaCAYAAAAl+r3cAAAgAElEQVR4Ae19B5xdVbX+d8qt01smZSa9N9J7QkuoghQRLKjYRf+IghVFVBSxIuIDlCrPJ1VA6SQQEhLSA+l10jO93Dtz+yn/37f2OZMJJrbHzCOSm8wtp+yy9tqrr3U088zPujj5OgmBEwQC+gkyzpPDPAkBgcBJhD2JCCcUBEzgpERwQq3Ye3ywpuaeRNj3OA6cUNM/ibAn1HKdHKx5kr6eRIITCQKmpmkn0nhPjvU9DgHTPSnDvsdR4MSa/kmz1om1Xu/50Z5E2Pc8CpxYADiJsCfWer3nR3sSYd/zKHBiAeCk0nVirdd7frTmiQKBv2d8O2lLPlFW8X8/zhMklkD7BxEPJ1H2f48KJ0YLJrQTYbE5xuPR2BNh/CcGMpwIozxhRIKTUWUnAjp1/xhPSKWL7uSTHrruR453Yw8m3He3ZYsMXyFnV9bvioDAMAgNlG+PJy68G0F+ckz/GwiYYCyBv95dccI/1rV1/3zXc/4xXtf1uH+ff57I5X13NVeQjMhGbUpu0xxiJlxNg+NqcHMWkEoA3E+mAUNzBDVlvNBgORpguYBuApEIdNOAxPG4vvDA1tmyQ5T3BueA8b8uDOlH4zl/fP74/fHI+P0JcVxdtgX70LTO+RyZOK/r0t3bYeD34R/npz+0t207vzcfZv4t/nDVRvV++cM8qj1/IOqgakddKGMkRPzGvMZ5XMVHd22Qc+0c5JHxdr236+Vdj/uDPt55//g/e48mqNC5wn7z6vNYjfhXHO/c8Y7zvs5z/OLCdXVZdJ5S4zbgujbs9higOxjYrxLTxk/C8KoKTB4/BiWFERgCZIXsBxtiWPXmRmzfX4dVG7ehqbUVCIQQCIegQ4cDE46mQ3ddaJoNCyY0zYXp2HB43jvnT0k+vTGqDcVx6VwtOaXe2TcP6d4m8xfdhS5IzJN+I0e1fOSHd/rIAbWl2JviFeoChzAC+2HPPMazDnQZCDc6zx6nLxdwvN0rbQoMuHd5swZbTUZogY/InCb7JIykv07OqzamuuX4/XWdz9989277p4/zwmPdQ2ISnPfxY536m7bfiQMEiqs50B0NOqmoUFrA1nTYiSR05HDurPG46v3zMWfSWFQWF//Dbjn4nbUNeHbpKjz49EK8taUGCEURDAehuQQ2KSyQ04OyQUwn56EASfexp+7oRJZOGift8FouGu8gMviZGkQbn1QRad9Otf7hBLwL2Lpq38Mm/7jfINv2kYnnhBMcfW3XvripwLlLo3KxRxqIwmre6m6+++1wXdQcFVK7MndCil1z7dTZrj317PceRVhOjZSNiGq4FjRXh2VrsOMNmDZhCG743JU4f/Y0oaSdYBDY8k0BWd5F6VLcXjd8YAPtmSwe+Oti3HLPI6ita0KguEQQS3cd2Boprkn6In0rinXk3s7++MVHDKGuvEbJ+apvNRa506O+6riPrPLrqOb+0Q8dtlxCpCV8ODailYhIiq/wjDrmwYG6h2LVx26dm5XnhagK9DhitSkMl/05wjzUNvSoqKtEJSK0oyvk5MbUXV0Q9+/1d+xRvPNHexhhdTiuDl2zBSCWyKkduPYjF+D7X/goCiNhWQ5FE9W+J7IpemcoOuCzXBF/FWv0waIrfomdhxvxtV/8Dk+/vAJGSQVMturYwsodnQhBocDn4f7dRz5lEclSXV7HhaYIQ7xV33m/ot5EAMrcpLJEEI7cH/2R9v7RN8V5DG9PkqqxfdtDUM/yKF17dF+QmjOwOmnj2/tQFNGTAuQkG+DW89qQX/zOF2FBQYrzyMkm5/z8TS1ERgQkhcRyy//RmxaY+7F/nST824OlTKlYS9a2oWXacds3P4NrPvA+r0WetD3li7ud4HUEWShPUjIVRUn7e+ZjTkdDFsDVN/8a9/7pRZglZRA8ZWuktH5bPvIfYz6kJorKATkrB1hZQNisBy5Nh2kGoUvDXGiFCj4nOEaTxz1E3BA0d104tgNkM+paQRr25wKGDiMYgKazH/6RfSv6eNyGuX0Unqo7OF8XsAhJywI4L4dig3+RCS0YgKHr0B1fTndhaw5c3RVR7u/11RPn/t7Kd0P/jgDQcmwY6Thuu+FqfOmScwDYsF0diruLrUpgKAgjNIAyGCmjWqydtXVojrUjk3XRFosjHA6iMC+MaMjAkP7VKAgEEQRwz3e+DFMD7n7kJRgl5YKA/3h3ki1bsFMdQC4nyDKwugoVJaUwdcAxdGRtB5l0Fgf2H0J7PKkWPBRCIBSRzfKvAI6IaidSgM0tZqOipBDVgwbCDJpQu0yH4zhob2/H3n37kMlwTAa0SBRaMPRP9Sf46LjIJpNALsvb0b+qLypKSxDQSc0B2wWSmRx2HdiPdCIDuEEgGIEeCtGmAt0hp1Piyr8yv3f62m5BWEXj/KF2/aVkKretBd/47BWCrEI/SEk0VyQ5Q77rcIW6EBcMkQ32Nzbh4ReX4OU3NmDTzn1obm2DppvIEZBk1a6LSMDEiEFVmD5qEN5/9jycNWU87rrhy9jX2IEXlqyDVlgAwyFVUqyNXXARdB7TbNkU2QQXNYEp44fiwtNmYcrYoRgxaCAG9CrrlK15d0cqjS01e7G/MYZXl63GSyvfQs3ew0CkEKFgEDYVN5d8QSk8NKXpriVAEbqoach1JAArg4mjB+Kc2ZMxZ+o4VFeUY/CA/ggbYqMQlk+JM5ZIY/uu3djb2IYXlq7BwtfX43Bjq8wpQBjBhc0dT2LscNMpGZYii5VkPwlMGDkY58+bhXmTRmD44IHoVV4qG5uD4pwS6Sxqdu/BwaY4Xlq+Ci+8sR41e+vhRIsQkM3BkSgxggogdRBZJxGF/PXu3k/NnHPlPyY6/+IYHF1p0aK7+MKUJ5HZqXbMHDsQz9/xIxTlRzolKuruZPmGQ2WCrMzhEkvPtz/+DH5572PYd6gZMIJAOATDUNTWkcUismkA2WkmA2TT0E0Nc6aOxY+/9DH069MLs668HrWtKQQDpL2k3Q5sKtKuDpN8U3eQi7Vg9JB++PqnLselC2YjP8hr/7nXobYYfvf4c7j9wafQlrCgFxZAt23osGBpAUALIOBkRMzJEY1bGzB25GB87ZOX4eIzZqAgRGr5z7+27K/DT+57GA/9dSECoSLoRgA53RJZ1HBM0NIhRKC5CSOH9cVXP3s5PnLmXET/pTm14YGnXsbP7/0z2hIZBAoKZHPnaNbTc9DsoIgOrp7ttKn88zP4967UjNkffccRVtkpKS8d3bSw/VQb/vLbm3DezIkgvSFcqVhBo1JE2mfKMeJffVsM1/zgDjy6aAVgBmHkkeUqdKP3y9eoeYxUi4oCUdwgvbAtZNsTCIYN/PBLVyCt67jptj9CixaDWrJHwKE5LmxdgxNP4Kw54/Hgzdeid4kyp7muQ7SGITKzouKkL8rGSdrliuWIfVNc4GvZ9hp87Pofo+ZgBwL5VKRsWHpIzRM2cqRp7TFcetYk/PaGL6OyKF/us8WhoSgyN64SgZRsyTGIjdQ1hH0LdRMRCbj5wT/hu7f9N7RoJQLICBxsnQqqCzvWjHNmj8d9N38NfcpKpR+C2tWp0BGOnp3ZE2E924EnG9PmqxjwG9t248rrvofdtXGEI6WwDBHiANeAIZYzy4OJdNGtb91CYcXdK+T1aIS1OpI4Y+ZovPzb70PXqOMqJUwQVlcGfbJogvtQaxsu+eJ3sWpdDbSKCiGgpFaErUPzC/V3EhGNwFIIK0jrKVTcLLruIpd1gY42vO/8mVi7bT8a6tphmDpyhgaDJBaAlWzGaVPG4snbf4jicECQFFQ6qNQYHiYeZxls2NBtIq+I2IJo62oO4MyPfR0xW4NhBhTDVewGVmsrLjtvNh788TcQIZdwbfHsMT5C95Wf4/TFWTo0eLjiq4MmVgsdH//B7fjDY0sQKIqKuGPpOpz2OOZNH4UnbrsJ5eEQbCq5VAx1qpyexeV4/ZAYUEbQXOhk95qJFbv34ryrrkMsHYIRCsjGcEQscATBxe57vPbeweOaOfcjR2PVO9C45qhFlg8lwkmrVqwV9//86/jEWXNhi9mGTF9RVqFXnkcmlXNw0TXfxUtLNsIsLVPGf+52Gv01emqUVq7RlivSl9KafcrnT4GUVKRVoeJZlJSVobklDkMQg7TSgOVY6B3VsPT+n2FoVR81LtdQFiwNaEomsWjlGtTWtSGR0ZCxs8jLC6E0GsD8GVMxqBcpV068xI6wfUtk6x89+Di+84uHoJeUwkAOtqvBSaVxyoAyvPrgL1GSF0VOvFWap2wCh+PteHXVOtS2xJDOULrJIZwXRkizMWHwAJw+ZTwMcgOa6ChW6KD/DrvqmjDjiq+iNe3IZrTsFMoKTbz64K8xtncvQXDKtrrYVg20JjNY9MZK7GlqQ0fOQC6XQUkkgOKIgdNmTMKwyt4CQm4OofYihxu45aEn8e1f3A+joAiGa4jYRtGDjiD0kBzbLUoXd6YoFmTVsgtdMaNUlBVg2qghAgzuSCpALm2ysuNpRuHe0XHrQ4/hpSXrESwpFe+XwAM5UHZyUlk2Cqr/ZojDV4oGP2jmIRXyXzSCsU1SLtKVlpZmaHoEZIjK4+UAyRguu+wSQVbKtexf0xxQF//9Y8/hl394GrsP1QEZZVoS9YQr6bqo7F2By8+bg+9+8aMoD4dFaaRIQxXo05eciwcffxE7G2LQwyGlnFgZXPuZDwuyOhRLwBgJmpkc3PL7P+Hux1/EoYYYkMtwGCLciMzhONCiUcwdNwQ/+9YXMW3YIFikguIcsDG0dzkmjx6Al5ZvRSAvCjfVgQ9cdpEgK0kllSOKXJSo/+vPi3D7vY9i18GDovDRXCbWCALZ0VBWXoArzjsN3/9/V6EsEvbgq+D6yfefjTufeh4HDsSgB0OeF1HpHJ5U4YO+2z7/Pr/7t7slIlLqEvomSOOk0xg1bCBGVvcVlDI8l6nGRROGSk1dx46D9bj9oUeB/DxhrxaRVNORsR04mQRmTRmBi04/BWMHVsBqT8BCQGRfBVKSc7KwLn8+Quu6sHfNIeqq8xaROWDg4vkz1UxpWuNW03Tc++RL+OJ37sDu2gQCkSKYZcUwS4pgFJfAKC1DoKQc9e1Z3P77x/Ghb9yCeMaCIdzEheUAlQV5OHXKCCCTFGR1M+0YPrgS586dIoomlUWTnijXxf/78W9w40/vxqG2HFBYDqO0AoHiUuglJTD5V1YBNxjBkjWb8IFrbsCmQ3UwNQ0BbhFvfy44fZYgJZwsgsEQLjvzVJkTt4Wwbt3A7598AdfceCt21bVALyiFWVYJs7gMgcJS6Y/26uakgd/e/zSuvP5mtCVpD6bFgbK4i8rCKM6dNA7I5MTxQ/FCxDJRCHoGZbsNYQktKlG+cqOgR6lVRCOR65RniMDwZEAATzy/BK0NMZihECzNUC7VnIWI5uD3N12DJXfdjCd/8R0su/9WfPKyM+G2N8uCEEnpxVI+cNp7PSpPCu+ZrGzQtkkgk34q1lpaXIAB5UohUVxNR3sqid8/8gxQUAwjChhaDjpFGN9QTwVRdxEKBKCX98PCl1bhzv95Qoi9SNPe2s0/bbZYBwSpUknMGzsUldGoUGIqjeQpz72xBnc9+gK0Xv0QCBliSRCZnoATOz8VLQ0BzUSwsAwHaurx4J9fFHAqjqQ6q+pVJjDNuRYKIiFUlZeoazSKKEAik8MDTz4LBA0YeUHRdm0QviFYIHcwVaxFBNAqyvD8wmW4809PSht841rydc6saYAp20B+Ey4yXn/nyNHue+sWhBUBnK4+CT4RFBXgd6Il10JT4YBqc/KMhrRlYeHylUCwCK4A0IbrWGKm+sE1n8Cnzz9T5E8SlcK8fNz+jatx+qwxcFoaZaeL54e2QaGqyrbLjv1gFcOzWnB8IgfncqgoLkJBfoEHYSVw0ymx69AhIERFyEbW4IKGhDKKP92l5K3DNmzoehaIFuDR5xaJOELPlx/e0Ke8TKieCBhmGBNGjJB+OFdScr6eXPQGYOkwDHWE8BBXqESE+aY7jot/FpBfiFfeWI2MWFYUkrEdgw4ByxGKnZcfRShEZY+SBfUEDbGOBPY3x4FAvpgOxaLCDUiEA42KtNkoL6NwvMJyPPzSK7K51AoqhK3oVcLORFKhlcDWKMt6ayw9du9bt8iwPiXyjf/+FCgkqBcDKggAjwKLsqUJFaipaxQqIH58IoZrIxLScOGsyXKrI4oX3atAnmni3puuwzmf+wZ27GkRO6Ei6XQ2eP5/0c79ERz5FOqkmchyncWjBTHXmK6L3mWlmDxmOF5dsQluSYGiroL45IxMgyPC2QiSUtP0FQhgf0sGf3ptHcoLI3BtB4EAsGbnQZgRMm5LZNJx48fKACjjkuxRdNi4aTcQjgj1VqMjOh+Bk2P42RU8bgJmDslUAjbVeLFg8FrvDhGzNGQtGxmHRiqe4hK7KC/Mx+jqPqjdsw1uWYEgqVART2yTTULEp3XE0WEHIjjQksYfl6xFn8IwLNtC2NDx1s7DCIbyJR6ZDhtBVolD4Ip0/6t7UmSOwFshDheAio9uyo6lndQ3Qcm+VZsXORvIGTSgd3gLqEOzc3BofKfBVtaZxxxhaVyzQb0q8ODPbsSFn/k2GjtyCIaUuYuyrfLf+IN5GzDZp2GgrrEJre0d6FNSJAvPe8KBAL71hauwcsONSDbGYRYVefIml5iIoCOnGcjSZqy70PQgWtIWPvzVH6o2xKOlQTcDMEIRUF53Ajp+dO8fcX9JIUQiMXR05DLYVtcCLRgBbb6eKN8pk/MA56rsxkQIA0g5KI4UwlTBEW+bFIemo70jhVxGedV8NAoGTNz4mY9gzaabEIs1QivMl5gBtZ+VwkW7LC19Qtd1E7GUjY9/5UcA56Nzc+owtTAQjiorCl3sWhYmI+4Y4+Ct498O6p07YhjV425iP+/kH4cnHEwQVQ2WMlAmlcQFZ81CRb4ylpNm8EL5BJDK5XDXo8+iPZmCoRPhVMBLNpVG3z69MO+UUcKWSZ3YHk1c7KeqrAR9+pTjyRcWwjYNQUSZj+Lwf2duNrKJDsyZfArGDq6W68QQ5loY2qcSMyaPw959e7H3QANyKQs2rQOk3LRz0jgvFI3j5zENrmHCoH3XNOGaUbgMjvGCqTmfnbv34M0tNXhr20G8tX0Ptu7eA8sk0lNxFPQUaqhC+mjfZCgkBVkNlkvbagKGlcJPvnY1JgwbINcqSRjYXLMfj7+wDFokDKsjgXmTxmLMkP5iUyZH4Gtg396YMXU8ag4dxL69++Ek0nAcziVA2i1cQywyArccXHoFzCBMPQQ3EAECYWh6QK2X6AieaEfNRMb/zuLRsXDS0PuPu0mh1Dv87k1AsIAIbBhob27CjGnjMH5gf+UF4zXUdMTswsm6ePyFxahtaIMhLlQhzHACIby+dCXGDqvC6MGDZAF5Nc1VSl4FThk2EKGIiUWvrQTC+QiITMaO1WK9fXZcaAoWViaLjlQSHz7vdFEIqU74Yx7SpxeuvPgszJw4EgXFebCsLGJtbcgm0kAqLazfNYLiWSObp+xHu6jENngbSiG4aE8IGGFFTSMB6KEgzEBQNp04OYh+9HbZNhzbhp1KwUmmYedScLJZhAMmZowfgp9/+zO4fMEcWq89MqM2vCDsi69Di0TgpjNoS7bgY+cvEIuIhD8KdG0MquyFj124ALPHj0BJcREyVg6xWBuyHXHYWc7Jlo0nIZkia1P8ceAYFLNIJMQCrL5zEwl8vciutwO5G353C8IqauGtuyhYauRuNoeACVx25hyRnBR15WJSaHcQME3sqW3C68vfhBGluspF0SWEL2dbeH3Faiw4Yw4qiwvEbEbKQWuAkjgczJ0wHvsamvDm6g0wooqKHw9huQwiZQRD2LV7Dyr7VWDqiCEwJExQiRUkqCZ0DK3ug/fNnoIr3z8fZ8+ZjFlTx6M830QoZKKxNY5sRzvsTBKOHgL0kFBfkzGtDnkH//nB11xYsn6VUqM7Biya67IpOO0xuHYOIcNFRUEIMyeNx8QxQ3DW6TNx3VUfxHUfORff/PQVGDtogLBoIiE5DF/sQRD2haVCYc0A57QXlb3LMHXUCFG6aDOh3kDbLR1kQ/v3w7lzpuCqS8/CubMnYNa0iSgqiCJg2mhrbkY6mYGToRfRRJBRajQLCrEXEiH9CvWXXDtf8FDr3J3vmjn7w8cR8v79bv297xMB6YCxKTkHpWYOrz/8a4yq6gf6zw2BgkJYsvo3aw7i9Cu/iliO8Z+MiVXRR9zZmY4Yxo0eiL/e8UMMKC2By/ws8ZuTfXLldMSSKXzgSzdi4aqtMEqLlbxL+VnEB4U8xHAa09krwZ+1siiK2LjjO9fgo/PnycSF2/MbN5w3IfGEdgFLxrKw/VAdlq3ZhMUr1+OVlW+iqSkO5BchGKDIQDsrWS77JU1Udl42l2OQTiKJQH4E4wb3xsxpEzFqYBVmnjIGFfkhVFf26tLTka+kgORW/pjUDDQ8snAprrj2Fui0E1PGztjIN1O444Yv4OPvO0s14KqQb45FbCkedexkKRTLLAs7D9Vj+dpNWLhmA159Yy1a6luB/DKYEjiTlQAe3mNyswlB8gB0ZJjd9s3Qqsd2j0jw9iGT0+oGks2tcDQb58+d7smglAtUtimnTeWnpT2OZUtWAnn5AliLgHVc6EEddXsPY+Pufbj0rHkImmrhKBoI7B0N4WAAZ86bgWdfex2NjW3QgsztYhCLT+qJokRYLjURndp2AKmMg6eefwWxWBxjRw2T+Fq2Ke2KnM37GExOywZbcBDQDVQWF2Lq6KG4bMFcXHzWXJQWRbFz1060NbfAZTavZyrifeyTiqUTi6FfZQE+d/m5+NlXr8K3PnMF3j9nGqaNGoo+pUUootNERASihaeMeXIKA7jbEgkx7zFijVuBr401+8WGrYXpnaIBwUA6Z+Evry5FU7wdo4YORkm+UpZ04SK8qnOCwuHYV0A3ZU5TRg3FB8+cjUvmz0JJSRG276pBvKEZWigkCMu5CAR9hJXf0nW3vhl6dTfJsMcYNkHrBsLYvHU7Tp0zGQMqylSinAjtCinJ5macMhort25Fzc6D0MIRcd9SNKC2rYci2LVtD9JwcPaMiUIlFWtUEGN0QXEkhNEjB+OJZxYhY0tqsKKmXB8ZF+2wyq3rZxZoRgiOFsSKNZvw2MLXsK++HpFISNyvAdpEBXvVp7JxsCH2SdslkUpHWWE+Tpt6Ci5aMAsHGluxdetu6IGAOC54u5PNwM1m8NkPn48HfngdLps/B1W9yhEwTAnSFvzxRsjW1WbhiG0kbAerN2zFXX9eiN8+8EdcfO4ZCElgjQL0JiIsRQIxkXGijlgpKKasWrFB5nS4vh75kQjKelcg5M2JCM8eyNQpYskaCTYSki7KCoskhoFzqm2ow+bNO6EFTOgG7xGJXcmzahjd/q4Zsz7UQ3tDlkDYopOIY/KYaix+8Dbkm6xHxyEouympFynmrsN1OP0T1+NgYzsCeRFYTCB0dAScLBiA5Xa04eff/Byu++jFCkhsgunctJES8LqGRxevxEeu/T6ccAEMnUmIStaiD18Zu3kTXaqkuFQqyL5dOOkEkEgglBfFyCFVmDf1FIwf1AdzZ05D7+JCFImPvcvaSGigkqVJRiXoHMAnb/wV7n/sRRhlxXAtB3o6gdtvuBpfuOx8uZmuYf6nm9V/NcXbcLilHSvXvol0Jos9Te1YsWYt4ukcduxvRK6pHcNHVWHjX+5G0Nt0vPdPC5fgw9f+CHpRqRc7QJmVXIHiEDN8KIKkYOZFMWpwH5w5cwLGD+iLU2dNQVlhHooiUX8I3qcKQOf4vEhGSTv6zPd+hT889jy0kgpBVFoyCEsVx/G2JrrhZw8jrApQoTxpt7Xg6o9fhN9+/fNqf4ttVWmi1JZJ0V5auwFXXHMTWtMu9BATFKmR29C1LHKWi0AmiT/feTPOnzlR4k4l2IXERZCXEirwxVt/g//6w0vQi0qgafSN87iSXkU4kOs1LxPBhWMw+pTLbMC1LLiUNTNMg3FRUl6GPhVlmDFpBCaPHIQFUyZgWP+qI8tiO2DsA8kU4wTq2xM49crrsONAM9xUAl/89Adwx1c/JZuTKSlkwbpmIGXbeOKFV/Ds6+uwdO12xNI2OpqbVB6ZGQRoMdEpuZiws1lMGNwLbzx+F8ISvK66f3jhEnyoK8J6lJNUktkPYq7ipZYtVgRkc4KJJRWl6FMaxdxJozFxxGCcNn0CRlT365xTzuH2VhCjtsY5zb/qemza2wQjxDPM+Qp4m4OA795Xz4oE4j9Xk3LDIaxevhZFZcWYOW6k4n8epSGVpdQ5rG9vVFVX4emXXxGQmQZZuSGGdNOgsgS8tnwVzpw7Gb1LGQ9ARFPs0Gf+MyaNx59fWYbmphboXaLtSRHo1aLy5Yd9s19qeXQb85P5YIGAAZ2molAUqZyLxpYY1q99C88tWYUHnl2IJRu3IhQJY8zAaoCB0ZqKO6XcnB8KAyETzz3/CnoP6I0Hf/BVFEXDkj9FhkqLxPqd+/CRb9yC2+55GJu2H0K7ZSBLJIlGYERDQDQMLRCCGwyBWcFuLofeJXn45AcvQEDgJbvTk2FpJYjIfGQuRKdO+VuZo6g4aoEgdIoOoTBSGQuNbR1Yu2YTnlmyBg89+yKWrduAaCiC4YOrhfrTWkL5hFtZMiMCITy3cCl0JkXKGGjQ635k5VboUYRVvIUUyJGvrhHAGyvfxJTJ4zGkb4VnmxWUg+aoNOfxQwcgbeewdPEyaHmM4CJoFEJRPow1NWPr3n247Lz5CPpOfG8hCei8YBBFRXl46sVF0EL5YkdUgTGkDhpsaroOvWnKo8aEPy4qA8z5opVCFDZSOAOSimKG88WOmrZ17Np+AI89txD7G+pxxqwZINGhdYB+do61vKwU9z/+NC455zR89OxTxaPFGVLsORTrwCXX3IA1a3bAKO0FI0Lk1EQ+VCBbQmMAACAASURBVL2qwBdpj3PifrIs9CqO4LMfPB8mqblnQ/RlWLp5Hfp86SGUEEZH7MUq6NGEzdJOMnNCkUHumkSxGZGohAymbA07dh3GI88txv66RsyfNQXhAO2tamNw3BUVZXj4hcVoT1ticvROSbvd/caQd4UoPfJJLduTVRleGgwinsri49d+D6tr9isqy6RCCcymXKdku5u/eBWu+vDFsFuaAWSVh4mUkBSyqASvLXsTj720RMFKPDDqPglUAfDBc07D5PHD4SQY6keqShupSjzJi7gozjNQGNHFtFUQYZEPqvJEU+ZI+TZTBuJ40RDSBsMDTRj5+dAjJbj/gWfxg988CEi4Iz1xCuFLC/NRFAxg7viRMj6h3vJNwyMvL8XmDbsRKimRmdLyQNev+iScXNm4/E1/rm4zm5VgorLDOXq1vHyWrfyAyA9oKIoGURrSUBTSURAOgMHu0gZ3MX3ajEUWEZoWWm4P9akbJlBUDK2gAA889DhuvOM+WQcitwp8Z+BRGEUR5slwXJTE1br2BC71KMIKonBBSBXoLHA0BKNR1Da24HM3/BSN9CDRRy72VVJSJYfy/Vc3XIPpk0bDaW1RZilq52K0Zth9EP/95F89puQzJ5W3z0WP6Do+dvG5QC4lRnSxwbJARyKOH17zcbx+30+x+J6fYck9v8Tzd9+K6vJCkRWp5ImCJtZaSrye7MvwQn+JOQYSreIiPLVoCRo6Up3oQ4SiGaqqb4UkXBJP2QLZKJFk6RvrgGBYRe4Twaks0tmgfAuqcguzb4W6ioQOpFKYMnYkQlTTvRmzXTHiO1SsWvCT6z+JpffdisX33orX7vkJXrznxxhZVSLODVpiKY9zQylOo/QKemGV4sQMAgsBDqKkHI8ueh2HW+Pix1NbEDADBooLCwRh1b5kyGbPED6FEbLje/7NZ7eh4lKsX7cVn7vxp8jYjN9UeVVqz3NZHBQFDTxwy9cxeGA1cuk0LIOUUiI6RRZbu2MPNu/b701CjDRKcRINHjh33myUVXLRVKKeWAlsF8XRfIwZVI2JQ/tj/JCBmD1iMGaMGQ6k0+JsoM2YSqIDUikiBq0KjmTaitNSSiDp0IImGloT2H2oVvEFTo5qlWMLSy0pLT8KwET5w7WHAVpJZEOI4OFJ4aSf3Co56Zu2YiKUTTHDtHDB/OnSFjN+/e2pkMkALAuRoImxg6swbtggnDJ0EGYOG4gJY0bBTRMuKqNCFD4p26TifDkGGbKnDEpccSCMltYOHKqt8/pTnIsUOseqPUKZe7aIew8jrFrErpRBKVgGjJIyPPmXRbjh9gdEe6UYr/KJuLQ0dVoYOaAKP/vmF2Ey8ZDsUlBDE+25ra0dB2obFWCFiiuzjIizcDCwsgTDB/SGy7hRIjEpiAMsX/2m3JOhSuGRkHPmTgGyKclxNd0sQjbTmPlPxafSkUHNmx4jbhpZbNtCcUkhBvRlPpTwWrWgtovmeLsgrhzw3ji/vrRDU2tnZBlDKXUNls62SWwZ5kf3sXKJ0knstDTjfQtm4+zZ08Q2S++fD0txrjCSyg1i8RtrpBcSPQU94MwZEwAnBc2xxDwoZjx64TgLXYVWWlQvNAbceNTcyqKkIIzKXt5m68RXG/EES6EqBZXr4J3qOsVu+d6jCOuDt+vkFMISULrUwfrV75/A3X95WcV+CqKqq23BPAfvnzcVo0cOAZjbRQYrVIYKiSFRVISSsF1hvWxXVCvSR8yeOlHKAPG8UNhAAFt27kHOzlLyVEoNXFy8YA7OPmMG3IY2WA49Owwnzwq6wmXQNI1rZKE2wo6FoJUB2powb+po9C2gPdOLRQVQ3xLD4YZ2tMRisoBiCZbNBlxw5lwgnYDt7RS2Z4pdmBuBY6QnT0fOdZBrPIwZ00bizu9dj7BuwBHV3UdXiqTcgLbEyO7eux8Zy0vl9jbhB+fPwflnToPdUA9H+vNOeOIOkVSFMXJjmtBsE2htwunTx6GqvFTEU0nZBVDb2oF4Iq0UZ9kyPp3vFhw9qtEeRdiuPVNeov+fCyMiLSmqacIJ5+G67/8aL6/fIEhI9COlUGiooyWZRkc84cmTnpuU51m0wgsAUPvdY3EeFWYLBUxaFGXKY7/RMFZv3IEVG3d6kfkqHYwFNO675Zu48JwZcFvrkW1PI5dmjS0LFjJwrBycrIZMVkcykUKmtQlnzJuMW675tKLeRH4JbgBeWLISzfvr0RSnbKsQjHI1/1127hm4+Ly5cJsOw052wM6yXRdOzgUL5VmZNJzWBiDVgssvPRNP/tePUVVcIAoTFS/Cxadttu0VgDaCeOOt7Vi6eZe3AWkFUTG+d938LVxw3lw48UZYsWZxJjC+w865qt8M8+Y05BIJ5FobcOqpU/HTr1wtMi2VQcWtgGeXrERjXZOEUVIvkY5kdt3/ZuhVPRRL0GUupJnck0f2pfLG8JKAoSGdsbBi7QZcOP9UFOdHRI7zvUE/++8n8NQzSxGMRiSvigZxJ5dDZUkevvLJK1BewCgtogM3gmJWvkS7ZO1beHX5W9Bp4xTfvotc0kJHKoXLzpqj7pGcfAdFeRFcfu48DB1SJf2nUzEw64TadlDj+SCK8kxMnzAU13/2Q7j1619COTNW5R/NVgbiloOv/vhO1DXFEQybuPzseZ2xBcxuixgGLpg/B6XlxWhsqBWTF8caNHWU5gdRXRoVN+8tX/kMvnHVh5DP6jASTG3AdnJdapExgziIRSvWwrZsBEwN9S0t+NDZp0mKjxBfuqyjYVx6zmkYOWyA1HNIJzsQpHvXdRAwXBQyfT0/IJV5WCmGcbfl+VGJIiMHpALZns3hyz/+LRpiSehBWisI7a48s8tCd8NXzZhxudCvbmj7mE2qqRGRaBJR+VaUDRUSK4nLZvB2ayvmTBiCX3/vWkwaMQRt7R2478/P44bb/4CsXgDTYKRQDq5mwo6147wzp+CZ23/gBVV7W4GZu1RWNF2M7D+892HceMvdQB7ZtknMgGaGYHY04/6fXo+PnLsA4i7lVnKBQJd1qE8m0RrrQGtLXMxNxSUFKC0qQEV+nniCOFmpYE9JV+7T8OVf/A633/MU9IIoom4CL//hdswYNQyOm5PyRQxBVNfqSFoWDrXEUNfUIm5lVmqpKMhDYfhvSxj96uHHMHXYIMyZPEWZvkSc0bG3qQXJWAKv76zB5z7/Ndx7x834pERquSKfi6IlZFIx1qZUCk1tHWhpbZPNUlJUhLKSAlTS3u29bJrTRFGjVQK4/lf34Rd3PAQU5ot1JkiuKJu0Z5h196TI+LN926ePrJygoKirBH6ycoaqUengfjWo5BTl4/VNu3DGp7+GyWNHoq62WeRNLZInSXCSf+sqFg83i09cct6Rfc5FIcaJ2quECQ6lsbUDkbwQJk2dANvOYd/hw6htSSAXiOBLP/gtogUluHjOFBk1U1ZkJ4sMrEm2KzNe0eftYX/cFLRDUgdRsbts4Ef3PIbbH3gSKGLEmYGOmI4bf3EfnrrrR4iaAUi8rFgRiLQ2oqaJYb3K5K8r2KiLG8xjkwwM4Bf/8wSu/+YtePyB2+UyFQBPKcHFQGb/lpdiR12duHO//P3bUVJYhIvnTZdnRDiOF+SofBAoj0TkD30qunSp6Jcva+vMYVO7Crfc9zBuv/9RzJg3Fabm4GBdEw7Vx+GEmOLDAtVdmummr4ZRNeYdT5Eh2h3rTxFVCXAVWyODg6mtU9inbTSnM1yaZTWUN18L0h1qYM/uWjS2p6HnFUAqbhMyxEnKt23NuODsmfje5z4qm4AmqCOysdr1rJZCxeU7v7ob48ePwYxJp6BvaQGGDRmArVt2ImuGkc5oeObFhcjLD2HK+NFiJPftpQJ7Ufx9yn1EaiMFZ9gk2SWvP9DUiut/8Tv8/O5HoOUx6IZaviGxELt21GDb/oM4c+Yk5IVDyq0pgCLH4Wp7f0o4FShyBgymqW2L4du/vg83/+ZPAKKo6t8LZ89kYiaFEFU5m6oe6eDOvQfwp+cXI4sQ/vLiq4gU5mPi2FEI6BRV2KJnYZFNrXpVHkTOVIlqYgGRzGYNh1ra8O1f/g4/ue0eLFhwKkYO7IshVb3Qv29v1OyrRSLL3C5lpT7Wur+Txwy9akyPxMNS8C/Mj4rslM1kEKCfkzVPuNtZ9kYM4fzO6fGcMCKY4hHTlHFegMnIIJ5zYSdi6Fddiod++j1UFhWICYfEVQVzEwUUAhCRNuzZh18/+JjEuubSKTQ1tYqSd7CuAYlkDnpAFet4YeHreHXVSgRDBsrKylAUpW/eyx/jWD3q5BMQts2Qmrd21eDux57GNT+6C68ufQsoyhNZlyNVlRizEh+7ZcsuPLd4GQoKoujbrxJ5rKDy9u0tbJtwAPbXN0g9gS/c/Gu88MpK6HnF0IMRbNm5FdOnT5QkTJmzBzXes2J7DZ56fplEuWUcFy+9shovr1qHaFBDZWkx8skp+JLJeHPrJDIKvRjivbFmL37/+DO45pY78dJr6xAoKcb8Wadg7dq3EMzLQ0NTGxwzgMbaOuhMJTnC41T73fCumdM/0AOEXBRbRAMOLjpnFp5+bjnak2kYERqbAl6qMJ/wwqF4Jm3Pzklzi6IBNGGxLr8psaxuaxMqy8J45K5bceq40Z48TIS3oTmk3EwMJKWmxVPDDXc+hB//9Lc477KLJJq/uaERwbwIHn/mVVhaUHL+KY3ZTHHm45bcHAZW98PYwf0wafQoTBk/QmQLWWPPvdwYS2Lh0mXY09iKtZu3IxvLAKE8BEMhkev4nACWYmIqjC6xBapsvdWRA+w0Ro7oi2lD+2PB6aeipDAq9meZrevirR17sGLdeqzfVoPaA/WSp6bnhRFgzpUWRDabRnG+iU9d+j6cMXkMApqLLAwsWrYSjy5ahUPNGRimMsdRXMglaAa0MKRvOUYP7Y8J48dh0tgR4t0ixxe7tgY0xBNYtGQFDjbGsG7jNiTaEtCjBRK4DTsl1WwqyksQjhRKzMMjTy1CmmKDBNl0A4a+rckeQ1giopVoxRUXn4ZLz1qAL3znVjTVt0l8JssF5VhDleF2jkc9O/2TXGx6U7j4DiyWOo+3Y/Lk0bj7u/8Pk0cP9xCalEEpcnDIImnWYiiiiUNtcUz/wNU41NSKcCSA6r69xR9fX9+I9jQjvAGT5i62z3EQuVwLtpVW9WZF/qAM4pNX+uVV0LZ8Gga0aB4MslAPwPSMScAIo7c88x2rLwocKI8S6Vnlm2F+Yk9WYo7MoXORdCCcpyptCyen+ESTHB+aocFmKncyLYgoMpaktttyjx6KypzYnsO6sbQ0OwZslr5PpZQLnBYH2m45aH9u3JGSFGpAz4tA88xz3PQU13Q3jf79qqHrJuqbmiXD2TVYV8EnLJ2D75YvWmBaz1BYjp7FH7R0Gx79/U8wZdhQfONnv8VfFq1EMpYUjR2RPOhebCWRjQHZNNQzyIJJfvQKFRRH8LlLz8K3v/QplEQikPLzknKt2L9UnaH/RnQuZX34wg9uw13//RyM0lJodhoWa/trQYmYMpgW7okOlImJPCJM0INFoi7nKIeq+rPSiwTYeLKeLLBi6txQIh1KUqXCA/+dc2Ebcr8UHmZ7RGpyFN7F/cYNRi7BuzgW4pGEvsgvHrdZwIvSu3jA2IaKd2XZTlfjM8osoZqUawUPhWNxfER09sRPClSqHV7DamPM9xXRWebAfaUQlH1xjNQxqGtkGQeRTqt9FTQ9z7Iyb8mAu/lNC0y7jCPvkReBZKWTGNS7GEsfuRP9iguxdutOPPHy61i2/k1s3nkA8Y6U1H/lfqXnhxaE/GgYo0cMxLypE3HFuadi/NBBsmj07tBjxUgiWXBBNbVMhD5th08sWo7LvvQdgMXPiFzyIuKo6wSFJFHQQxRCg5jB853Kj0Jp3uq3cARo3hFuEIVjns+APfjt0MEh2Kc2g4fYpOSk6jzXpSuvF/+gakcROgZLK2JIhFW2FvahqJtSvhhjocbp9S6Dl/4FNf2jHB3/cWDeSLkpOx+VpDaDnOXg1Mi9egxcF9rO2a+CigcF73f3fWjm1J5DWO5wrmaurQ2njB2Ev97zS1QXF8rsqLjs2HsAHcmkBBV3dKQQjYSRHwkgEgpj1NABnfX4KYsJ+fOo0BF0UrIyRWFT17By03Zc+oVv4VC7JSUv1VMQmXFPMkYq3FNg7r4FfK+1rBnTLuX26ZGX2vmUvwA71oKpk0bhkV/9AIMkuMLf+ccbihdzSXQTSumRM7lctoLQAEUrdCxcuxkf/8oNONySgpFfCl0Cwvm8Ad5HFtlj0z7ehE4e/zcgoBnTLu6xlZO4TtokWS6YiXFtcYwYWo07v38dTp88TobfabD3kIpaPwfIQBDaEBUXUjyP8h2pq5L3jlDLO/70JL5z232IJR3JUuBTVYjSKlSQRJ6R/GStR4JUjoadMMKjD3X+Un36PxkXwJfaRP5R9Xn0uX++zaNbOfmrKwQMvd+oHrHDslOlgCphjyYsMxxBfUMMjzy3CG2JDgwf3B8l+UxjoSzlacPiXCCyKsWG7SiWrhCUcqpgP4B123bh6h/+Gr+673FktCCMSEQehszaADYfqyQFLRjT6lFnQXgfHArxFPX1BEXvlFJQpGPPlapGQVyNRiNSQNivgChnqMlrGqJ5UUkhkcAUT/rlqBUiK8RXTiS/765jUfPzj5z8VBDQjKk9R2EV46YEGpQIeUMcBzqsnAMk2tGrqgIfvuBMXHH2aZgwYiBCTNf4B69kKokVG7bhD0+9iCdeXo6OeApaUXGntm26dE7YYq6igibmKy/S1iPXR/fg446PL4wpCAZgmgFksxllVpOd5yIQCKKQkffQ0NHRgXQ6LTlSDP2LRCLIy8sTHz2LcxBplSDiwjRNBIO0pWZh00zXqQwePZSTv/4WApox5RJ/if727Dt8hAtGMwwJHD0p5Msqgl+St2Fl00AygXBBFBPHDMX4oVWYOHY0Rg0bIKVQFffVkEg7WP3WZmzfcwAbt23H5l37YKVsKRFkmvSEMYSFD+/gI5RI7RgWyAowOgIukw2pbdPsc/TUfRYuVK/TEK6hsLAQgYCJZCqFjo6kWB8IGlL3PFJRTUdHokPC+ET4cB15Hlg0GpW6qkk+rE7xBemxsKAQwVBQEJyIzpc/Eo7hWOLFO7wUJ2xzPYqwhJIiXMq2J78l9ds/o8wsLJDmPyCOD8DS+Ne5pN7DiJkZSnMAU7fDTIGmrVQtu7Iyend4cq5nVBXaSoQVeVpGIygm94aCptT7yrGeUBcWXpAXQSAYREcqgVRaPQJPcrqkNhjHRpM6RRhNwvtIMRlDwHrDLL4mZ2RsNG/ZyI9GxPKRSmfkiYqEiW+jDQYD8igk2orlPp/SHwvF3oNWjh5H2GPB/XjHiH4eDnpyn7qSHFTk3OPd2HmcyploV50IqE6RiqnjpMREvpBpoKgwX+hgPJ6QKtaSRiNGehWJxQAaqYLNAB1mcdN7Z7EtVpKhMd9BSRFlcB3Nra3iaiXysmgdA9Yl6Y/ILOGOBhybfSt7Jm3K4UgeCiIq/rS9I46cVNv4exjbOdH3zJd/LCT+H4JCKI+/Xv+WnOcrT9KSx3j59EKFpszJFy8PcZdPRBQE0QWRhKDTiO5Y4n2lV94wgrAdJvkZUlyNEVrb9+xBO9NFoIuDY9SQISKSbtlho6m1XbhDyNAwsKqP2I73Ha5DJucg581H6rHqKsaAAULCI2SnKtsHtwgFBm7cfwsE/4fr1x1dv6sR9p2ZsKx+Z1MUG1glm1SQj3oXrsrwQ9tCLN4h+VoMBCGesJjHgN69pQrKvoO1SPN62IiGQlIJkGJFOGSinc+WpSvUceDkVBE11tJi0hM3Qn5+FP0qeousG4+ncLiZkWLkHjbyC8Kwcll5iJyVzSJuxcQERze25J0pdIUuT03kzvIwV1iPv5s7p/cf/+U/HGE9kcAXCByych0FBawgoyPekYRDlu4tc44ZtcQk1ut3ciiORjGoTz+EgiEkEinsb2iUyn2xZBo79x+UNlriCck9sy1HUm3e2rYdmqEhyaAUJbsglkrjcEurICyfp0ARwrUtlBUVYOSQQcikc9i8YycyrL4tweAKKcWc5tqi8OXn54uFgkqaxDUwBuE9iLT/4QhLkUBho2KsjATTJd+KWCrBzBIp7yJkmigsLUFHIiGPYTdZXzWbRXMsjnAwhHhHu+Cfa+WQsx2Q4rKuLMUCPsSjpDyKltYYOtKMhCJYXZQW5SGdzSCZzGLrnn0SY8ANohsq65XtRg3W39IloY/BPeyEpZPEWqAr+zPLcXI8fEK5VAgnokrmLdXL99bL0PqM7DHHQc+DlmhKLZ6fio7SRsqM1Fw2C0usASpKalB1FYYM6C/I2dLcKtdnLQcNra1oYAn1bE5su0Oq+6FvZS/EOtolNUbPZXHajKmYPfUUqbp94EAdH+CNoQOrce5ps1BVUYF9B2phWao8Ul5UWRyYgZvOZNCeSKG+sRHtjMGlCOE6qCgvRXW/vuDDSLI5SyoLsQYY7bYWkdqbz9HCzhHoqs155Pd/0jeTBpkT/sWVkzA9hZTKj8V5iTlBHjFP9srQQ/5lclkpbKEZAQlnZCasm0vDtTKdSExDf8AMCNtlWjetCgUF+Zg1dSLyWR9W07Fpy3YpGhcM6DANEwGxHMjjtlFSVIBIKAA7P18qdaesFEpL83Hq7OnymKTXlq1AY3MbalkvTNpnETg+gcZAdZ8+KCnMExl7x+49EqhDpwQFbj/FRQyAXTx1SkU7gsIKEif8yv7NBP4jRIJjUhTXRSgUFI+TlcsgkWQhOEWbWKozkhdFkk+CETupjpraBjS0J5BKppCzc4hEAjh99nRhxUuWr0ZbPAE76yIeb4drZRGPtUhYH03By9a9hZrDddi//yDLI4gYsm3LLripDJrb42iXvk0URIvQu6RYZOT8cBiNstFcFBYXIMBS8G30iOnyVBdTy6GtjX2wODNDZW2pQshnf4mpDhryolFB8EQiKfKtKqTsQ4ON/+e9NHNyz7lmuwd8PlU5mqaQtUYjUeTxuVV2FvGODlVsz3YwdGB/9O1dgdraOrBKCsywYrWs4BJUVfn69e6FS84+XRDm5dfXYtvOvUJlo2EdgVAQsXg7AqaOwvx8tMRYioi7wURlZSkK8yI4sKcO6RzHlmOwv2QxsM7d8EF9Renava9e2H15cQhnncHnNYTw2vLV2HOwFiZlVT4/kZkPRhCwLYSCBqLhEOLtHZKiaZhBFBcViJjS3p6Qat0qrqJ7oPxuadXQ+/Zc8EtPTpqOBabTUJOmrGhRA2e0lwv0q+wj7D2ZSYmBn7bQfpWlqK7uh3QiCdtykUtT8QHqGpuxY+9eobqF0QAcO4d2PuXaCGH+vFn4wLlniNK1e/dekT0/e8X7MX/6KahvacOhg3Wo7FuJKy48B1W9S7Bn337UN8fQVN8Em8XUdKCgKIpxw4YgZBio2X8Ire1JScyUZ2bxoUss4KwDo4cNQ/+qvrD5XC1Sed7sMmUoh0wmq1iHJ6f3JJx7uq//CJFAAU3VU/V98aQ2/J5iFULbEtmVDyCmrFuzfz9aYi1ojLUKFSsIG1gwYwpKS4qxfH0+3lj3JlgKbjmLqrG6oOliUL9KfPiiC+U5r3948nm0tCUxuLo/qip7obpvP7gszSkhkCEYWgguy3dbCYwe0h9zx41CPNkfm7bsxp59tRgyaIAoZas3bEFDYzteWrJaymfuO1Av1Lcgz8SYU0ahsbEVew7WQzMNcT3T/WxyDuLO1pCmSEMdxEvH9uGgPo/mOD2NWN3VH83X3dX2O9ju8cfYeYYOARW1IlW16RBgvCzjaQsLqMAAyVRGaggkUmm0tzaxLhK0QERqZjW1xmEGw2iJt4uMGImY6D94JOobGtDa1IDS4lJU9emLbDaBXmVFaK5rwHPPP4vDB8fizW37xBrRdGA/fv/okygrLcKmHVsZx4htNTVYs3U7GltacLipVWoEXH7+fAyrrkZeuAB/fm4R9u2tVbETrEjj5jB+1BhMGz8SdXXNONzYilQmg+01uyQDo62tDVJ0WKGqKH/kJlJzl2spwT4EPRXO4y3BcU8c74Z3zXFD6zPsJoW0XPp369/x4UXEJNtnSkxhQQHC4bCE8inzj42iwgKMHj4cvUpKEWuLIZtl8IqDqqq+KMiLit2VJYb21TZh596DOFRfJ1r7uafNxUcuPAd9epXira3bUN8WRzKdxYat27Fh6w44ho5sOolNm3cg1p7C0MF9MWfqeOzauxcHdu9BWXEJJowbhz0HDmH5urewefNW2KkM3ICOEYP6Ipqfj3Vbd2L/3t3oVVmOiZPGixuYylwobKKivBz7axvlfiYBZtMpJBjZ5XEJzjkkc1VVZ5jXxeCdgrw8CXHMMdHyuC+VA/buXe/j46GhE2Ep2ImJpMuF/rGunz5CH+sYz3U97n/373n7ef+4f13XT/+cf4+QCp8qdBmjhI6QitLdaiAaCkuqdTabEZ8/uWV+XgFYp4olklkgjdUG+/crx9mnz8XA6gGob6iTVGUGYPM5WowdIDkePXQYhg6qxqG6BmzcvgOZ9g7U1OzB/j0H4Zo6Pn3FBfj8VVcilsjiwMHd+P51X8QH33cuwpEwVq5dj2s//1l8/oqLYOoW1qzZgP5DhmLu7CloqK/Fuk1bsXrTFnk4Mo22Hzj/LFx8+ix5JtjqjVvkaYo1ew9iz4H9yrKh6SguKZZna9EbxxyMfpW9MHroAFHEWltbREyIhIOIhFhjAchmVZUwhbNHw0wQ9e/B2z/XdR3878c65x/jp39d18/jnfePd73W/36sc1L2VIT3Y2xF9n281/HOHe+4386xzh/rmH89P//mPBH36IM8wkBoWgLo089kbbi6Cc1w0NLaii27yCktxFNJZidKarjm5kRckLqquTQmTRyHBTOn4o03N2PpG6vx8vIV2LH/IPYdRqKwDAAABedJREFUPIhU0sI5Z8zDmXNn4umXl2DFmlWYPm4sThlcjZmTx+H11xejvr4V7YMyqG9sVmarvLBUk2PNBSOo4/NXXoIzpo7Fw30rcNtd/4NU0oEZVM+arWtrRTyTRl1DgxRtY4xBnNFeBgtUAIMH98G8WVORiHfghcXLEG9vR15+GJFwSILEKRIwyiGTyYiTRNmZKdv6m5yfPtwIOz8oqCugve9Hg/ZvLzjW+WMd63rn8c4f7zjvlXP++I+MzVRlgbq2/m78ztF3nd2RtBiSIFkuTQPjWImYZJcSK6sqHqGhJQYp8MqEsEBInqnw7MLFcLMO6tuS0IwIJo0cgfGDB8BydKxY+xY62tqwj09i4QMsbBfz587E/OkTEQqEsHz5CvzpqZewr7YFj/zlRdr98cu7H8BTCxdjy45dcJI5/OZ39+PZxQOxYdsOqW6TiMfFq9XY0oFwNB9f/NSH0bd3Ge78nyfw8quvY/OO7WhqiQuFnzP1FEwcMw6Ll6/Exk1bEQ0FkBfQ4dLuGgjIhjh48BBy6Sxa4nHYjD4ziPy2ZB1LbYZOZO26nj7ieilCXU+dIN8NrXL4TcJ3PP/0u/W7ZCp0BSrxV4z0qjQEDZKMLmUtg14VpSgtKUI6xerWapEGVFViyIC+aG9vR87WEG9LSLkkmCFWKkaCz03IWXhj/QYc2n8Q06dOxA+u+wLGjxiKlevXCyKYwRCeeWGRmJ/2bNuJJa+vQWsig8GDqyR8oGbLDvTr3x/Tp07Glpo92Lt1O3JGAE7awqatO7BoxXosWbUBA/r3wbWfuARDBlVj+/46bFu9VkqwW6wCY+q4/JwFGD9iOLRwCGs3bkdbPI7WWBw7dh1AI59hC5rdLLTGYlJpm1VYyGH4PAXx5vkFQJndQfswX/6e7/z0Ir/e5ev+dnw0jD7DbpK6SNSo37V/ogwL3Mn++CICh4IBRPhcKiGofDqNjTw+Z3b4UPQuK5bglVhrO4qLinD2vBkYM2wQOpJpHD7QgMLSYlx24QJMGDkY+2prcai2EevXb0TdoUNSl2Lu3Fk4b940hMMRLF61DhvXb8bLry4XW+qAYdX4+Ec+gI5MGlV9SvFfN30d86ZPRc3hWnzzC1fhU5ddiAN1dQgX5OHWb30VxXlRrFi1Hq0tbSLndyTakHMs7KtvwzNPP4fhIwfja1d/BgX5Bdi+ZYt4r4KRfCxeuQYNDc2wc1k0NTQjlrJF52I8blFxCbI5VSmG5T7DoSAYp6CUTZWhQUcFo9OEC3mPROW2lgTPd+1a/308NCWETVDg3f1Gbi6xq14hNtYsjUbDUkGaGy3GIGrNRS6XQyKRgGOFQA8Q7bHpFIsRxxGJhtDWngRyWQzq2wtzxo+Wh1Rs3LgF6w83Ye7smThnwVz8ddEreOb55xlEhcP1TTh8sBa9B/TD8MFDsPbNNfjope/DJy96HyaMHIpHn/oLSgrzpX4rN4vLYsV8/qqVwYXzT8MZUyciEjCx+s038amPXoGG5gbcft8f8ccHnwBCET4xGVd/+kOYN30CysvK8Pyri7HkjdVYunaz2JGLC4swafwI1DU0YsuuQyKWnjp7Bvr2rcLKtRuwccNGhCMRjBo+ROTZmr37RFGk1SQ/L08yeumCTrGelsixJLYe1X13L/kxR2d21tc55ul3y0Gfj6nxSHkf14VlsWynBsfOyLNd6cnK2g4279glYXhZKytlzdO5LF5eskyyX9uTWRh5EdH4Fy5bJY/v3L3vgDyB8KzTZuD0qaNRVGzg2rfexIMPPwlI4TYd1338Ulx63lm495GnsXfDVrTOOw279x7GoqXr8DXrN4hn0/JA4217D6J3WQm27arB3r2HEYaBZ5cuxqgxwzF/5iloa23Dsy8sQZ/ZZ6CtI45VK5fh0aeflQLBr61ag1Qmh36DhqO9NYZ4rBFTJ47ERWfPQV19M2of/LMojuGwgaCbRgnjepkzIcmcgME0HUFGmrpISfnHMEqyf4YuerK/n+b+blne442jsxTSkQv+P7/dNM+Yf1BUAAAAAElFTkSuQmCC;" parent="1" vertex="1">
          <mxGeometry x="812" y="376" width="76.44" height="40" as="geometry" />
        </mxCell>
        <mxCell id="MaFsSqHFL_aDIbuKhQJ8-16" value="PowerBI" style="shape=image;imageAspect=0;aspect=fixed;verticalLabelPosition=bottom;verticalAlign=top;labelBackgroundColor=#ffffff;image=data:image/png,iVBORw0KGgoAAAANSUhEUgAAAF4AAABQCAYAAACQ2MIeAAAJsElEQVR4Xu2ceYwURRSHf927s7vjzJ6woCCSGBKPBCHgBQYMRpCIBxABD0CUQ+KFEgkGWUMEiQSD4pEgSDzAkwioYPBAokbRoAmERAQJEVYUhL1mZ9ljdmfMq57qqenpma6ec5nt+mcz29V1fPXqvVevqlrx7a0OwUlZJ6A0/djHAZ917IDiSHwOqANwJD433B3wOeLugHfA54pAjup1dLwDPkcEclStI/G5Bq8EFdaEkBq7njJ7Rv+jvPxvoZqjHmS52s6gVmEqvNj7qaxcFTUEj0tFWyCE0/XhFmUZRLar61ulosSlsD7zQUimDUmBJ+mmyvcdCmDDtlZs3NoBtYdIfDAIzJ5chLmT3LjmChf87clFXBj4RNPGOJoEvatTwfwVPnz4dQeoIT0xkaDdPbYI65aWoaAwvvRzVczVE1fltiSeoJNKGTqlEf62UBT0niTxXNCoz94SBfu3VIBUkB3Vo/h+6BsSjaQ4QmZGZPjdDThaG2SqhaSd/j5xTwnGXV+M4pL8lv32NuCrn9vx8gdtet+JwaABKn77sDLG6HJNwp0WUbNIS7y3WMFzb7Zg+fpWVgFVeMOQQmxaWYqBfQuYsekJiWzb8dNdmLGkGT8e6NRtW808N56d45HW+TE63kziSYd1dSioGHNWVy80ygc+1kaZdL7RFY0a3bDryQcmmWdm0qPry7ArLEqW8Zn42+w9O+3nrvOQqdrsp0Qzv3FPbxQUhRgPUYuY9ptUjZWkEvhP93Rg+tJmfYr99E45Bg8q1KFblZFvz4nJwaOdGHl/k85k84pS3DmmSIoJ0/FWUDxuYNFLfqx5r41lJWk/vK0KLZrW6bGJuFw2qV6X+oX3lWD1k14pLtLgJzzWhF17Awwy+bHrl5RJVZDPo0Lg5630sXUMpfEjXNj5arkUF2nwo2c3MmNCiY3sglK0JLl4yJfB8BQrWLS2WdcE5Gx8v7HCAW81wKSnSwq0JXcyQuSAtyJs8pw7DIdPdMLrUjHq2kIWArBjtxzwdsEHgWHT63HsZHS8g/visvBzA17Settlkun8BGtGTROLM4mJr8K/WFuOUVfLucm5AX++Gtcg9IWgMb5E8CeOceGT1XKeiQNecpqQXv/r7yAGT2swfYPAX3qxij+3y61RHPCS4Clb7amuhODtLA4d8JLgZSTeAS8J0242KYn/pJeUX+9IvA36UuAl41A0g2pea3FWrlb8HVVjRSiDz6UkPhVVs6FSSk3JBcmKFYye25D1IBmPpRw/04ne3gJ43IpUpxKNmwPeQqrJcH39SwceXtWMv/7RlvZ33OjCmqe86F1WkPSckAIvqeNNjau0xH8nsxESR+JbhT0UCvIZj3qY/Y8js3j20/4Abl2g7e4Yk29PNVAYiq3PajhUST+eVA31zaKNccGLXIxtCpep+NIF3qrTNp7TvqVnRB17w+zYCAtmPUg7PZabZzG11v4nsYDi4K1mpdskHk8SL9Gu7gdeQiqHXV6Afe/Sst4meImy2QKqR4KnZX0apTJKaPMSfAr6PMo2pApHPMNpYnOkjKtR4uP0jbysmK0/UdUkYNIt3UlpOIY9XzJ25Hq2ngMG9DF3P5Mt20zddw+vxobxTJg1GYlXgbO+Lix80Y/PvtNOQlBa9YgHC2dcELEFyZSdoLGWEp/g3fPSuEYZwPB0vvyuOpyqiz1IG+UBOeATiIJdOCqw5cs2zF3pjymUb+cd/bySrXzJL5dWNRIeU35JvE2vhjo/74WmhJcjaB915FUuNjDp9JhSA7/nwogzzO8/8UOg9DuowOOBHqvhx7LZgaaWsJCF8+kiJ/62+8wmHOr8nOU+vPV5e9xbKUmBj9c3YV4RF1Ovht616HfudHwCV8uOVGYMfL6pGgL1x/FO/NcYxMB+KgZWF8asQB3w4WlFsEzDwhJSIVq8+oYQJj/diP1HuvR/022SZfO9kYCXTQMoLfFDXawOO4Nq5SGnpuOzFSQLKigbcyZiBgxXeZjNCA+kHTjS4Ludcc0GeAmX79jWXqiq1G6W9Azw3KsRb3STVyN4OKJXQ2D0Y9rceotzUvSIBFUl7XkEFdSe7bQ++0LxlBYwj0u6bDuDauybgQnxiatq4r0rlKH4CLzR9RFBhiuIq+OF+0dR5QhlZhJOxsomtWfRt7jupPhuHNdaA28V8PeAHfR8/0vh5sPaiogfL/G+tFR2J4mX6NeEBY36TZl7bynCpuXlUlwiEm9WSXhq0JRas+kcFr/eol+0aviqGorLZMy4lNDWHFc1xXKrSzqlS8nqfKN42osihDKDyk8AS4UMxD1XY2hZUBehgILKcWd0JhSUe2iq23xLUlRV9BEJma0/gvH7iUDUDbdF091Y+Wic7TdaHLkiLfZeoGDusuaEy/rdb5Rj+GBtE7v2VBCDJzeayhu/0HtkZyX850LIZNmsAQFyv2KbQsK45DU/Vm9ujboJeeUlWmjCKkmpGirEaGApdLBhiRez7nBrbqCoD0na8wl8+B4vgxm2eW9/1soCc3wznt1/ok0QHmqwIB8N3uRbNTpQNaS7ebwy/iGFx6e7ETXSeSzxNPNf2dwa9QEN4nDwo0q2+SLyimEveHzSEs+l/qNv2vSLxrxg/l2DftUK/C3AlPEubFhWylQBpUyqg2yUvWVXAF4P8M+ZkP4NB7HvdLF42s0l0tJO79oCb4RPv3nMWzz/Qvdg8wk8v8fKNI2w4qbfyUBPCjzXcxR3Wf5uM97aHn2XiJ7fP6EYG5/35oXEz37Gj3d2tsdojQcmFqFmZqm22hbtm5VVDT+3LfFiuWRw/T5g76EOnDzdhfomTbX0v0jFbTdFrHs21EGir0Ql6zFRX3Z8G8DJfzW3pqpcQf++BRhxRRG8ZbClWozjkRL4uIOboldzti6EQbfHv6dEB5p+/bgiKXfSTtmsf+ROcq8m0QpfUtJ5tsyApwYWCc6vAmzf3YFZNRb7olVakAwKUHZ9vabVTL51pt9HDQRZ3oyVTQ3oIKUebpdNuImyZwZ8nBqHzaxjl3pFQ0xg2YrvLlrxRTq4Y2+s98QHgkUyy6NHJJNlp5G3XlRWwYe6gCfW+nRjRQOwcakXU8aWxEgV2Q9yXeev8LPvn1Ead50L6xaXxUCnZ5ks+7wHTx3gBrnBH9QAWulNNQTyoCgN6KcmNGiZLDvd8LMq8TGNJzOQqe9VZrLsNIyC4tttHRZOQz1OEQYCuZX4HjwcDvgcDX4EfLI6MdF72X6WI4i2qg0zcSTeFrX0ZXaMa/pY2irJAW8LV/oyO+DTx9JWSQ54W7jSl1lp+sZZQKUPp3xJjsTLs0przv8B0ArnzthYUrYAAAAASUVORK5CYII=;" parent="1" vertex="1">
          <mxGeometry x="722" y="376" width="58.71" height="50" as="geometry" />
        </mxCell>
        <mxCell id="QY_VV6FcXAard618ne-8-16" style="edgeStyle=none;rounded=0;orthogonalLoop=1;jettySize=auto;html=1;entryX=0;entryY=0.5;entryDx=0;entryDy=0;exitX=1;exitY=0.5;exitDx=0;exitDy=0;" parent="1" source="COK3GCsZX3T8CLw1UcPQ-27" target="QY_VV6FcXAard618ne-8-15" edge="1">
          <mxGeometry relative="1" as="geometry">
            <mxPoint x="950" y="-30" as="sourcePoint" />
          </mxGeometry>
        </mxCell>
        <mxCell id="QY_VV6FcXAard618ne-8-18" value="BRO error &lt;br&gt;reports" style="text;html=1;align=center;verticalAlign=middle;resizable=0;points=[];labelBackgroundColor=#ffffff;fontSize=9;" parent="QY_VV6FcXAard618ne-8-16" vertex="1" connectable="0">
          <mxGeometry x="-0.4077" y="2" relative="1" as="geometry">
            <mxPoint x="10" as="offset" />
          </mxGeometry>
        </mxCell>
        <mxCell id="MaFsSqHFL_aDIbuKhQJ8-29" value="Paper application&#xa;form" style="shape=image;imageAspect=0;aspect=fixed;verticalLabelPosition=bottom;verticalAlign=top;labelBackgroundColor=#ffffff;fontSize=12;image=https://image.flaticon.com/icons/svg/1467/1467549.svg;" parent="1" vertex="1">
          <mxGeometry x="39.389999999999986" y="462" width="50" height="50" as="geometry" />
        </mxCell>
        <mxCell id="MaFsSqHFL_aDIbuKhQJ8-31" value="1" style="ellipse;whiteSpace=wrap;html=1;aspect=fixed;strokeWidth=2;fontFamily=Tahoma;spacingBottom=4;spacingRight=2;strokeColor=#d3d3d3;labelBackgroundColor=#ffffff;fillColor=none;" parent="1" vertex="1">
          <mxGeometry x="7.105427357601002e-15" y="362" width="20" height="20" as="geometry" />
        </mxCell>
        <mxCell id="MaFsSqHFL_aDIbuKhQJ8-33" value="3" style="ellipse;whiteSpace=wrap;html=1;aspect=fixed;strokeWidth=2;fontFamily=Tahoma;spacingBottom=4;spacingRight=2;strokeColor=#d3d3d3;labelBackgroundColor=#ffffff;fillColor=none;" parent="1" vertex="1">
          <mxGeometry x="662.91" y="110" width="20" height="20" as="geometry" />
        </mxCell>
        <mxCell id="MaFsSqHFL_aDIbuKhQJ8-34" value="4" style="ellipse;whiteSpace=wrap;html=1;aspect=fixed;strokeWidth=2;fontFamily=Tahoma;spacingBottom=4;spacingRight=2;strokeColor=#d3d3d3;labelBackgroundColor=#ffffff;fillColor=none;" parent="1" vertex="1">
          <mxGeometry x="472.99999999999994" y="181" width="20" height="20" as="geometry" />
        </mxCell>
        <mxCell id="MaFsSqHFL_aDIbuKhQJ8-35" value="5" style="ellipse;whiteSpace=wrap;html=1;aspect=fixed;strokeWidth=2;fontFamily=Tahoma;spacingBottom=4;spacingRight=2;strokeColor=#d3d3d3;labelBackgroundColor=#ffffff;fillColor=none;" parent="1" vertex="1">
          <mxGeometry x="622.0000000000001" y="210" width="20" height="20" as="geometry" />
        </mxCell>
        <mxCell id="MaFsSqHFL_aDIbuKhQJ8-37" value="6" style="ellipse;whiteSpace=wrap;html=1;aspect=fixed;strokeWidth=2;fontFamily=Tahoma;spacingBottom=4;spacingRight=2;strokeColor=#d3d3d3;labelBackgroundColor=#ffffff;fillColor=none;" parent="1" vertex="1">
          <mxGeometry x="610" y="356" width="20" height="20" as="geometry" />
        </mxCell>
        <mxCell id="QY_VV6FcXAard618ne-8-1" value="Know-it" style="shape=image;imageAspect=0;aspect=fixed;verticalLabelPosition=bottom;verticalAlign=top;image=data:image/png,iVBORw0KGgoAAAANSUhEUgAAAGAAAABZCAYAAADB7SFdAAALvklEQVR4Xu1dT1AUVxr/RmHAZGZUQBMZdgViliFVkRwUt8rsQcAqNxcgqcRDBLKH3YNRr6vmrJIzqJdslQFzWLZqgRyym1r+bNXGg5CkSrZKwGwAIwzrZkYTBgh/NpD6vZ6e6e7pv9OvZ4bQr2pqLOnpfu977/v/+772HOq8v7m5SeTxEInftElEHiLNb0oOvcuUt2G/SvxA8kDlBDY3yePxECYm+6ZN8pCHNhXf2hOVzIAtUL5Olceq00GyXqN/ptBDbR3xdYHgnkMd97Gq1DWoPEmb2AqiSHfTaJUmiSwSXZcAiglamYY+YeU3TjkEBkSW7aqCHh6XA5KcrykJjI69nkRwOcCc2HE5QCEvlDpgd2Ee1VX46GSFj/zenXQs+Ayj2VxsneYW1ulueJkGp2M0HllVV16uDtDWgHqK1l+wg9oOF1Hb4b0UKNhpKAxG5pap84sI3Z1d1hO9CYMjYXhYUC7bRgeEir3U3VROgYIdhoRXXnDr3hO6dudx0uxyOcAaBzSHAnT5+PNpEV/cjIHpRbo4GKbF9Y2UE5+icF0OSPoF1cVe6j9dafnUq/3grxPf06WhcFwTm1PIKf6QhZlseT/A5/XQcMuLtk6+kl5X7zymD+891dUJrhUUt4LO1+6j80dLLJw540sXVjeo7vZ/KLa6YU0xi4608SMSV2xpDigLeGmo5QULyzV/aedohDo/j2jqApcDPB5mar736nPmqWrhytnYOtV3f+1ygNoRFP2AG6/9ghoqfBbIau3Spp5p5qipxYhcDvB46MHZkDWKWrz66mePqevfTw1N0m1rBT14t9oiSa1dDh3QMRJxOUDIM8jzAcGAl4YdUsDiNhkp4m0fDXU5IB4tyFZGzNUBUi9CRbw6nRH7+HQlhUoKrAl2C1e7VhCIpZMTdtIPiK1t0JEPHrh+gJ4f4KQn3Iug3PC86wkboSLa60vp9dBuC4LF+FKc/saeaZY5s5So326xIHjEpf48gi7we60nYbS2Qs/+dzNiKkeyodxHN14rMz7aJq4YCS9TS99DNx+g5/+r5YSREWuvKzVBYu1LJqKrdKb3oZsRk4lSC8i45qoAvfeb59MSR1C6Vz77L8XW8HQxHepmxFRRUHqoCOiEC0f3UbNJxQyYSsdohLABlhSuLq+5yDiq3ldItaXP0BuhPSnOGqycgakYDUzjs+jignCiTcd8bWBDYSmB+Fr5QCvTcPMBBsg4JqZcdLQWENxFR6dA6SUQdK7o6GAgnxoq/Ewml/nzE5wrYjXHIysEFII4oBRnF9bY/+Fvo/PL8V3MrfqAskA+VRUXUHVJIZt60J/PPsxzVxnwqrG2rrEnMjHoKCoi4N1Bw632MTtIkI9/u0Lj0VUanFqgiehashhDQ8zwrA8A1LGu3M8AviCyeHjScTouDc1T34OF1GISJzjglf276C9vlqczT93fYENgxfROfEfj0TWmwHlXyCDjVl/uo9dDe6iaQ8gbpx/EB1dfOv4cvbSvkBDudpQDcFJuNx3kvgHSG2IzYMPfuhelxTWce3lZkgVznYnexl/tpndqirgQXXz29c+jbH67C/Ko41SQ3Rshj7aPH6VwgpE1aKlCpnKPlz592xnglBphgetEHhc6xIoV5Pd6qK2mmMHa00FWa20yiAxkBUIc8Ek6T5Ul7o+AH+bqKAdAB3zx+ypHOUBrIzpGv6Vw7P+6z07WEvAlPHwNPL9r7Dvm5LW+XESXX90vm8u7f5+loZklZzkAIZUv/1CVVmyGx67dnVumD8eeMI9XWiQRKvFS2+Fi7nkEzHkQEPehcMLSuXrigOpz6m9/zawiRzkAN0eYGGZotgfM2oW1H2WmMM85JU/9U5ZHhVjr/G0ZHSsVSqOkA9ce/RPSnamltVx1ADjgnVeKHMNv8iSgnXtNRFYJIgW2Po40Qh5djQc1FTl0Q2v/N+yRjnNAbQYsITvEs/vb3kkUdMwnbmNEfFwIqwg6IiMcgC3+ymEIoV0ipvv7i3CqJr9PSI1QcQFdqys1NGHBLdAVGeEApDc+aj7IzLCfy4AMR9oS5qU4QHyIHTNmbMNHU0lTWeFEctcB4IALDlSxZGszQfSzn8xSeHE9QStf/g7qbtKW+dK5wvKBBSQOx3UAOOBkhZ9b0jxbhMdzpTljcR5mZL50zhA95z6dy0wsSMSMYpJfZsEh47lZULZX/vVYlrC3cvLFuaAAsGsMpqowMsIBeMhw6yEhXLsFB4h/cXBe3pqGiHrfrDBUuMrlIgA3+UQSzc2EDsAk3ncAwZaJvVQjPsBZ1+rUPVyjOYVuTsguyRgHAKWATdhKQ4v4bTV76fJx68WBo+EfqKX/oXro3Il8QKJugIixKiCEW2VoEb+h0kfXT6WHwhMjoFIaZIwDYA1BEfPEcDq1mVrExyEya+urza2t/xHdDS9lhwMwoZs5EpjT2zgkdxDNFDRuEhkHB0svvmPmMCAAJ4PFZNIKAgfkukOmdfKxF0im2KlJhg/R3DMjZOyy1TOOR4oSMEKYs7xrAhInX7TMJRzQ+vJeumyzIh+2P3wA5cioDsDD7FY2Iq4PWxq4mjeq91BbTZFtvSJA0r9RheOU+vKp760KUzEePTHEMmDTS9nlAEwQlpBdlAGQBY09MwwN4S/YyZLo+KSj4BHLP9M3k0RFKzgAxLc7X6xbzIBlnQPAyiCW3QFRhKS2iIJA36ALtftZAw+zQ4ztxNY3VJu0nq8toXNH7LfCQW4a7W8SadFs6QAQhmdg7kzfQxoJ/yDDBaFwDwlwozQoqwP78xTNscR9auvfUEkh9b9VYXYvda9DAA4iSG1kXAeU+vPpn62HuCwM+uBE91eqeKCjpbuY560WfwLxsXksnq/sVhw3PQfOvMAtf3ztzv8YOCAnOIB3YO4fOF2fPFI17SCWfldTTOckHbUE4s/QRGRNs9k1OnBJf2P3tMBokCZvsuYJi+zGOzAH8NMt6QmTNOzGYsEFsJbwjVwsFC8bKr2jeVk9UiJX35yUI/ayqQOwZhCDZ6cr0TRNIOLEEG8a9QHwdu2Ab5XcIkVA5IQOgMh9CQruNB8FJy4KICxAPexgQ+0E2rTEFAJw10ejucUB2AQnkBJX0OFqDB2u4u6+BQ5Af+m+0xXcFK+4IVIERM5wAKyB282/5I6UgChq7JlimFCr9QHnj/BVvCKxEYBLQW1nWwc4GZhD1eNZ0SoyyQGAEQ5xbv6KDVAiIHKKA2qDuxyrHUBch8XdteqFRErErSBeHq+SwL2TC6wNck52T3cSui72/DRTJRn0e7kE29RONyCLCHHrjYx7woLjKVRJ8gjMaS0OSZXeiQV9H8pD1H7igOmqeqsOWVPPDE1EV3KTA7DzvAJzaoQBF9R1SwJgMudMOAZBfx4NtfAJiyjnYEb+q/iChskarm9RcsIfkBIC4FkkWrRGe/0Baq7i2+xJfJYgfsCBKq/SygUrSJR9TqYpkTeAGFB7jxhkv1ONv7WyXzllBUmJghAy8q0oehY+/DohwiJCOEA5eAbcEGgTXgy0xGDnyhB3TlpB2i0thQgx4jHJDUl/UyCC/qgwBe3Y/dhMvPhnPLpCswvrNBldTX2joAVtnVUrSBofN8LF4++1wWcZdxyLf5vFmlbdkMMBgdJrrztgSCYoUhAbRL8fWZET24JxuSU5INFyQadjVtCXx3pQoBBO7A+kRpezfxMqUkSxN9iinmxBmBrvFxuZW2JtEdyuiRoNfPQ6ZiET9uvgs6xJk5iWFCAnQh2X9PSLJ3xgJsbeI2bm7Ulu10QzmxKPhiIjdrIywIJ+MAvBAQHvTpaLELplxbRfA+u+R8zae8S0ww46wlolI2biZa4MP2ToYkuSzT9bHSBV3Ly7pSixoWbamUnR4EZbpIgHShoEq7wX2X2fcGpLO5cD3J5xCv2lciS0nS23Z1zGesYpcyJGHrD072xPdfwAVwekUEvOBi4HCBRwraCUNmapWFBVlJa2Jaz+aqvt+P4ALfvfKipCWo5kyuR0Y0HyPqLbxQ/4CY4gUEOtar0/AAAAAElFTkSuQmCC;" parent="1" vertex="1">
          <mxGeometry x="745" y="713" width="53.86" height="50" as="geometry" />
        </mxCell>
        <mxCell id="QY_VV6FcXAard618ne-8-4" style="edgeStyle=none;rounded=0;orthogonalLoop=1;jettySize=auto;html=1;entryX=0.5;entryY=0;entryDx=0;entryDy=0;exitX=0.425;exitY=-0.25;exitDx=0;exitDy=0;exitPerimeter=0;" parent="1" source="K3VQ6Ar4vp130KD2iZYr-9" target="QY_VV6FcXAard618ne-8-1" edge="1">
          <mxGeometry relative="1" as="geometry">
            <mxPoint x="782" y="659" as="sourcePoint" />
          </mxGeometry>
        </mxCell>
        <mxCell id="QY_VV6FcXAard618ne-8-5" style="edgeStyle=none;rounded=0;orthogonalLoop=1;jettySize=auto;html=1;exitX=0.5;exitY=1;exitDx=0;exitDy=0;entryX=0.5;entryY=0;entryDx=0;entryDy=0;" parent="1" source="COK3GCsZX3T8CLw1UcPQ-41" target="QY_VV6FcXAard618ne-8-1" edge="1">
          <mxGeometry relative="1" as="geometry" />
        </mxCell>
        <mxCell id="QY_VV6FcXAard618ne-8-9" value="7" style="ellipse;whiteSpace=wrap;html=1;aspect=fixed;strokeWidth=2;fontFamily=Tahoma;spacingBottom=4;spacingRight=2;strokeColor=#d3d3d3;" parent="1" vertex="1">
          <mxGeometry x="332" y="538" width="20" height="20" as="geometry" />
        </mxCell>
        <mxCell id="QY_VV6FcXAard618ne-8-10" value="8" style="ellipse;whiteSpace=wrap;html=1;aspect=fixed;strokeWidth=2;fontFamily=Tahoma;spacingBottom=4;spacingRight=2;strokeColor=#d3d3d3;" parent="1" vertex="1">
          <mxGeometry x="431.25" y="460" width="20" height="20" as="geometry" />
        </mxCell>
        <mxCell id="QY_VV6FcXAard618ne-8-12" value="9" style="ellipse;whiteSpace=wrap;html=1;aspect=fixed;strokeWidth=2;fontFamily=Tahoma;spacingBottom=4;spacingRight=2;strokeColor=#d3d3d3;" parent="1" vertex="1">
          <mxGeometry x="812" y="728" width="20" height="20" as="geometry" />
        </mxCell>
        <mxCell id="QY_VV6FcXAard618ne-8-13" value="12" style="ellipse;whiteSpace=wrap;html=1;aspect=fixed;strokeWidth=2;fontFamily=Tahoma;spacingBottom=4;spacingRight=2;strokeColor=#d3d3d3;" parent="1" vertex="1">
          <mxGeometry x="768.83" y="240" width="20" height="20" as="geometry" />
        </mxCell>
        <mxCell id="QY_VV6FcXAard618ne-8-15" value="Customer Admin&#xa;team" style="shape=image;imageAspect=0;aspect=fixed;verticalLabelPosition=bottom;verticalAlign=top;image=https://image.flaticon.com/icons/svg/1584/1584911.svg;" parent="1" vertex="1">
          <mxGeometry x="812" y="25" width="50" height="50" as="geometry" />
        </mxCell>
        <mxCell id="COK3GCsZX3T8CLw1UcPQ-39" value="Customer service&#xa;contact centre" style="shape=image;imageAspect=0;aspect=fixed;verticalLabelPosition=bottom;verticalAlign=top;image=https://image.flaticon.com/icons/svg/1067/1067566.svg;labelBackgroundColor=#ffffff;" parent="1" vertex="1">
          <mxGeometry x="453" y="550" width="50" height="50" as="geometry" />
        </mxCell>
        <mxCell id="COK3GCsZX3T8CLw1UcPQ-13" value="HI Customer" style="shape=image;imageAspect=0;aspect=fixed;verticalLabelPosition=bottom;verticalAlign=top;image=https://image.flaticon.com/icons/svg/2519/2519075.svg;labelBackgroundColor=#ffffff;" parent="1" vertex="1">
          <mxGeometry x="332" y="347" width="50" height="50" as="geometry" />
        </mxCell>
        <mxCell id="yKbx4dkuL2OjXyQoo9I1-3" value="" style="edgeStyle=orthogonalEdgeStyle;rounded=0;orthogonalLoop=1;jettySize=auto;html=1;exitX=0;exitY=0.5;exitDx=0;exitDy=0;entryX=1;entryY=0.5;entryDx=0;entryDy=0;startArrow=classic;startFill=1;endArrow=none;endFill=0;" parent="1" source="COK3GCsZX3T8CLw1UcPQ-27" target="yKbx4dkuL2OjXyQoo9I1-1" edge="1">
          <mxGeometry relative="1" as="geometry" />
        </mxCell>
        <mxCell id="yKbx4dkuL2OjXyQoo9I1-4" value="&lt;span style=&quot;font-size: 9px&quot;&gt;Re-issue&lt;/span&gt;&lt;br style=&quot;font-size: 9px&quot;&gt;&lt;span style=&quot;font-size: 9px&quot;&gt;and&lt;/span&gt;&lt;br style=&quot;font-size: 9px&quot;&gt;&lt;span style=&quot;font-size: 9px&quot;&gt;Change enrol&lt;/span&gt;&lt;br style=&quot;font-size: 9px&quot;&gt;&lt;span style=&quot;font-size: 9px&quot;&gt;date&lt;/span&gt;" style="text;html=1;align=center;verticalAlign=middle;resizable=0;points=[];labelBackgroundColor=none;" parent="yKbx4dkuL2OjXyQoo9I1-3" vertex="1" connectable="0">
          <mxGeometry x="-0.3063" relative="1" as="geometry">
            <mxPoint x="-13.829999999999998" y="-2" as="offset" />
          </mxGeometry>
        </mxCell>
        <mxCell id="COK3GCsZX3T8CLw1UcPQ-27" value="Welcome kit &#xa;batch" style="shape=image;imageAspect=0;aspect=fixed;verticalLabelPosition=bottom;verticalAlign=top;image=https://image.flaticon.com/icons/svg/2286/2286676.svg;imageBackground=#ffffff;labelBackgroundColor=#ffffff;" parent="1" vertex="1">
          <mxGeometry x="685.8299999999999" y="25" width="50" height="50" as="geometry" />
        </mxCell>
        <mxCell id="COK3GCsZX3T8CLw1UcPQ-99" value="Reporting and&#xa;Analytic teams" style="shape=image;imageAspect=0;aspect=fixed;verticalLabelPosition=bottom;verticalAlign=top;image=https://image.flaticon.com/icons/svg/1584/1584911.svg;labelBackgroundColor=#ffffff;" parent="1" vertex="1">
          <mxGeometry x="799" y="236" width="50" height="50" as="geometry" />
        </mxCell>
        <mxCell id="9s29wU9G6qrsy2zOdIvL-4" style="edgeStyle=none;rounded=0;orthogonalLoop=1;jettySize=auto;html=1;exitX=1;exitY=0.5;exitDx=0;exitDy=0;entryX=0;entryY=0.5;entryDx=0;entryDy=0;startArrow=none;startFill=0;endArrow=classic;endFill=1;fontSize=9;" parent="1" source="COK3GCsZX3T8CLw1UcPQ-33" target="9s29wU9G6qrsy2zOdIvL-1" edge="1">
          <mxGeometry relative="1" as="geometry" />
        </mxCell>
        <mxCell id="9s29wU9G6qrsy2zOdIvL-5" value="System failures" style="text;html=1;align=center;verticalAlign=middle;resizable=0;points=[];labelBackgroundColor=#ffffff;fontSize=9;" parent="9s29wU9G6qrsy2zOdIvL-4" vertex="1" connectable="0">
          <mxGeometry x="-0.4236" y="1" relative="1" as="geometry">
            <mxPoint x="15.03" y="-12.78" as="offset" />
          </mxGeometry>
        </mxCell>
        <mxCell id="COK3GCsZX3T8CLw1UcPQ-33" value="Adobe platform" style="shape=image;imageAspect=0;aspect=fixed;verticalLabelPosition=bottom;verticalAlign=top;image=https://www.adobe.com/content/dam/www/icons/marketing-cloud.svg;labelBackgroundColor=#ffffff;" parent="1" vertex="1">
          <mxGeometry x="654.67" y="200" width="51.33" height="50" as="geometry" />
        </mxCell>
        <mxCell id="oZ2ZN3utCK6ckdLz9zwI-3" style="rounded=0;orthogonalLoop=1;jettySize=auto;html=1;exitX=0.5;exitY=1;exitDx=0;exitDy=0;entryX=0.5;entryY=0;entryDx=0;entryDy=0;" parent="1" source="COK3GCsZX3T8CLw1UcPQ-100" target="COK3GCsZX3T8CLw1UcPQ-13" edge="1">
          <mxGeometry relative="1" as="geometry" />
        </mxCell>
        <mxCell id="oZ2ZN3utCK6ckdLz9zwI-4" value="&lt;font style=&quot;font-size: 9px&quot;&gt;AIC Visa letters&lt;/font&gt;" style="text;html=1;align=center;verticalAlign=middle;resizable=0;points=[];labelBackgroundColor=#ffffff;" parent="oZ2ZN3utCK6ckdLz9zwI-3" vertex="1" connectable="0">
          <mxGeometry x="-0.3014" relative="1" as="geometry">
            <mxPoint as="offset" />
          </mxGeometry>
        </mxCell>
        <mxCell id="COK3GCsZX3T8CLw1UcPQ-100" value="ECS team" style="shape=image;imageAspect=0;aspect=fixed;verticalLabelPosition=bottom;verticalAlign=top;image=https://image.flaticon.com/icons/svg/1584/1584911.svg;labelBackgroundColor=#ffffff;" parent="1" vertex="1">
          <mxGeometry x="401.24999999999994" y="23" width="50" height="50" as="geometry" />
        </mxCell>
        <mxCell id="K3VQ6Ar4vp130KD2iZYr-8" value="" style="group;labelBackgroundColor=#ffffff;fontFamily=Helvetica;fontStyle=0" parent="1" vertex="1" connectable="0">
          <mxGeometry x="735.83" y="550" width="86" height="50" as="geometry" />
        </mxCell>
        <mxCell id="K3VQ6Ar4vp130KD2iZYr-7" value="" style="group;labelBackgroundColor=#ffffff;" parent="K3VQ6Ar4vp130KD2iZYr-8" vertex="1" connectable="0">
          <mxGeometry width="86" height="50" as="geometry" />
        </mxCell>
        <mxCell id="COK3GCsZX3T8CLw1UcPQ-51" value="" style="group;rotation=90;" parent="K3VQ6Ar4vp130KD2iZYr-7" vertex="1" connectable="0">
          <mxGeometry x="46" y="5" width="40" height="40" as="geometry" />
        </mxCell>
        <mxCell id="COK3GCsZX3T8CLw1UcPQ-50" value="" style="group" parent="COK3GCsZX3T8CLw1UcPQ-51" vertex="1" connectable="0">
          <mxGeometry width="40" height="40" as="geometry" />
        </mxCell>
        <mxCell id="COK3GCsZX3T8CLw1UcPQ-49" value="" style="group" parent="COK3GCsZX3T8CLw1UcPQ-50" vertex="1" connectable="0">
          <mxGeometry width="40" height="40" as="geometry" />
        </mxCell>
        <mxCell id="COK3GCsZX3T8CLw1UcPQ-48" value="" style="group" parent="COK3GCsZX3T8CLw1UcPQ-49" vertex="1" connectable="0">
          <mxGeometry width="40" height="40" as="geometry" />
        </mxCell>
        <mxCell id="COK3GCsZX3T8CLw1UcPQ-45" value="" style="shape=image;imageAspect=0;aspect=fixed;verticalLabelPosition=bottom;verticalAlign=top;image=data:image/png,iVBORw0KGgoAAAANSUhEUgAAACAAAAAgCAYAAABzenr0AAAKS0lEQVR4AZ2UA5RkS7ZA94mIq8ys6mrb7v7PGNu2bdu2bdvssZ9trme03V1VWZWZFxFxfv5a41n6s8/al2EJ/Ccve8P566a78YSF6+Ys745PLW2bbA42LSQQbFQVNWJjUKIniRZRkOiNiSImqiRirdZ+YLNkl4HbxvdOTnSS7CbgGv4N+ehTLuFvjK+IW6/faT/nPfeAlEG3ouUcje9jYsAhmCgkUTExIgquAadgQ8QEcDFim4ioINFgsbRahlgGMPGizfdY9Lx/boh892XXAXCl7HzktVeNbUvzhCJTUtNgQwQFh5JKQNQgPpLEgFOQCDYG0iCYAAaP/duIeMBHiIpEwUQIA5jqKusfMu/RwDYA5yf7zH90cuyN781/PtI2jJg+Ogg4DSQGRJXqkKc3WSJ1iYlg1cw0wkbFhIBvFIvBxohDEAxZO6G9IEfEEGsQY7GFkAw8+3974OcP/uwxJwOXyWl/uCn/9Zf3f/32K6onLVlt0SZgRUmc4eitk8TxktX/M8qCFW06bcElCUbMTMUOj0TFqMEOVQ/BN9TdQG97j0PXjlNkKWOrRmh8RFWwScLE7QNGThz95aanLHqm23fN3gf0dvQetXA0IeuVGCAxhv0X72PtsW0e99W7svm+K/hvuO203Zz72gvoXrmPuWvm4xUolblzDH7X4CGDm/v3czecOXVHM9C8VUSSKpJnjn0X7+Buj1rGc37yYAAgcPC6w/T2l2it4BUNEdUIgBGLNYKkik0c2dI28zbOZc19lrHmisfxu8f9il0/3c2c1YsI2oATTO2d3xmOcWHCLO/EmrSJpAambhxn6yljw8ofBMBl37mCC999KdWeAdIEbIyYqFgEiFgiZiaY0TrLtJ+goMOdv/FQNjxzCw/6yUP55ak/oHfJEVorRolRQRWO9DuOXjdr2QTnA84Gku44937ZKYBw3U+v4cdP/wlLs7nMX9TG/q1Ca3ABpO8BJckcKgbjoTrSZ+2jTqTf7/OHZ30Vlz+fNU/cxJZXHsuFT/kTrilQI2hUqJrcdZw2sazIBOrD0yxb3+aYJ20C4OJPnMuqZJQFK1uEqiRxFlMr5a79VLEkT9uICr2mpDAZTTQseuQW7vTzRwIgD6y47IU/Hzbgzax98mZufsNF6KEedl5OJGLKsnCZjbVvarJUaCammbd+HohhfPshwnVHmTs/w1Q9cmvx3S6DQ/tYfq8trHzBnRk5dhFGDUev2c/Or1zIntPOJx5dxN9ouZSJyUl6uyZoLx+jWJHT232IRHMQkEHpXBJrmTlMiORNn86oAFDvmyQru2QjYzgnMDVNPHSAO33pCax8/j35Z0a2LGDlE47llq8ew1XP+wbnn/ppGG3TO2M3Hdei2tWdaUA6x9GnxEpFULBk0RUmaDQlmUSiluS5AEAIZFRktsGqoXdwByd+7okzlQcN3Pbh3zLx6+sRNcx+2DGsfsP9WffcO2Gk4prnfolRVtGZPUZvfAppIgBpKlgaTPQYFYxRnKNBhuYEIn0y6wGQGEkZvict/I7DrHjAZla++AEAXPGgD3DkjxdTsAgQDp5/PhNnXMdJf3w1a55zTw7/+EqqP+1EbENCjcQAgBWPxWOQmXuiDSbVmlRKclvTTnokpgRAYiA3FWk6IKkPsfRxJwBw2yd/SvePp7FwzQY6a0fprB5l6bL1HP3TWWz/2O8BWPKYU/B0MRpQPBoDAKIRS42RCoOCCqZIBhRuQD40G5raGgBBaaU9cp2imG/pnLwGgMGZFzO7NYrJexgzjWOAcQ2jtOmddiUA7TsuJ0lybF1hqCAoAFbAILgQMTSoqXFJUmKykiz12KJPkg0AcK4mb0+RFQWmPQAbAXC2gqzEpCUIIA3ESGoHWAYAiAacGb7TwhEQUQCiRoSAAVwMmOjFZEmlrbSkyIe2+qRZBYDYSNoevo9WuGYf1XXXATB6r+PR8ZvJWgFXeGyrweUVMewY/tsKQP+i25CqiysEQwPmbyPQYKhBAkbBKZhWVtFKB2T50GKKNK0BkBTSTp+kKMnnw9QffwnAwpc+i/aT701z8R/h4PVDb6Z/7WmM3e8uLHndEwA4+tMzyQC1FZaAEQHAEf/6HlCJKKjLskpdMY0rFNupsGkJgE2EZNSTtAZkmxZRXX4a4z/6NrOf8HRWfPuLTNzlJMozLiB6YezOz2H+K54NwK7PbyP8+RyKNZvwZYUxATEAEBUEjxARiagEXDLTgAFpITDaYG2Xv41AMlLjWh4c5BsWM/WZN2ELx+jDn8zcF78Ihv4zB765jalXfIjOyqWEVDF1RG2DJgaAWFUIAVGPiGBiFDcccrGFx+UR02mwOgmAzJ6NG1Nc0UddgnRaJK0l9D/xcspzfkv7QU8lXb0OwVLefBPj3/0p1a/OZmTLWnxeoN0S1JAUgls0C4A4MY3BAQGDRQji0lk+Gh1giwQ3p4XWB1AgW7iWZPkCzMHtyLx10NRI0cHO20q98zy6H/oLks9Fa0PYNwlmhNadNxBLh+kNkJEO5d49ZGtX0Fq7kAaIu46QpCmqEQmKyRNvJPdl0VayvCFZ1Eamb2Fw2S8xQPG41+D9Lky5AzOimKLBtAPpptWkJ2wkWTmbdPkYxYnrybYsQ/IKSRvIa8LeG6m6tzL/DU8BGJ6OZw0bvp1kLEeiMhNOS2dmtyuJ+3GZhdyQaoG/4MvoSY9g5PhHYF7xU8JZn0F7ByAGCAGpA6YUtInERpCBQB/ilCP2UqgK7JIlLHv/25j7hHvRAAc+8UtyCsSB8QExlqTtKhfNYMJkBjsimBTMnA1w8Bp6215K61GfpX38Y4j/5+GboXeI2FSY4JGgRB/RoBANUQVCgpJgZi8gXb8BEYjAbY9/J3rh1aRrjiNUHoxDiUQ1U7L3L194ZHbVth+mWmbMakPqsNYQjt4AS48hvdNrSRbfAeH/hwLTZ1/A/jd/gfqC20g3HUPVd0Sf4AcJTXRh7DEnPEV2XXNOkl79na+OHLny6TpvBSYJqLOYNIPpXcRQI3M3Q3sRalsIDhOE6APa+KEKZYAKfKnEbo0emqJ/2z4GF92OjbOIi9fgJxJ8PwEpmN4xgTlu/e9XvOCBz5D9X7ySsOHCjbMObLsycXmunTHUKeIcuASLEMtx1E+hIYKfkVh7pFRi3xMHDaHXQFfxk4HQBa1nEdwCwnRCM2Hw/QzftAlHIoPJmlXvecEdgYscwxd7yYk3Du42/Zjk6AW/NXlAkwKxBdFCNALFUmQmgBARHyB4qCK2CpiywfRqdNpjpiN+WglHFR0XmiqimUOqiJ0c0J/wdJ5x78cfvvm6iwDsM1fdhf7RQ/SuaN3cvv/yHzrbbCLL1pgsw1mBNAFrcFYxBowoGMVqRPCICUio/2oDTY0MamK/JDQRug1EhzYpfZ9dyF23PNT3B6cPZShy6SM/xr+z9eNz15h49BjaYwu08R2QZUI6V4lNDF5M8GgIaipvY+2T0NRo6SX2gml6lQ3TTWbLfNztnTw0befvqa+fODDIxq4Cruff+F/YMSYOvVvlzAAAAABJRU5ErkJggg==;" parent="COK3GCsZX3T8CLw1UcPQ-48" vertex="1">
          <mxGeometry x="20" y="20" width="20" height="20" as="geometry" />
        </mxCell>
        <mxCell id="COK3GCsZX3T8CLw1UcPQ-43" value="" style="shape=image;imageAspect=0;aspect=fixed;verticalLabelPosition=bottom;verticalAlign=top;image=data:image/png,iVBORw0KGgoAAAANSUhEUgAAACAAAAAgCAIAAAD8GO2jAAAA1UlEQVR4AWOwDp9LUzTELRi1wDdtaf+8w9sPXDtx7h4Q7Tt2c92OS9SxwCZibtesg0+fv3756i0aoo4FkxcdgxhHEwtiite8ePmGhhas3HIB2cRL1x5t3HV5xebzEEQFC67efAI3/cDxW7aR86icip6/QIRP9+xD1E+myOHTPv3AqAVA1DJ1/76jN+EI2YKLVx8hS+0+cgMY5yRbMHfVKbBxhNGFqw+B6mloweY9V2hrAbAIIceCugl7gE6DI2QTT124jyyVXrNxEKaiUQtGLRi1YNQCAMs01I34bbYCAAAAAElFTkSuQmCC;" parent="COK3GCsZX3T8CLw1UcPQ-48" vertex="1">
          <mxGeometry width="20" height="20" as="geometry" />
        </mxCell>
        <mxCell id="COK3GCsZX3T8CLw1UcPQ-44" value="" style="shape=image;imageAspect=0;aspect=fixed;verticalLabelPosition=bottom;verticalAlign=top;image=data:image/png,iVBORw0KGgoAAAANSUhEUgAAACAAAAAgCAIAAAD8GO2jAAABZUlEQVR4AWLQWfWQpmjUAjxo1IJRC2wBpJTDQkVRFIafKBujZrnGjbNd84wHiJNs27btrm3rrFbW1T73m20u/yMsW0cBg6zue5XCYLFQcC41JK0I3PsYaWvC+BkugYFljrbmWPp/H/86FOnhB2hGZbTg/dBhFoEBhsoEAO23Su9+5s/9nA0R/ANtXEgNJTtiAgObfB28gZaKt8Wen2ZarhRgjVL8nagGmetC+IFMb5lgqOtOZAtsLVgjcIhFZqD+RLYj0IFzGCwUcRctc7XgNNcyA7GBhAW+EWvnHK3XCjqDhg3OUpvAEegFTgAdA+nrwnuF4zCw7DSlwqOPscRxUAmtiYqY5NDXImz/6mPprlAP1sDgcjdFLokdCkPGW6Kstmbhtoim2IWNsRsvFXNsjURvBmvgiMROc11S0+BhVvmhFAUDhewrISgbg4/qlyUdeEnl+sBk7SOgfcBSb3jWaKMWjFoAABKespvtvzYlAAAAAElFTkSuQmCC;" parent="COK3GCsZX3T8CLw1UcPQ-48" vertex="1">
          <mxGeometry x="20" width="20" height="20" as="geometry" />
        </mxCell>
        <mxCell id="COK3GCsZX3T8CLw1UcPQ-46" value="" style="shape=image;imageAspect=0;aspect=fixed;verticalLabelPosition=bottom;verticalAlign=top;image=data:image/png,iVBORw0KGgoAAAANSUhEUgAAACAAAAAgCAYAAABzenr0AAACtklEQVR4AeyVA5AkQRREZ862bTMcZ9u2wzrbtm3bWNvmaW3b3rzKRa+NOWVEDoqvqv//LZPtUpoubC2cLIxKMveyku1UmkYAG2EoyFYESFEgQIos346dX7K7YiFyN8iFB17Sxx4NRxzVdcbYO6aotke5cgB42sFXDGDjF4FM+UbGY+5TK9FXKQBKOKTtjNz68CMAdQ+oVjyAXPicoRtyS8M5GA0PqRGwgm9gxxdMf2SBkNhEZCoxORXbVH9CXllBWHOvCla9sQNPbegRit3qDmhyWL1SYkCKA7kIxvoH1MBrr5KZllJ/IWnK3zskZ/SXEIDB1vm0trAO6K5ndNCYN5DRz9tgWxdhfnc8pQ2madXdSmDb7CeWWPfOHite22LoDWMegiDFj4GJ983hFBLD9IOPcEB0AjZ8+S6daIeaAwJFG/v8ouJh4ROB3uf1sFHpB34GRSMmMRlJKalISE5hLEHJIRCjbptAXlyAmY8tEZ2QjOzaK4qSbHs6AItTdhHwvpU3N0ZB+hYQhcGXDTi//AFSUtNPW5SY3lX3KJc7gKSwuESYeIXByDMM4XFJyC1bv0i0PKbJoCx/ALewWMwSwccApZe9skFwTAKyiXEjPYZyBziq48zUlVK09j4VvLL3Q3ZFxCdh/D0z7lG+AHFJKVj03DrHwhxHqOzimjMeWZQ/QKQ42ZQH5jkW5u896o7IJmYJa0T5A/BqJ+S6Wv7eqebwH+A/QOUBTMwHYFdpAaY9tACrVqyYECPMOr9d1UF6Gx7QcgLb2McxfCOOu2uaB2CLyk/EJ6WPo4PEmtOLqgOsZK2Pa4IDSUvPeWKFXud1pRre94Ie5jy1kvqnC+AWxzTYn2Odnud0MSdjDM0i1ObXOvDVBQjNEFciMJrhKHJwH5FmDgIPfNds4DuniO75P3r6HNY9BwATNI1Cu+uNpgAAAABJRU5ErkJggg==;labelBackgroundColor=#ffffff;" parent="COK3GCsZX3T8CLw1UcPQ-48" vertex="1">
          <mxGeometry y="20" width="20" height="20" as="geometry" />
        </mxCell>
        <mxCell id="K3VQ6Ar4vp130KD2iZYr-3" value="" style="shape=image;imageAspect=0;aspect=fixed;verticalLabelPosition=bottom;verticalAlign=top;image=https://seeklogo.net/wp-content/uploads/2016/11/wechat-logo-preview.png;" parent="K3VQ6Ar4vp130KD2iZYr-7" vertex="1">
          <mxGeometry width="50" height="50" as="geometry" />
        </mxCell>
        <mxCell id="K3VQ6Ar4vp130KD2iZYr-9" value="Social media" style="text;html=1;align=center;verticalAlign=middle;resizable=0;points=[];autosize=1;fontFamily=Helvetica;labelBackgroundColor=#ffffff;" parent="1" vertex="1">
          <mxGeometry x="745" y="598" width="80" height="20" as="geometry" />
        </mxCell>
        <mxCell id="COK3GCsZX3T8CLw1UcPQ-53" value="" style="group" parent="1" vertex="1" connectable="0">
          <mxGeometry x="610" y="558" width="125.83000000000004" height="37" as="geometry" />
        </mxCell>
        <mxCell id="COK3GCsZX3T8CLw1UcPQ-41" value="WebChat" style="shape=image;imageAspect=0;aspect=fixed;verticalLabelPosition=bottom;verticalAlign=top;image=https://docs.genesys.com/skins/Genesys/resources/css/images/GEN_id_color_rgb.png;labelBackgroundColor=#ffffff;" parent="COK3GCsZX3T8CLw1UcPQ-53" vertex="1">
          <mxGeometry x="13.860000000000014" y="17" width="98.11" height="20" as="geometry" />
        </mxCell>
        <mxCell id="COK3GCsZX3T8CLw1UcPQ-42" value="" style="shape=image;imageAspect=0;aspect=fixed;verticalLabelPosition=bottom;verticalAlign=top;image=data:image/png,iVBORw0KGgoAAAANSUhEUgAAAJcAAAAYCAMAAADAp59GAAAAmVBMVEX/////cgv/+vb/cAD/ZQD/6tz/9e7/4s7/lVH/sI3/nV3/fjL/49T/xJn/vIr/za3/wJr/wqj/8OX/3MH/uIT/0bP/upD/eAD/yKf/ijH/gzr/lkv/kz3/oFf/kVX/hTP/nmX/28f/tIb/pGf/gyj/eBr/kEj/eCT/fhz/mmj/XgD/zLj/oHL/q3z/rnL/uJf/i0z/qoP/hhxXT3HjAAAD40lEQVRIic2Wf5eqLBDHiUHqqq0uhpn90tRyU7u17//FXQbErN2zz3/PxjkV6ACfZobvQIhtgswXc65+XqnxAmbkk3lRzIrpb8MMjVKHgeevIJVrqOaE/jaQaXyzolsABhP1gZ1zSP3fRtJtw2C7gknf9gXA7BWyjL55AApLffqf00E8hJJS+tDph8OIjg3ofRK9G97X45zfB3Q8uvewMw3FBXEm17ZrdxX6LXMaOcISMuwDm4eSq3EQ5jhThnP8SUJs2sMCeznHrqOfJtjnyiLxudkxP7iF5D2IHxZukfg9T2Cfi1CdvS1bloqlPOA5FHGqwKqSZfzONT2e303vz3nmKCOXHRWGSNkarU4qKYFF+D467z/S5QH3D1jath83xPXr9COtQ7273Kftbmn6PFYv2o90FRiwOYRm1+i8IKTWmVUlPYTc61jOohHXjFku5iouEtaQq2VOoI08WIdhrP0VsTcydcFBroldkfirkORZisb8Ty0J7914qDsVBzrNlokGm1cs1mBTtQyRfxGsGEKbqOGpi0aZ/4VL7NiF0x1s9CoeW1hL5CIByGeumJCmDpDlViY2i5K6M+4Rbu1orkkLGgy5pk3OJlDdxVSUAF7cjKTiCxeJq9qJUma28GDWNO8914KLSymQCy55Huk8RH85N+0vIk9e7Jjj0u7tHrLSK81BxHDghmvBlipupzsFd9F/rP2Ja3plQTGpjU/VaWbs3HMduwxCornq1epTm/tl9p6VJkRcZvVMHxLH7WxM+LXgmovSGJQTDRd74ipQL37mIt3kqJKB9lz7rmsHrq6hhusipdRn019VcJUWwpHtEom+4+JEg5k4NvAYx5WOY/4jV5QCLE1XcV0EF0Mcez14yK+iTUfria7OMY6ljWNg46jm0hA6qfM+/DbvxzrxlYtmAJfe5Dnvv+GK/aOZ6MfIktQNGef9rs975EKwGS5To8hPqsBCfKcTsLvd8jEXSTywHvAgvd1uzjMXvAnHET0XCZYaIl9lDvGzDc5FnYgooXLQCc2FngG1zNro6l4rkEiuRlfdsU4cmUpsdJnRVWz8urUePTF83euqdZ3S1XJ3vbY67z9jJVyAYsrj5bW91onV1b3S1XrQVWZzAP9e3okFuqjatYduV5o6lAxBILoOqYYBMHVIt0M+6NC4Dg15aupQoAU0mOI/1lO5qkPDVO4EF/fQOP1wGtolgzm+ndu6XfW124u/1O2hRNtnoyI7rttPk2zdtl9E1+2R0ePo/hi/1ww25eiew17jnqPuhbUY3wsvL3IvfNV7tGp8y46khDQK2Tr6b/P/swlabJQ6vURmEfIPrYJOXxrYpFIAAAAASUVORK5CYII=;" parent="COK3GCsZX3T8CLw1UcPQ-53" vertex="1">
          <mxGeometry width="125.83" height="20" as="geometry" />
        </mxCell>
        <mxCell id="COK3GCsZX3T8CLw1UcPQ-28" value="Mailhouse" style="shape=image;imageAspect=0;aspect=fixed;verticalLabelPosition=bottom;verticalAlign=top;image=https://abcorp.com/wp-content/uploads/2017/10/logo.png;labelBackgroundColor=#ffffff;" parent="1" vertex="1">
          <mxGeometry x="508.01" y="156" width="94.61" height="30" as="geometry" />
        </mxCell>
        <mxCell id="DEALhcKuOMUuAGFNjWsx-147" style="rounded=0;orthogonalLoop=1;jettySize=auto;html=1;exitX=1;exitY=0.5;exitDx=0;exitDy=0;entryX=0;entryY=0.5;entryDx=0;entryDy=0;" parent="1" source="DEALhcKuOMUuAGFNjWsx-146" target="COK3GCsZX3T8CLw1UcPQ-121" edge="1">
          <mxGeometry relative="1" as="geometry" />
        </mxCell>
        <mxCell id="DEALhcKuOMUuAGFNjWsx-146" value="Evolve" style="shape=image;imageAspect=0;aspect=fixed;verticalLabelPosition=bottom;verticalAlign=top;image=https://lh3.googleusercontent.com/-9TJhtNTFhwU/AAAAAAAAAAI/AAAAAAAAAAA/gGMZCFtohHs/s44-p-k-no-ns-nd/photo.jpg;" parent="1" vertex="1">
          <mxGeometry x="540" y="345" width="50" height="50" as="geometry" />
        </mxCell>
        <mxCell id="DEALhcKuOMUuAGFNjWsx-148" value="Employee Health&#xa;Plan team" style="shape=image;imageAspect=0;aspect=fixed;verticalLabelPosition=bottom;verticalAlign=top;image=https://image.flaticon.com/icons/svg/1584/1584911.svg;" parent="1" vertex="1">
          <mxGeometry x="40" y="366" width="50" height="50" as="geometry" />
        </mxCell>
        <mxCell id="DEALhcKuOMUuAGFNjWsx-154" value="&lt;font style=&quot;font-size: 9px&quot;&gt;Spreadsheet&lt;/font&gt;" style="edgeStyle=none;rounded=0;orthogonalLoop=1;jettySize=auto;html=1;exitX=1;exitY=0.5;exitDx=0;exitDy=0;entryX=0;entryY=0.5;entryDx=0;entryDy=0;" parent="1" source="DEALhcKuOMUuAGFNjWsx-152" target="DEALhcKuOMUuAGFNjWsx-153" edge="1">
          <mxGeometry relative="1" as="geometry">
            <mxPoint x="146.05999999999995" y="602" as="sourcePoint" />
            <mxPoint x="183" y="602" as="targetPoint" />
          </mxGeometry>
        </mxCell>
        <mxCell id="DEALhcKuOMUuAGFNjWsx-152" value="AIC" style="shape=image;imageAspect=0;aspect=fixed;verticalLabelPosition=bottom;verticalAlign=top;image=http://pacificprime.cn/en/assets/b/home_insurer_01.jpg;" parent="1" vertex="1">
          <mxGeometry x="19.389999999999986" y="549" width="106.67" height="50" as="geometry" />
        </mxCell>
        <mxCell id="DEALhcKuOMUuAGFNjWsx-155" style="edgeStyle=none;rounded=0;orthogonalLoop=1;jettySize=auto;html=1;exitX=1;exitY=0;exitDx=0;exitDy=0;entryX=0;entryY=0.5;entryDx=0;entryDy=0;" parent="1" source="DEALhcKuOMUuAGFNjWsx-153" target="COK3GCsZX3T8CLw1UcPQ-13" edge="1">
          <mxGeometry relative="1" as="geometry">
            <mxPoint x="332" y="277" as="targetPoint" />
          </mxGeometry>
        </mxCell>
        <mxCell id="DEALhcKuOMUuAGFNjWsx-156" value="&lt;font style=&quot;font-size: 9px;&quot;&gt;Initial welcome comm&lt;br style=&quot;font-size: 9px;&quot;&gt;and&lt;br style=&quot;font-size: 9px;&quot;&gt;Visa letter&lt;/font&gt;" style="text;html=1;align=center;verticalAlign=middle;resizable=0;points=[];labelBackgroundColor=#ffffff;fontSize=9;" parent="DEALhcKuOMUuAGFNjWsx-155" vertex="1" connectable="0">
          <mxGeometry x="-0.3588" relative="1" as="geometry">
            <mxPoint x="-14.84" y="38.11" as="offset" />
          </mxGeometry>
        </mxCell>
        <mxCell id="DEALhcKuOMUuAGFNjWsx-153" value="Partner Services&#xa;team" style="shape=image;imageAspect=0;aspect=fixed;verticalLabelPosition=bottom;verticalAlign=top;image=https://image.flaticon.com/icons/svg/1584/1584911.svg;" parent="1" vertex="1">
          <mxGeometry x="183" y="590" width="50" height="50" as="geometry" />
        </mxCell>
        <mxCell id="DEALhcKuOMUuAGFNjWsx-160" style="edgeStyle=none;rounded=0;orthogonalLoop=1;jettySize=auto;html=1;exitX=1;exitY=0.5;exitDx=0;exitDy=0;entryX=0;entryY=0.5;entryDx=0;entryDy=0;" parent="1" source="DEALhcKuOMUuAGFNjWsx-158" target="DEALhcKuOMUuAGFNjWsx-153" edge="1">
          <mxGeometry relative="1" as="geometry" />
        </mxCell>
        <mxCell id="oZ2ZN3utCK6ckdLz9zwI-5" value="&lt;font style=&quot;font-size: 9px&quot;&gt;Company &lt;br style=&quot;font-size: 9px&quot;&gt;application form&lt;br&gt;and&lt;br style=&quot;font-size: 9px&quot;&gt;&lt;/font&gt;&lt;font style=&quot;font-size: 9px&quot;&gt;spreadsheet&lt;/font&gt;" style="text;html=1;align=center;verticalAlign=middle;resizable=0;points=[];labelBackgroundColor=#ffffff;fontSize=9;" parent="DEALhcKuOMUuAGFNjWsx-160" vertex="1" connectable="0">
          <mxGeometry x="-0.2399" relative="1" as="geometry">
            <mxPoint x="2.7699999999999996" y="-0.8100000000000005" as="offset" />
          </mxGeometry>
        </mxCell>
        <mxCell id="DEALhcKuOMUuAGFNjWsx-158" value="Company or &#xa;Account manager" style="shape=image;imageAspect=0;aspect=fixed;verticalLabelPosition=bottom;verticalAlign=top;image=https://img.icons8.com/dotty/2x/company.png;labelBackgroundColor=#ffffff;" parent="1" vertex="1">
          <mxGeometry x="39.389999999999986" y="620" width="50" height="50" as="geometry" />
        </mxCell>
        <mxCell id="MaFsSqHFL_aDIbuKhQJ8-32" value="2" style="ellipse;whiteSpace=wrap;html=1;aspect=fixed;strokeWidth=2;fontFamily=Tahoma;spacingBottom=4;spacingRight=2;strokeColor=#d3d3d3;labelBackgroundColor=#ffffff;fillColor=#ffffff;" parent="1" vertex="1">
          <mxGeometry x="212" y="340" width="20" height="20" as="geometry" />
        </mxCell>
        <mxCell id="oZ2ZN3utCK6ckdLz9zwI-17" value="" style="shape=image;html=1;verticalAlign=top;verticalLabelPosition=bottom;labelBackgroundColor=#ffffff;imageAspect=0;aspect=fixed;image=https://cdn4.iconfinder.com/data/icons/sketchdock-ecommerce-icons/alert-triangle-red.png;fillColor=#ffffff;" parent="1" vertex="1">
          <mxGeometry x="-2" y="384" width="24" height="24" as="geometry" />
        </mxCell>
        <mxCell id="oZ2ZN3utCK6ckdLz9zwI-18" value="" style="shape=image;html=1;verticalAlign=top;verticalLabelPosition=bottom;labelBackgroundColor=#ffffff;imageAspect=0;aspect=fixed;image=https://cdn4.iconfinder.com/data/icons/sketchdock-ecommerce-icons/alert-triangle-red.png;fillColor=#ffffff;" parent="1" vertex="1">
          <mxGeometry x="210" y="360" width="24" height="24" as="geometry" />
        </mxCell>
        <mxCell id="oZ2ZN3utCK6ckdLz9zwI-19" value="" style="shape=image;html=1;verticalAlign=top;verticalLabelPosition=bottom;labelBackgroundColor=#ffffff;imageAspect=0;aspect=fixed;image=https://cdn4.iconfinder.com/data/icons/sketchdock-ecommerce-icons/alert-triangle-red.png;fillColor=#ffffff;" parent="1" vertex="1">
          <mxGeometry x="660.91" y="132" width="24" height="24" as="geometry" />
        </mxCell>
        <mxCell id="oZ2ZN3utCK6ckdLz9zwI-20" value="" style="shape=image;html=1;verticalAlign=top;verticalLabelPosition=bottom;labelBackgroundColor=#ffffff;imageAspect=0;aspect=fixed;image=https://cdn4.iconfinder.com/data/icons/sketchdock-ecommerce-icons/alert-triangle-red.png;fillColor=#ffffff;" parent="1" vertex="1">
          <mxGeometry x="810" y="750" width="24" height="24" as="geometry" />
        </mxCell>
        <mxCell id="oZ2ZN3utCK6ckdLz9zwI-21" value="" style="shape=image;html=1;verticalAlign=top;verticalLabelPosition=bottom;labelBackgroundColor=#ffffff;imageAspect=0;aspect=fixed;image=https://cdn4.iconfinder.com/data/icons/sketchdock-ecommerce-icons/alert-triangle-red.png;fillColor=#ffffff;" parent="1" vertex="1">
          <mxGeometry x="471" y="201" width="24" height="24" as="geometry" />
        </mxCell>
        <mxCell id="yKbx4dkuL2OjXyQoo9I1-1" value="Customer Service &#xa;and Retail teams" style="shape=image;imageAspect=0;aspect=fixed;verticalLabelPosition=bottom;verticalAlign=top;image=https://image.flaticon.com/icons/svg/1584/1584911.svg;labelBackgroundColor=#ffffff;" parent="1" vertex="1">
          <mxGeometry x="548" y="25" width="50" height="50" as="geometry" />
        </mxCell>
        <mxCell id="yKbx4dkuL2OjXyQoo9I1-5" value="10" style="ellipse;whiteSpace=wrap;html=1;aspect=fixed;strokeWidth=2;fontFamily=Tahoma;spacingBottom=4;spacingRight=2;strokeColor=#d3d3d3;" parent="1" vertex="1">
          <mxGeometry x="520" y="45" width="20" height="20" as="geometry" />
        </mxCell>
        <mxCell id="9s29wU9G6qrsy2zOdIvL-1" value="Support teams" style="shape=image;imageAspect=0;aspect=fixed;verticalLabelPosition=bottom;verticalAlign=top;image=https://image.flaticon.com/icons/svg/1584/1584911.svg;" parent="1" vertex="1">
          <mxGeometry x="812" y="130" width="50" height="50" as="geometry" />
        </mxCell>
        <mxCell id="9s29wU9G6qrsy2zOdIvL-2" style="edgeStyle=none;rounded=0;orthogonalLoop=1;jettySize=auto;html=1;exitX=1;exitY=0.5;exitDx=0;exitDy=0;entryX=0;entryY=0.5;entryDx=0;entryDy=0;startArrow=none;startFill=0;endArrow=classic;endFill=1;fontSize=9;" parent="1" source="COK3GCsZX3T8CLw1UcPQ-27" target="9s29wU9G6qrsy2zOdIvL-1" edge="1">
          <mxGeometry relative="1" as="geometry" />
        </mxCell>
        <mxCell id="9s29wU9G6qrsy2zOdIvL-3" value="Dashboard&lt;br&gt;and&lt;br&gt;System failures" style="text;html=1;align=center;verticalAlign=middle;resizable=0;points=[];labelBackgroundColor=#ffffff;fontSize=9;" parent="9s29wU9G6qrsy2zOdIvL-2" vertex="1" connectable="0">
          <mxGeometry x="0.2314" y="3" relative="1" as="geometry">
            <mxPoint x="-16.400000000000002" y="-2.99" as="offset" />
          </mxGeometry>
        </mxCell>
        <mxCell id="9s29wU9G6qrsy2zOdIvL-7" value="11" style="ellipse;whiteSpace=wrap;html=1;aspect=fixed;strokeWidth=2;fontFamily=Tahoma;spacingBottom=4;spacingRight=2;strokeColor=#d3d3d3;" parent="1" vertex="1">
          <mxGeometry x="849" y="112" width="20" height="20" as="geometry" />
        </mxCell>
        <mxCell id="9s29wU9G6qrsy2zOdIvL-22" value="&lt;span style=&quot;background-color: rgb(255 , 255 , 255)&quot;&gt;Systems Used&lt;/span&gt;&lt;br&gt;&lt;span style=&quot;background-color: rgb(255 , 255 , 255)&quot;&gt;to send comms&lt;/span&gt;" style="text;html=1;strokeColor=none;fillColor=none;align=center;verticalAlign=middle;whiteSpace=wrap;rounded=0;labelBackgroundColor=none;fontSize=9;" parent="1" vertex="1">
          <mxGeometry x="248.06000000000006" y="210" width="70" height="20" as="geometry" />
        </mxCell>
        <mxCell id="9s29wU9G6qrsy2zOdIvL-14" value="" style="rounded=0;whiteSpace=wrap;html=1;labelBackgroundColor=none;fontSize=9;rotation=90;verticalAlign=bottom;labelPosition=center;verticalLabelPosition=top;align=center;horizontal=0;" parent="1" vertex="1">
          <mxGeometry x="134.87000000000006" y="355.44" width="296.38" height="52.46" as="geometry" />
        </mxCell>
        <mxCell id="9s29wU9G6qrsy2zOdIvL-13" value="LivePerson" style="shape=image;imageAspect=0;aspect=fixed;verticalLabelPosition=bottom;verticalAlign=top;labelBackgroundColor=none;fontSize=8;image=data:image/png,iVBORw0KGgoAAAANSUhEUgAAAOEAAADhCAMAAAAJbSJIAAAA5FBMVEX////9cSb//v/8///9//3//f///v39cSX///z9cSP7cCT9byP//f36cSH+cCf8//38axr+1sT7hkz7aQ/8nWr7YwD+wqL5cib7cSr8aAD++/f/bR/7aQn5cyT8bx3/8ev+7N/6p3X7mmL7fjb/9O/9u5f8onP+k1j+3sr75tj91L78s4n8chf9xqz9p3z7vJz938n+n3f+s5H9zLX6eyz7gUL+r371jEn+z7P5tYn5vpj5n2n+5NL7i0b6gzv5jFT90sb99Of86tb8qof9hVD6tp7+fDv96eP7kVz70K39+u72fS25fv1IAAASGklEQVR4nO1dC1ciubYOlXolISESoYqiKtA8lJePVuhxZlAP0/d2e/v8//9zdwptQRCEHh69Vn1nnTXKsst8tbOf2dkilCFDhgwZMmTIkCFDhgwZMmTIkCFDhgwZMmTIkCFDhgwZMmTIkCFDhgwZMmTI8BvCPfQC9gH87je/J7BlpzQKvoWQg24ap3NodO30xwpOwUG++xuK2EWOBcuOLAsVELLQWUnJWcQdlFJ0oh8YvvAPvd7NgV1YdL3crBcMUQtdSubRGcRdnLLCX097eYSdQ693c/go6nxKVOkKGRk6qK14mJtBXE/lZkXfYnV/9d0+9Ho/DtiVPsgE1y7OlWQ5NkIuNjIsl+gsQVppGdk69nUpqNJS89N1HtnwT7GLXOvQHFbDto1Wdb8OlQyAiRd3/XSXXlRyc1CRhWzXxp8VDblgUj5dtBD2jSyP3Mwa63LbUIqwJN2V6ganMryN2YwQKdU+yNBFrYRQIYQXMKmGN2Og51jHbnXq7ZGWlJFcQAwX0SzYhmEvZsEsQ15wfORbvZjSRIQ5xqjmijd6LbNRjxptrZg3sxuDuGN2HT6pBOLlM5Hz9Df4MO/gU0lyPz8nRKpm3TryXdorBXxW35j6kjLsxPMMi7BFC1YLfMgrQ05CPcoXjn2X/lFlswxDmpigBnfV62fAUD4hF4zmrSIzDMOAlm6Rfay+8cXG38azmzTHmeqBEHFde3SW4RnOQ0zQkLMMieBNiN+O0FvYqJAHx56uzMcjTcgrQ4/pS9iQuMVfLQ0wVF+Rlfcnasb6AEMaX5gtbSFr+p+jgeVg1Lma2kAbdh6dZZgQEblRbcx/imoqw1qrgC/UXBiQqw6j9BmO1bqMjslrgPSuaeVuagNtv6lnGQoW3/SfmnLAZxkSrken7SLTswSTSjl9BDj+89JpdEhKb+Ci61BzeZJ+baOL2QAtEJQqWdU0J/gsQwGuQTIyt0tp0Jq+JXymuDoWirZVcHGHaxbIZIyNpbejISdz9nQ5gOfMd4FIeKkNL8vHPr6pUJaLTyNsH0NE7lgICAoSctmsI8e3CrisXn3fRyFyvMpbaaqIryqECUJBisfg/QsYXSdccEZAiqN0ibg1ZB+Q4RuGnMk/Ud5HNr6LqSACgj4jxUPzg8gLdFDCCw+4oEyfR2BWLfyXDNZzmkcAofrEMenySczA3XAIx1l8cF10bdDB5Kc9pEz+DemgjcaKrGKzVIakem4jy8Zj/vN5zEulWDggQQfiTa1/6lygaekLxk55qOlyHitkSAN2Psao3qy+xj4QAoAuHtDa2EAwSV79u4Allf6qNypCb25pBONVfTEpKvIaoYMuHtZpgA7mtHhlmAjYqKwpA5rbnCFJwLyopiRh8vKZ0cXcYV1/B9ygx+Z1zmMbs/sJmluwwdRs1MNlG/2YMeJtz+gjpJkc1G3rQHm/ja5iwchOGYrBqGuqcIeBhfDFgFU39n0bwJP33zHkxIfLM/DJALy9Jzb2Dh8BoUw1okMXpvB4WBU62Ykcuah8dvGhzzQKqP4AKe/GcehHIOI+sm3n8PlF7VHtxNgwdYXsl3M3vNcYHOJH1B77kNv7tuX7KGrE3mxFaWGpIhCCBmB2eQAhEBOmHMfYSt0VmgzuzBmkn54TROUO3qMsfYTrJX3aMV9aJoEqXOpVDLkAklWt9UApqdRAaU2IEPy9nzegYngCEoRfBdlK6+IhPsX5/TGEl3kTh0o/dXwMlsBycF2zFQw9zrUaPp5d3Z50u+POfy76jftEgyBXSJHIUxAa5NOgBX81K1VWqe1VhhFn3KM6Pu9F5qjIfpLvy9BjVfXtsld/XiAGjQKpjMtPyXz9/40ME3Wbal+t/VDRVND4Zn8E4RffpRVs4enK+S1kcOV4KTtBOSRUWjdu54NnE6HYyO62m1JzKpZ6GkZ1MkF40g9V1bw7IZsRmJ09eQ4XPcqXlUhVvPtnsDwfDAljUjfGabPC25fk5o39eJCCL/U0ImHqst4PpU6mzyZxb3+5MO6+1gsZ5zKsJsmyVXpg8Isnph63GFi62MKuhVt9rpcyZExwGShGyLSUHBD9iJ19yRB9fl0VCRmhOli6Slod3ICe2i5azA0s5PvYt3w8flTL/nFIYJMTTkk4jew9iOD+cffjFX2rNWDro7QkR2Wzs/ZpBRT14XErPYfB81nHHvhhxxS11xMkoiqLk/WaA/kJggRlbdRn6uSDlrMHGdq+i0dMh+tWRFnc+IGttQztAgRFPf4RGVJ1gfegh5aFTmK+PltishGBqq2tP7gQWfu4s9ygvpGhHKE9eH3bxX/LdasRVMg/Pl5AAkvbG9D19R1eud7DLrWsmno/EpnCY4FuTvCHW38sy8XleHUkbsDk551yewZuq3UrSRhXY/zxvA60y8Wf5Fpd5Dyu7d6aFvJD479W7ijBVRtvUD5yfcv2W9/WqiKrVq52v00t9+TyQUpCzXmTR5cy5dX7jZvTLNyJQRXfOe8QocdkzB+vvu+E1BxMiNm6O/umJYRVnC/XHTne/Lk+PpPBchvtEV1VvNge76d7AVI2C6PJ7elQShoulSGkdhs/FjxnfcCXy5Apft8fR7B/9hGW+uAvpg2SdZPhLYu4Wdzd3G+ZoPqr4kveGItHlyct0FYI1fdRybAAL1/b9dOF6gWlkJ1D5LPNs+tqMetnTN/W0D5imWXA+GyxPiOqlQ6ytjpLwU9yQYahLnWxtc8zRNd97at37BF7y1Aw+uB+IB5dil5p0ScGJhr10985u3/2A1zT9C1DQuRXyPu2clv2jyU9HEKeYfTSc4p3Xjd10J/9m/Ld3Uln3O3Wa53SgpdmYWm87SIs9Hkh5IU9MYpq9e640+ndldv9T11np3K00EjJCiAe8GHzYbQYaXk0aW37dBui00WGuaA4ag65rpQUoHSyWyla+H90KEITtUEMxdmiPyT6aesVuLhbeftAcJCkypjQLBcmQU6Uervt5XdwkbOAEGqsOqQQi9UMKr/+wuOjxbyFeqG5i+LB/wWkZaWT3XaC+QgYroy6ibrYWoaWj0Z6TSdO6WS31+DWM0zSluCtYTrb1zHcKdYzDEr17fXQwl/XdVMdnqFXam19RuQ79s3xM6SlH7+iJ/8bs+U55/EwzJUmv8RQ/QYMt9dDcIg3vwHDSvdXGH49foa0sv0SbMdtyBVnycfBkKny1jL0bee/+hgYrlpAjunL7WMa90dlVT/A/mTIpqhKvbgaqh+3Log5eLyMoSelNr/PY56386gN4ZHUXPNk2Lw/b5w11EJdhYjBxN2yW7IAzmLhjYUkvDx9On9oJlwDSif+bisa+O6214Hct9WKosjpVhYYhqTUwy7erorhny9kwIGgf6B8FLVatVp93OmVa/tqVnAty7InixVhwU21dLt6ij0ZLD6Pya8Yub7rTms1eOd3vS1ktiDG5hwe4aJeXFGS/MDudjvporQYlbLSHUove2Hbgt9sI38f58Bg1wuueZ+XCwxhSZXbLZ7pwDtD93ohAea08t0IDvtbvrWt4JvjItOudHdeXWSYY/d4c3tnu5Y/jnMLMgyY7l9H6XnJHqvClmkvqPXOQrW8w6ByUthYVwo4j5/0orMloRcP0kMZvM92djy5vnyIJeXLO7aqxc1lCPajE7NwwdIEpq9Rx/S8XTfH5nuoCGMH5a/7IyVXdN0FlVts25vdcgUb8rhEqVNALM6qMW2UJ/k9WJm8f3Mv1epqSkK9H5a9WReavTA5Yx4sIDrmZzuO2QysQlEySlcGp4zIM3M2v8lzcb26tDfuVY6mmljavpD3cRQu4iBHVvZNUOHFF2iz86JoeXvbT4DKs4TyaPeK6FoRF+tbmFg8BuPnL2m7XAKjsZdKrO38qqp9dNHaPu4rJtZ297CgjnzT0fUB+Hncrghv5S41CCq/UCH5MFxsd5VI1jIk+lsdffBU2sJ/xWzJGchbyPN9dLNbroP+eKevd+59E9ns4o/tUrttxjDQtT1Rpd5+5g+56KT0OsUjPS4J6DLvUU065nx6BUnfNtFt9KWy9N/nEiFeeyDBljb9fV1ii0avZ05chAETy3oocjktryD/WBFPQprl4vrje0aGCP6TOaO8dLW/hoW24q+/mVR5wJbKAPzXUxe9f+JtQbqQv0ggPFqM1nJme+gZGQZa1/C+KNqT+HlFngiqcvgol5tB4hEZtFvvWpsCwp1GzAlLltpmNjzX8iU2JEKfIt/ZU7e+jc6qnqbmFjdRwy/d6Nu7XcyCqWF5YqYQ+BBbm9TfcsyML9Mhg/Pjv18pvEFIWdz2b++1poLkwN3T7fsDNoeFO5UQfCKnatj/Dolir/JuCECA47cvYzP+oZCOcoNkPd23fu2uIeV7wbapaBUtH7u9Jykp4yxhxT12moAJHOkwMRPWarBeF+Nluf6LMCDpk6rYv6vnXzpx/PyP8cXZUMnk/Z5/ToIueFMH2Z2GGfOi9xKSvsC28EXM1ahtui5gu+Vx/b3Nll7NY5xopZKH0y/t8sXF1c3Z+ZCrmOSYt9wGpzKsNjB4moKdR/716UBSHe2xigEMW/FDeZJ+Y+5p1YvrWr9NJzqIUsVxrJTUK5LLlxeTDNrPQz9hd/5zqvr7nFRnWQ7utNBz71oBdb99bNIHecZHflaIanz5XJU088069b3dCDLAIEV/GnNaNu4kcvNJH2sZJoL/nE/jg18pbF772R6uAzmDPY05fXQ3YO/csPslhiZcKj2l/VUOvFGUP8SME8vNY1we7OQetwEPVLF+0PG0oBhWu7K7mQqMUdkcH3KeqY3zn2L2vsX/VQTmJqk+OSTDHw1Fw1+Y1rIGZqgbJerugBQvSxyypznfZi6hB2tuor+HgBNubOjsZ1yQSvdQfd5WoXYPMWM4d1MvqWpYp7eV9WG5dNzN3BtjrNKGuPBAnew+qo1Ubn6X6vBJMca3sj5MJ08qrM76Vi9QbXy4GZHwiydFlZvdVUydoJsB+8At2iUE4/sOOpM6mPvsLzNwyz2gy6gVB4znprrIOYvvwMJen28+c49SHfRbCEfnspoT0+nmHmPqL7SvrPc94FpRBc8bNTTTSHyI6P5ZXb9eBsH0EzJXFlv3nIppVYRykCD+WM11d8gbis8juljcN2enBXwZb2xLWUBUN92OtaHm01sJ1coVcvxDz6dx7VSKKSN1Bnm8b1kTRTZmKEKiz0Cz3QLuJtU0ivBUG771t7th9O+iVtTMNGGc501O7pobWvOrz7GQk3mby5hn/MLsZyz+nqoc7kjjb3jcPrgOvgCDX+RCFiNcMLdlagMxX6GnJDBzyefsa8DMdNr5Ix559nwiB+mKoOAmDq6DPwEbVermxEzLcW3UjxM2u3KPK8m0R+dqOURrNXgzI4wOvqcZmZnxWq20j0AHX+AYKQ66kDLC/6xJAvnijC0Vpf87+fLUDKqzsQ8L7j9fdd505lPVT58HOX2/An7QPgodfEH9ZHouZOP2XLMbE/xbAWN3Mmd8iPpqJvHcztvcUOuJnYbZkFcf3d+5eLm7nY/4fB0mUH8iy/JrZPZknKi0RzOa7xqjTN6YSckWMh1exzZf30HPPYPl+X5FGpS606nzsxNezD1TH8hczvUieoTqVgHhaf3pWHTwBQUnlaEVJfOzEZh+wC6QH8ezMzKJPEeuW0CdubtqITEX+S17StE/9DjB5cDlEqOcvHajJxDIGb3qxHN5H7s3u9qxE0qfO71CIVigGW/t9n7hr+OuqKrV8FWOoapbhuFJZS7vY03j+vLoUtFpLpkQYqr/ydnkKKaUrwCOOmdD9XqeqIsmyfLx7fwVX8bhYzP5OWY0PZoTAdOq2K6jLbr+9gvLx7h+NdLTrjBBS2WQ1JThXJwTO67pUI1Gpvffg0RJ5Rq9CNsvddhjhgUp649ew4yVoLDxJmkFAl/M/72nXGXaoob7Cn4okLLZ7x543RsBVm+P+81YC/2I0tgSX8XzDOPno+FuSWgpzy8idOx/I2getuWaeY6PunT3vPL+m7b+uD516Pn7+L+fOi7EswcbFrwNIKC0zSy2aPx3Dac1a3w5H4KKuDtlaJfNRBbj/Y/gjwRsDOt1PgA+Te+av6J0MpXt7yS41bi7Ks/hqnakMcu/h722be8Fb24K+e4x/S2gDBkyZMiQIUOGDBkyZMiQIUOGDBkyZMiQIUOGDBkyZMiQIUOGDBkyZMiQIcO/hP8HR3xgkgH9yaUAAAAASUVORK5CYII=;flipV=0;" parent="1" vertex="1">
          <mxGeometry x="275.94000000000005" y="238.13" width="14.25" height="14.25" as="geometry" />
        </mxCell>
        <mxCell id="9s29wU9G6qrsy2zOdIvL-15" value="HI website&#xa;and extranets" style="shape=image;imageAspect=0;aspect=fixed;verticalLabelPosition=bottom;verticalAlign=top;image=https://image.flaticon.com/icons/svg/811/811768.svg;fontSize=8;" parent="1" vertex="1">
          <mxGeometry x="272.83000000000004" y="275" width="19.75" height="19.75" as="geometry" />
        </mxCell>
        <mxCell id="9s29wU9G6qrsy2zOdIvL-9" value="Cyclops" style="shape=image;verticalLabelPosition=bottom;labelBackgroundColor=#ffffff;verticalAlign=top;aspect=fixed;imageAspect=0;image=data:image/png,iVBORw0KGgoAAAANSUhEUgAAAB8AAAAeCAYAAADU8sWcAAAHkElEQVRIS52XWWxcVxnHf+fce2fujMceL0ns2I2XxG7sBJo2CQFCQhZIkVAQSoFKPBX6gqBPIF76guCtQkiVeKtACFUIVYDUJVChLnFTEkLTZmkWJ0Fx0jjYqTOOM/bYs9zlHHTOHWe128CRx5bvnPMt/+///b9zxf5zJS2A7mYPV7Lo0uap/QUI+4OOQtTEJUSuCdG6ctFzZt9iy5gaK4aI10ZK2jj92sM55JK7A7h6CdJZaO9O7FXmqLz6EunVq5FbdtejE+iT7yKal0Pv0BKuk8cHLs7fdr5rTQO+K9B6IcWFTAVaxcQjH6BmpnG3fBXH84jLZUrvvI3X2UHDo59DodHVKsGLz+Fs3o27cQfC2DJIWWwT1MxSGoZHF3GutEr2CZkgrRRIiZ4cIzg2jPvINryH1qCCKtVzpxBNrfh9/YnRyauEr/8Od9e3kL2fAa2snXsBXdK5yVzHEfGxt5A9Q4iO3iQDFVH7+x8Q+eWkt+1FhzXiyyPQ1Irs6LEOwrPv2efu0GaEKZFZhXH0/CyyZxAhkjCWdm6+rFUJfv0TnPWbcb/+tHVuDtYO70eHIekd+xBxSHzlLDS2Ilb0QBgQnvonctUAzoou60SXponf/CM0d+Lt3Ieok+pTYBfo8jzxiWFEdQZn+xM2E10pEV29iOzoRWYb0KOnEPll9v/ayAfooELqs1vBcSCOCA/8CaE0zq4nkSnvFvwPVvPCONGhl5GP7Ub2rkugnbiC8NI4+WbUpbOIfBvOyl7Kp44iUmn8wQ02CPXv46jSLN4j26Ch0fJnoZPvcS7Yudon4zkkdDOYGaYKRBRQO/M+2s+RHtxAXCkT35zGbcyh5wrIbB7R0EIwVcDJNeHmcgSXz6MLV/A2bK/X3rgWNnjziRUMX1pgu+uwo0vgFy6h52egow8a2xCuawNQU9eIb0zidveDnyWeKeKkfbQKka4HjosKQ4R5dmMCXa4g2zoQ2Zw9T1BBz80QnT2a2OhZf4dzR/Dl7jTp4jWig39GzZeQX9qH192PyGRsvDoMIAoRKT/pXYOKaUfTHQYvISGKUdPXbPtJvwFt2lTFRIf/ijp/HL3iIVKbvwKr+m/3uSNh1+osvqNRpRl0tUxcnLaOnfYuW2ONsDUzPpLqKYg1VhZtC5mPQscKIaXdGM1Mo25MIhxpgxENTUg/Q+y4DI+W71c4U3Or3Va/I3RYRaYziVjU+3RiqkzhZshcsYaTlqTSLn2dGVoaU7dlTGvisAaOhzTsXxDMxfp850COjKzPDxWjbXY2BKTJBHjrX9d59cgUfzs6ycfFkEotxhECzxEM9eXYOpjnx090s2ZVo1XFRC2FJa+JWwtprcbA8C1tdwTbm2bJBkVUWxfCN0NGGLW22cZKMToxx49+OcKR87O05CW5rEc2LVFKEEQxkzcDokjz5PY2frivj02DbfWmMVawqsnMdahWUH6eg9M+4rVzJe26LtvmT5D5zxniTY/jLu9GimTAmPq98o9xfvWXj9i6roWtQ3ke7c9bHfGExGAUa8FcOeTCeIUX3xwn5cJzT6+ltzNnM7ZDx0j26GnEtSvEbas45A7Ua+4IdiyvkglKqHy7rbHNGk0t0Ow/PE6hFPHNL3bQ3pKyqARK2X41/JBS4KeEITvnx+Y5eaGIKwR7t3dYhJSBXWtUZR5ZnSN2fQ5e9+4g3EAO/57LhFKKWi0ijDVNubRFohZE3CgFpNxk6oVRoqaeFOQyLinPkEsxdq1CW6NDtsGQsD7ZFkbqXTU3rVaf57doaUVO2ajNUdNiQaCYr0VEGt4/X+SNo1N8fl0z6/tyrGj2SbuSfINjkTACqZW2wyTRNjunP3mq3encMN3eLazUaiqhYq4SgZY8+5tznBub4xdPDVCqRmwZbMFPObTkPJw7r0RWWe+e6EsOlrudL8h84rxcjSlXFUGseOb5ET68OMvOx5rxXJefPbUGP+3Q3GDugktcBuvGH8h5Mg7q2QvNfDmyAUjP4dkXLvDbly/j51z2bG7nhZ+uw3WEde4ZyTSw30r6/8g8uc8lvW7+2ppXYgI044UKR84U6Wj1GezN0pzzSElBq4HdTRTNcEZrMwPqdf+0O9xdhFPKZlsJFC1NKTO8qFRiiuUA13XQsWF6QsawEpFNSZryPpUgYqJQYWWrTybj1iXXBJFYfyDYDdGqtZjfv36VtAff/0ZPMlTiiJqCqmlsZeRVkrV9mojnK+9McGF0hh98Z4DmJjOU6mT/n2pe1+Q33rvOSwfGaW5MMdTTyFBPjpQrSMlE3UzrzZYjxiarHDgxRVdbmu893snaXqOE95PvgTI3NbMDQcGh09N8++cnuF6okm3yWJ5L0dfiMhdqCiXF+M0aUajo787x/DNr2fuF9lsvEvd20H3O9wzklnxdWqDusfPTHDx1gwMfzvLxdI3pYg3XlTQ2eDzc1cCmNY18d08HncsyyUz/hPX2wlQzyGzs9C2Ui6761TmTlgSh4uRoiWMXZjn9UYmc79DdkWHPxmX0tWdwXEEYaauMSy3z1fHxKsK8KJpN5lKSyNli63ZQpgwmKTNcjIyaMwbGWCV6kJhY2vGCdaOC/wXncupOS8yNzQAAAABJRU5ErkJggg==;fontSize=8;flipV=0;" parent="1" vertex="1">
          <mxGeometry x="272.83000000000004" y="322" width="20.47" height="19.75" as="geometry" />
        </mxCell>
        <mxCell id="9s29wU9G6qrsy2zOdIvL-8" value="Outlook" style="shape=image;imageAspect=0;aspect=fixed;verticalLabelPosition=bottom;verticalAlign=top;labelBackgroundColor=none;fontSize=8;image=data:image/png,iVBORw0KGgoAAAANSUhEUgAAAEgAAABICAMAAABiM0N1AAAAhFBMVEX///8Ac8YAc8gAaMMAbsVxpNb///210eskfsgAasMAcMQAbMRKjdGuzuiSttz5/f////nw+vzg6/Dn8/jg8Pi50uhTks0AYcDZ6PGCrtpPkNDS5fKnx+Q0hMnE3O2evuCQvd9upNBal84SdcMAYsaDrtJ4qtMAZrponNEAYLk7hcNdmswzE5z1AAADiklEQVRYheWYgXKbMAyGsWU8bC8BGkhLCKSJ2yZd3//9JtlpQ1pD43S3263qXQ4KfPdbkiVBkvxlk1Je/ej5QX6zuBqEfw5SVvV8md3OvqKovJs1KwZgNIcf8Y87K9t12nFQRnDGOI8ASb8ctEW/STsNSmjmjNNPhCKMTF7V90umUIZGEWxoF4Gcjpu6WWYGIdxrsNEgWbaz5tf+VqFL2ahdomgLxohxxOWgVEwo+d4gGQsaKwBvleFSUL77GbJ5GQuSmQ4ZrKIVZTp0Rd+u/wiIQ1p+EcSxvDBj++iofQBZLWCbT+UR1x/2b1AR2D4pxkHGZF1nlT6WtDAILwmVlpL6Syhq3Ap1X6Hcsl/ClCLOFMohiizrkCLTLV7bx0ZNKNLQFHRfIWvTfARxnaHaQvqOuFanxTnQ8cwHK5EFOihPlZoHFImq8Kt2uBfzVrl9ZvvVcw0p9Qok9UZxEwCphijVMus2dN/NSRIpspq53gSsd4uXZQrCBkCc73EDylYJrh8eyQMHMQAVtTXYEwQ8Hb1Ya0VPfQBxLpZ03lEBF/s7PPwBAxCGcvuAueGDlaAcdzEAYmaDp60PO9Dlxf4MJJM+a3KMFHq5Zsa3rJCPoMfTue9sosNjcssJRNmX429eJOVOUQ+1YRBXFZ4e9DETclxBNwARRvqKSN56S5mAjxQNQSvf47jAjHo98SAfq6QoD+C0jILYnirLymcL1w40UFTaras8M4sP8EmQU7TzIoRGd5wtLc/g+eX+8dft+R4POVtRyBuXHExk5BMrhiDNhRLsrCqEfWRqFFGDT4Utrqwa5lGeOQhnnyriuqHgupgyaMkd56Bg8Q/5iGe0ZWvAFIEtXVqKa0DUEaiSFxgW+4RbW1an7RwHYjpzqZIvKPS53J3GpkgQF0/uX4QrkvWg2MaCODwlVD+puq3V4PZIEKOi7TteuztLvHgQ5ly2Sw+d0naqHX0GcuM1jhg4rJ9P2uO9n40oGrEJRfCnQPs2FmRBBQw20RPbLGh3b2PExaDwNBoeIqZAI3aaa/6Zgf07gA4gaGO9f4uNB7XznX2ml+op0iUgSrSy37wMX9GvA71+Q1nQRwMApUkb5+/H48tNUpLmd7Pmp1XwbqWRnzSS3H9bKav6caXdl4SrFL2+Vh53YYWOy8xeoDgG9cSDF8EX/eaQCfXwZZD7LdtN+8mNn3FcQKVMRl+N/3v7DTrKO4JBKB4kAAAAAElFTkSuQmCC;flipV=0;" parent="1" vertex="1">
          <mxGeometry x="273.19000000000005" y="364" width="19.75" height="19.75" as="geometry" />
        </mxCell>
        <mxCell id="9s29wU9G6qrsy2zOdIvL-10" value="Apollo" style="shape=image;verticalLabelPosition=bottom;labelBackgroundColor=#ffffff;verticalAlign=top;aspect=fixed;imageAspect=0;image=data:image/png,iVBORw0KGgoAAAANSUhEUgAAAFsAAABGCAYAAACjfujcAAAVMklEQVR4Xu1cd3yUZbZ+pmX6pGcmDVBBYgwtUkJVkBIgFLGDi6grNrh6vet1LVjRdd1d3bVhWQtXRUSR3pQSCE0IXQgdRMjMJJNJJm36993feecb0mYykzDB4f7u+2fylfd73vOe95znPGdE+OwsjytlcDxAsxWLANGVMumGeYquCLAJYA8PuVyEeLkEZrsXvIcHpFcW4tEPNgeA4zG1mxqPXqdDJ40EhytdeP2ADUUXHIBMfMWYeHSDLVj0szfE4rUb4puAanNxuGezBStP1wExVwbg0Q22i8PDOTrMG5wY0HornF6MXGvGfrPzirDw6AXbzSFXL8eWcQaoW3EVO8ocGL3GjFry4XRwRvGITrA5QCbisW6sHsNTlSHhe35PJV4rrop6dxKdYJP76KHDvEGB3Udz9MvtXvRdYcQ5myeqI5ToA9vLI0Epxu4JqbhaJwtp1f4L3jtSjdlbK6Lad0cf2C4Of8qNxd/6JYQNNF1Y4+bQf4URRyvcUWvd0QW2l0eiUoK9k1LRSSNtE9h08esHqvDczsqo9d3RBXYbfXXz1fi11oM+y0pRaecASfRFJtEDNsdDIhJhW4EBA1LkbbZq/w2zdlTg/YPVUWnd0QO2i8PoLkqsG2NoN9B043azAzetNsNN2WeUGXd0gE3AeDksGJGMu6/RXBLYTi+PoatN2G2MPt4kOsD28kjXSrFnYir0SsklgU03v7yvCi/tir6DMjrAJlIpS4svb0y6ZKDpAUcqXchdboKTpfAReWREHvL7gE1ugxe4DMGFLB6Vgild1BH5KHrIzWtN2HjO7kty/OWR39mHXz6wqcriJRh4FpZp5WLUe3h43Tw6x0qxf1Iq4uSX7kL8q/XGQRue2WllYBPGPC0uWToNIqx+h2pPx4LNAPZ9oEohQW6iDIP1CgxOkcPh5TG9yAJHPYfp2VrMHxYZF+IHe6vJgeFrzfA4OYzsosIT2VrstbhQXOHCbosLxho3QIUJiscvE/CRB5u5BaoV8tCpJMhLlmNUmgKj05XoES+DSOTbyxSiDV5uYtfNG5aIh7N0EXMh9KBqF8fIqRMmJx7OjcW8gQ2k1vk6D3v/ulIHtpqdOF7l9lk9ldk6kKaNHNhkJV6OTTYnMQZTr1ahIFOFnPgYCPg2AfPLk7WYvr4cMoUYReP0GJCiiCjY9LCpheX45lA1HsiNw7+DFCAsDi+KzA4sOl2P1eftqK73+gDvgPrmpYNNluzmIIoRY0y6AtOvUaOgkwraELXB5/ZU4vWdlbhaL8eeiQbExYTnr8n1Blq8QCs1r6QGj24sQ15nFXYUpIZczINWFxacrmXAnyFrpxdFEPT2g+0HWSbG+AwFHs/RYWRaaKKfvnh/hRNTCy0oMTsx8VoNlo1MCQrEmRo3VpyzY7PZgd9qPeyMjZWJ0TsxBgUZStyYqmBpfqCxu9yJgSuM4DjgmT6x+FOOjlXnQw1jvQe08z44WotfCXSy9AhwLe0Dm53qPEZmKPGfPXQYl6EKNX8cr3Zj/QU7frpgxyaTEzYHx/zk3IHxeK5XXIv7aXu/uq8K80/WgYy+b5IcWbEyqKRinKv1YI/ViVM2D/okyvBybjw7E5qPCocXucuFogKA7EQZxmcqMS5TibxkBRQhACTf/vGxGswrqYWl1uMLIy8hfGwb2BRdeHhcmxiDp3rqcF83basLbnV6sb7Uju/P2LHBaIe1zuuLeWlrkjVyPFbl6zEuoylQtJ2nbChDlYPDC7lxuP9aDTQyMVxeHh6eZ4CzQ7bMiRf2VGJjqQNz+8bh2WaLRtMdscaEzeeFeJuMhOOZy+ubFIPJnZSY2Ml3rrQ2SqpceO2ADV+frPOFr7L2IR4+2G4OUqkYj2Rr8FzPWOhVwfnmM9VuZpELz9ThWKXbF52QFTW2JI6HOkbMUvTusQ0VmaM2NwavMKK7Toqlo/RIUUow/0QtFp6uw6laDzwcjwS5GDcZFJiVrUUXjQxv/WLDf22zYm5ey10yo8iC+UdqmrKAghaFIqE4lQT56Uo8cK0GI9KUrQYjy36twzPFVSixuABa8DZmp6HBFnxzjxQ53ugbh3GZwV0GiWc+PlaLb0/XwVzjafB1gQzBy+OaOBl2TTAgQfCjLo7HkJVG1Hl47JmUBvKd9xRWYHupvSEZoWcJYMWrJXi1Xzwey9LincPVeHxHBVbn6zG2kVt7YW8lXqVicLADW9itIpmInTkzszSY0lkFcZBzwGT3Yu7+KrxPC0jzaMMB2jrYQkJy77Ua/K1fPJKDkETkQ6kG+MmxWlRR6NTcigPtUTePfgY5thYYECPEtu+VVGP2DiuO3ZbOopmhK404VeECc9pBFozcwjtDEjE7W4exP5pxpsaDfZPSoBRAYLXJbVbfnFrb/YJRQQKMyVDiqZ6xuLmVA/+b07X4758rcb7aEzZ3HhxsNw+NQoy/94/HQ1nagC6N6MwPSmrw9uFq/Eandjgg+8WRHI+xXVRYPVrPnk0ZZe+lpRiQLGfZ5B2byvDd0TpAEWKvenmmKzk0JZUlMr2XGbF6lB5jM33nAO2yuzaWN8w/VFQhgC6NEeOOq1R4vncsrosL7NOPVLmYcWz81e4DPIQrDwy2i0PXhBh8OjQBwwyBw7kikx1z9tp8h0+48aiXR3aCDD0SYvDt0VrcnaXBgpuSGRD7KlzIW2nE2tEp6KKRovviUrhpZ4WT0Tk5zOqlw7sDE5GzpBTDU+V4N8+XMa47b0f+ahMGpikQFyPGGgImnK0vuJcUrRR/7hmLR67TBoxeat0cntxlxSfkVvycS5DTtinYwqoOy1Ri/rBEdvg0H+RX5+6rwj8OVaPeSWqa0CvKniGweyvGpMDq4nDv2nLc31uHT4f4OJGFp2sxc7sVF+7MYNb4YKEl7O1JEVJWggxHbk3D7J1W7KtwY9t4X8Vni8mBG5cZMbmrGm/1i0e/FSZU2AVXFzJgFagHjsfNmUq8nZeAHkEil78etOHPuyt93xlk9zSALQA9pasa/x6ShHh5y+37S6ULT/5sxU9kHeG4jMYf4+IwKEPJQHh6txVv7qzEwzfEY94gn2ThvZIavLSvCpapmXi62Io399jCB1uoyp+5Ix3vl9TgsxO1OHZrOtvVW80ODF1mRFaSHCVT0sBA2WEN/9l+Q3FzSNZI8Ea/eNx/bWC3+tnxGszaboWdanIBdo8PbAHoe7I0zNJiAqzM0l/r8Og2K4wUZYRrzX6wKcXmeKzJ17PD574iC77Yb8MjN8TjAwHsT47V4OniKpTdnYG/HrLh+bZIErw80rQSnL4tg0mJl5yrx8HJaeztDOzlJqTrpAxsMqEeS0txpqod6imK03kej+bo8Ga/+IAaxO/O1OH+LRbUuloCLsKnZ3niNh68Xst8njwA0G8esmFOcRVc7RWguzkMy1CicKyBufc7N5Vj0S/VmJkbh48EgujHC/WYuL4ch29JA0kSbl5lAiRhuigXh5s7K7E+34BxP5khF4uw5GYfBbDZ5MBNK0xIVEuwb1IqMtVSvLKvCi+2t2xG4Z6Hw6hOSnw8JAldtC3zjVW/1ePuTRbUOL2+eFwYInx4ip+WpcX8oUmQNDuMKIF4encl3jpgaz8/wDTWHD4fnoQZ3Xzbb1phORYcqsa9vWPxxVCfz6aYOvuHUrzcJw6PZGmRtaQUp62u0HIyYVcuGp2C8Zkq6L/5DXNzY/H49bHsuWvP2zF2DYEtxb6JqcjUSHGuzoPcpca2+e7GLpHe6eKQkxLDSnm9E1tKLxafrcP0QgsrkPh9uOjWDWb+qxuTW5y0Dg+HB7dV4Kujte3Kli7Ozcujk07KYl/K/Gg8tK0CH++twi3ZWvwgWCD9/c6NZdhT4cLJ2zOw4FQtpm0obyD3gx1mDi9GXKXChnwD/n7Ihuf2VuHolDRcpfUd7hQPT/2xHBnxMuydmHoxV3hshxUfHGzDuRDo/S6OuaeFI5IxRN+SIiYG8Q+FFkaEEeAiq8PDN2fC6j0c8zvfHhdU/e2jAnzTc3F4oncs3h7QoN17trgSf9lZiaFXq7ApX39xRxEH0WOJkcW2L/WJwyv7KvFisY3xGRczQFbj8rV+kDikX7ocK0fpWZyetfgCZmZp8c9G73rnSDUeL7SgO1G5k1KhFrY1cTZj1paxJDBUfNxq0OLmkaQW4+ubkgOSYZSDPLndyjyDiGfFuYZBod29W8qxkBKKMAL1VidCByPPY9UYSqEb4vV/Ha7GE5stuD5VgZ8Lmord/3XYhie2VuDT4cns1F9ytg6v7rfhQKUbnIe72C1Gkoc7r1GzzLbazSFvhQlaqQhFBQZGWvmHnzcf2FmJreNTL4btVS6fEPOENQJCTIpU1FL8MDKwhT/+sxXv7Lc1BZtgf3CbBZ8erml7xBEIdRYlSLFnQioMqgYemWV168uQoKFCrwGZ6qbxPAsN99nwZM9Y/KV/PEvnd5U7QSQVMX8GpQR5KXIkKSRYd74eDxRVQCEVYd0YPa5pJjP2nw9Te+iY9TUef9hc7nOTkejJcfMwaCRYNSYFuc18uMPL4daN5U3BnrO3EnN3C6TNpbgO/xe5OYzspMJP+b6U3D92ljswZJUZXi+P7RMMGBigJPZhSTWeKa6ESibBjG5q5Gco0UktZbhYnBwr3hLBX2h0YEInFeu7oUVoPLycTx2146wdcwYl4JXcprz5p8dr8MdNbUieWt3GPpd5XVIMVo+hLLipAVHh46IbIZL8oaIKX+rdRuow6BxcHJ7KjWMxaeNRWu9Bv+UmlFpdmDciGQ8H4V7O1rpBpa3FZ+0wO7zsUJeKRLATHyIF+ifJMStbxxYi0KAIp+cyIyw2N74elYKpzaRtxJv3XW6EmzjqSH2zk8PgTAXWjtY3cWfsaCCfXWRyIH+dGfWU+YQiakKtbtMDAJ+PSMaMbk31exdJ/VN1mNE7Fp8L4V+wR9e5OeZCztd5WfGAOA7iwDMI8VbGJqMDI1YaIYsRY2eBocX2pva+PsuMvnpjOHxJON8uhKJ/zNHhk2ZFZtH5WjdP+ooTRGVGsoGTDkcA6/P1GJHWMiyi+P3NnyuRk67A7ompIUtU4Xxn82te3l+Fl7ZZ0d0gZ+9oXoSm2GDoajO2sebVSPhNYQZCbvHe0EQ8dl2DRIPF2YspxAvAhbTnAy/ew/FQysSsOBCo7LSh1I6Rq8xQxIiY1fUKkBhcyvu9PI/ha8woOl2PaT20oFwi0JiyoRxLTtVG1tDoRV4esXIxCscZWHGauRF8dJpnKWUEF5Y9meOhU4ixd0JqiwiB/k2uoc9yI06UOfHRiCTM7B5Zkc6Jajfzx9U1XswflYzpXQNLke/dYsH/lDQrm13KKjdzo3npChYgaKQkg/vkDEn+I/X4hudwPGIVYhb2NQ/H/BfN3mnBe7ttuDNHh4XDA1teeyf2+fEa3L/RgpQ4GQ5OMkCvDOzf7y+y4PPmNcr2vjTQfS4vXs1LwPO94hC6BtneF3M8NHIxiic0Leg2ftza8/UYu8aMeJUUhyanIj3EgdeWqdy6sQw/HK7BPb10+HJY8IWctrkcCyIVaweaoJeHTi5mncodBzYFNmJg6zgDS0ACDbuHQ/+VJvxy3oF/Dk/C49dHxpWcrHaj11Ij6h1eLBmdgsmtSJELfjJj1Zn6yPvsxh/s5DD+GnUHgk0vc3NYNCoFt18VXHf9QUk1HttgwYAuShSNM0AWThkshImz9uodVlxHkU5BatDed0p6Bqw0YY+JfmigA1ypf56CHr3jLJte5OLw6oB4PN+7peLJP49Kpxf9V5hwqtKNwgI9hoXRq94a1jaXFzesMOF0uQsfDU/Cg90DV1XoGaZ6L0t6yusF2UVb/FRbryU9ZIf+ko6Lw6SuaixtRKMGmuOItWZsOlmHu3K0+KYZf9HWb2Lq2A3lIB3I9gJyYcHVscT8jVptvjz6bJZ3dORvRHl4dImTskMyURFY0FhoJKrTDJcXiJH6+iBJ19eeQWfAwFUmHDC7GA97ezc1Fg0PLtpkVO+ey/drDh0LNltNHmvH6ANyvcQyTlhfhlWnhKTKxYGqRl+1s5GJ6pgzN1su9tFQBl40Xh/QukkmMWy1CTsvYwtfx4It+O2ZOVp8NLhlGwe1Yty0xsw09IwI4sGo0jm9YpGklDBdH5OOAGiu9CVCiuqlft26m+fx4l4bjpO20J83kGQiW4MvhrYM/XaVO3DjajMcngiSUCG2Y8eDLaStxZNS0bUZ1zxjiwXzm2dvAq/A5k1I+xWvTOPXuM4hsJONanwsC24czXh5aGLEzHeTMKjx+I+dFXj3wOVtu+54sOkLSbHUOxbv5jWUxkiDMmCFCfVuX2tIi+HmcEc3NWZnxzK8ieug0lfjQeLHzUYHXt5bFZwadnK4L0eLzwQxEN1P76bKDlEGYSmu2nOABLjn8oDN8VBJRFibr8dQgy86eGCrBZ/9UhOYAPPy0KslODA5LayO30nry7Cc/H6gigtxNDFi7GokTZ68oQzLSGsdiQpNGxbi8oBNE/Lw6Bovw8pRKSBBJh1ONpKvBbJqF4dnb4jDa32bFh2Cfdcmox0j15hBkWxAQs3F4TEqsfWNA9U/51A1KpSqtQ0ghnvp5QNb8MFpGglTXJ0lqW0goL08UtQSJjtoC1dy+6YyfO9XAzT/eqE4TwUHciHgI1iNChdpRrF2ZJwdaCJ+vxuMaXRzmNpdi3fy4ln5y98KTesiCyJQl0pEKC5zYPKGclAyGLDE5e/P/B0s2g/D5Qc7lCXwQIpKDLVE7G8OvigMDVZIouOVdsvJag8cFJ10IM0Ravqt/T/6wKbZ+nteSCdCg4objVqzGZj0N7J8+ru/M/cytUW3F/DoBFtIbgalxCCGfsqozIl0tYQVeAlfSnaKLS5000mZfOGA1QVzPR227YXh8twXnWB7eWRopTg4OZU1ifZcWopZWVomLaNBzB5Vxd8bmMja+qZttmDB0Q4qbUVwHaIWbIpIDk1OY6152T9cwEPdNReVqdRM2mOpER8OSmB9jNO2WLCgo+qI/+fB5njEKcTYPykNnTVSdP3+AtOePN/LJwOmzluy9o8GJbLCxF2FFnx77P8tu312ITSknrotnWWQXb47jwe6aTBHKEJQq3WnRRfw9Y2JuKWzGncXlmPhsQhp9to347Duik43QkmIRIR/9ItDmkrKdOJD9XJWdeF4HufqvCBl6CPdNUwAT704u6i0FSlVU1jQtf2i6ATb/x1EFFEyQgF289CP/ib0onf0j7K0HdbAd/wvDksOSDDmC/wAAAAASUVORK5CYII=;fontSize=8;flipV=0;" parent="1" vertex="1">
          <mxGeometry x="270.44500000000005" y="407" width="25.24" height="19.75" as="geometry" />
        </mxCell>
        <mxCell id="9s29wU9G6qrsy2zOdIvL-12" value="Genesys IWS" style="shape=image;imageAspect=0;aspect=fixed;verticalLabelPosition=bottom;verticalAlign=top;labelBackgroundColor=none;fontSize=8;image=data:image/png,iVBORw0KGgoAAAANSUhEUgAAALQAAAEXCAMAAAAz7J70AAAAllBMVEX/////Tx//Rgr/RAD/QQD/o5D/mYX/SRD/jnn/TRv/Sxb/PgD/vbD/uqz/g2v/d1n/+vj/7+v/3db/5N7/ZUD/zML/7Of/8/D/1Mv/xrv/gWb/VSb/h27/tqj/bUv/2dH/loH/qJf/Xjb/fGD/pZT/z8b/bk3/w7f/aET/saL/YDj/WSv/kHv/i3X/rp3/fWH/IAD/CQBaPjA7AAANlElEQVR4nO1dV3vrqhKNBJYMuMi9KI5bXBKXnPv//9yVnDgxA6iC0Dmf18N+sWKvjQYYpixeXuqDYDBttdut6WBim0lGjNuXE8IYRYj+DV8XA9uMUtE6YuQT5xfER3jYts0qEe0QU0cAweHCNjMlDidMRMo/tA+22UkRdJiC8o026wS2GYroO66acgzXWdrmCNFKGub7YLdss+SxYGmUY7AP2zwf0crEOWJdo8VvmpFzxHpqm+sdPZpqz3cQt2eb7Q/e/KycHcd/s832G1ecnbPj4KttvjF6SDSO2ONgjPdC7h+hOhhIU9hUCEbNw3IwWM5WVPRF3LNtxpEnKhgHHs7+Ph69CZ+jsT22P/DAQBO25h/4gF6U69lh+gBg0QSP4BNTFzxCbLtOM/D2sWT36APW4v+rYrzya7TcJxrxO6Z/qZolAD/QdC9/as791witliPEgB9DpjjE9vjHsN2z7gFxA91VPccPNZ6pnqsE/IKHlQfBEWdG7nuVHAVcuBFUbxsTzj58u5ti93GXJqH6QfK46tFtdQwl2HOkP9UPvnEPDqtjKEE3K2n+Qac6hhJsOS4n9YNvWR+sANxETHIqOM+aHCukKGLFr7/KTaPHLXl0XiVHAVduc0HKuAa/CVl2TnfcCKpnIjcPHWQ31DQBTsVO/li/Vr7HS8i5yqplYcgNNPGr5SgAnLbQSvZQg7Nox3+tmCTEEkTEmCTmDyN91k8uLw44tjIhGPMBONs/I7588K8+GscOF43pvcIYgtuwxfUXgRBF8t3Gr4s6brgw0EfcGiQX13CoI1ro7b11OLTe98gVAmM1CHtEQw2tOgZ14+SnK8vP0RoMdLRFZw6px6hLMqCTktd6hG/30PKAjcQM5CCh9eXujrE43RScsf2I6S+Wqvwy4FyfPFGMaXruMx5nhRNoC30/NVtEaa3GOUZPDPnzwG81sudfvLOERYQyu6EwJcZdFW3KunUc5m9M90xc/YjL9rWzZg5978Tcv7QzoS47eX3brNKxXM83iOEIDG3m638B4x9MxtPdbjquhUP3xBNPPPHEE/8lBIPRYu2tzk1tOK+8dXvXN1RSFSw/XsO4jst1fa1wXRQ7SN2r7tLdSWuLpGVn+kBd7HYX2hz+YNR1Ufb6yuIgFKH9QUdMptdwZNX6pkAxaZR1S3tNScjVLIjremVoBx7KESHUSBs1ChvJwgrlGxApVvczPmYLs5kBYd0Ca3eryukng6+ua1LhNUtc0CwIy1ew1Btas+ZHoH2OZWRJLZvGHX6YOYE/sm8adxCc0SOZ5co5GUbGFMAomTOhsWOmD76f7NYQliE6ltAuEzk0mIX7i6cVl33IsCzZef9VlGrXA6Wr4WP0dZ0ayYsF0+sXUu4LxElZQyah/E8jd2A+MprIC2ZzrBgwP6XscS9N2hAUrivoMRm/O0KK/waUWKDekKZsfPReUbY0aCDpqCWlxfuySUjYV4WdPOOuzE1LyteGslIGVHFxuNRTo8pyTU9iUbm2fz2YyBwfrGjFHkiMg60q5fsDoXgpNhD5tOqKr8VW3nEljp+7kj24Ex9k1qqzVuJYM9lcPAoDjS0WOr0K80vWTST6Sb6y96QKiGMoGeo9fCipI6ICTIQ9XbRqcV9RNSZVBWGOER8uICu4feK19KsqxBku1xhs5gEBL4PabSi5cYK1hhQ0YcOORmlLY9U4CKT4qTgH1qHuWqsSQzDUiCtWDuA5LcvBzDzg++ftYwo/VfRhVo0TbGd+9N4aYKLmD6OZwRryeiyvB9uPuCJaAmhW5UrVA7DR+017PHkAz/PxLDCALdzWmxzuAH0Dj30uMzDSrCbWIXoXD4GbK2/vltsrOYDhfNjzgONRH5MWnE/05350+eVQ3WdXPcB4Piwfn0AmoUbFysBy/dXvJyGYh7XYw78BdnK/8/uJA0jXqI52qtR5qDFpsOaRze8nkHSNZAxBBOmhbxzadI1J/zWInuo7EdXmAZe8Ghy17oAT8e8YsAebS0286RgH0GT71+ze4ffKGjRY/gIcT/y/SF0D+B62e4YfMAfj+Xe0/QBenl1pBw4gOfGgWbMDhwBWB7m0G8awB/tvNYbSZPWZiS3gT7sPxxMQoayPUQOTflimBVebuDU5b8ETN9fPLMQXamIfbXjaekwPLmsaYYLpAE5QUYj01sP9gBoP4MQNdOAc/8sSTw4wSchHTYGCV2w9NRAihtsH1FERYr0w6m4Dn2mczkLOxbouuKDvgKHKjpjdst1dLqTqJZIkQmacJuh9VQGhjkPiMYupcdeqSuRWqJ/AEjfuTczrWlT09YSMvrQMQVaFYG0yriVkpP6yrN7DUiiyIXJG8jOgtLLGynGxKTIhRPHsSlY7tK3cS528SWqpmDKjImsZ8p2KfacdklSLJfhC0uJYUqmJBE1Z8TahCe9bVuQWzYHq7sxYUGldP0sM88vl5AneVCGuF3yE8i4VnFy0NpHpOd1ohw2zth0sPSIRho/hpgk/9hV/GMtWnLyRoYDIeNYkEqmMb/jD1AVMsjH+8cbM3ze9hlZ4lyNiWN3rSNNqvmMk9zEQqrUj4LspIOkHKc30dvMpfhkGJRktskZ9Ln6Yuah4mfzGqoN7zFEIPd7UoncLd9KpPiD4stmM+A2a/xCysN2PiDYFdrPxm83BpkXdtDa2ZdmEHQs7DcGZ5biPRx9lvCnV8TE+V943TtmptEJl7z1kVWgKfCNyb7p6StVGWx9XooXg4k1DXzHB5DCnRlUnCHUx+nzX7bIH/cXtcstY4EMrbt/pfK13ppKXwbg/Wmj1pt+vi8N0UJNk2hNPPPHEE0888cQT/0UE/d2isWp2tt1kbDtN7729s1/8PD6cnZscoO/7NA3fKn8sjtjbExVeeiecECJXH7hcjD8Np0jkGDRClRxKRuKbj4pLRvvbMox/eCN0qdDAl0ox95zw8WtFtAdbTZRvtFmziknpaQ76ueb7x0ZErupTAgR/mrWRs5HEEjVZIdMbah/mH+C5qSDO1GAmzN2YqQ1sG81xUN9En5CkqksrCNOvAiWp6tIN7ayTx5lEDhxKR+QLJlpYclVNbizUnKmL2abjXVvpWK86J5bgtBCms5RbqbtIXHZs7PJsxJNd46gsUiG+vjVkoNhSKNtci/zK+D1UJInpSdd6HUDtjfvL3Be3wZkiSezq6lCYS7O5aFMuoTYLpdsr1lNf3JYZNNWgg+RJrU5L229PVlSGhjq+un+SvEO6Sf/DVGwl7rM2bb1XyVvUYCCy1Y7pK5KUbVqs9FlmI16RpXW7lWxbMuW5XGiLEnxYr4sAb7B1ys9FsSBV+32c78K4+OWuGhcH2oCGoXgdaLmhFtpmjGgYCteB+vkk1nlI1PdMRCnENihU4mfmcAgMnC5iXKEVloiFTOAIUFMXzH6C0SkhtQSbdc0Jr6Q1UeYAbDwqNT/y/ZRb1B8TrMOgwg1sYSlsH1AtsOSan4xhUgt2DsC+VqOyK4ukZvccAGKSZnVmJ+C1FrwmXfgasz1SUMChmFFDiUvD/eVgfSWulm8RO4y1Au7lxVZqj3e+jPfEg5BZMYG5LRC+Ma2rDfYXVKjrF4hXINPdc+DNFpv34HRoXBwLyG0+iPxlB5RXNq5SB+QwaJH9dwLUS4ruq5mhFvnLDkha1uqvFWoVt+wQzMM0abXIX3YEYcU2rRb5yw4YlTYuYgh0iwqZR+V6gDulyF8OvFW8uQBfx8/X7PcDsK0WPrVlhacU+csBcHChpvWaoK9TKEwNVaxN6wFCL6/QeQuqTCGza54efxpKBRqeiR8JIn/ZAaXTDBt1N0HkLwfAzCDI5HkLRoaKnjmgHiDSnQN4xFVT3APqeRV9Y5kAE1KFPWHhbg9zOzkMwRWP9V7gLSrmDuTJV6PkgRA11lz68oeWvvi0IHxkyqpTr/vJA3iPikpBqyyawsVKJTYyuCka0uYUk2ilQnBbmN4iof4dZiIUZ5QL0EK5USPZT5jaKn3yF65wc5DubNGXkGWW3zWYHRINMs3Z8YtYylQ6WiEprME6x3ou1maUX6LGkhImrM1JDSSCeUqRvxwQhFIdfdXOfUdWIKVDi0Kc3HGFmw6Juqusxk2P4LFMMFLHPb2Do+zS4kSRvxyQVBnFI4IaZWo/xmd5uak291det0lc1ytq2oOL/GZmnRdMCvU6d9poPsv/NietLlY0+KSK/OWAtHTz20iwu80jMjIYNfZIJrL5/W1arwHrq5tyYjkX5r9tO+noDlHidfSZRP5yYJrcSkTivs5UpEj4ZBT5y8PauJJXZpG/HFgq7VoPcoj85cBAtudqAzqaiV/1jqb6zaL12dzFIa+GJCOppk4AOQ6uCRMpJPKXA5Mv7YMtiPx5l/Oqefl4udyOSOeVBtozhTRwQRB2hMGkQ2uN261d8E98f8ESFasLgvhwta1+BEu7ZQYo+idgXmTp3sqXPFAAQcPXQpuykzySNIjj98E/y+PLy2mK9ZCOvnAxZCXl6ZJE/n5Iv6DJwAmYLtIRlmenOO+byJ/aGb+T7hyuDa2ko2/drUIUeW35mN9E/obJIn930qPusT/RSzrG+NDYU4Rxhr7PCLHIX5hB5G8Q3wkc/O8lwM5L7x/tpG+YDKazdga0RstsIn+TuLwtiNaOwyiaPv8HrPzYgaJ2uf0AAAAASUVORK5CYII=;flipV=0;" parent="1" vertex="1">
          <mxGeometry x="277.82500000000005" y="451" width="10.48" height="16.25" as="geometry" />
        </mxCell>
        <mxCell id="9s29wU9G6qrsy2zOdIvL-16" value="OSHC portal" style="shape=image;imageAspect=0;aspect=fixed;verticalLabelPosition=bottom;verticalAlign=top;image=https://image.flaticon.com/icons/svg/811/811768.svg;fontSize=8;" parent="1" vertex="1">
          <mxGeometry x="273.19000000000005" y="492.25" width="19.75" height="19.75" as="geometry" />
        </mxCell>
      </root>
    </mxGraphModel>
  </diagram>
</mxfile>
